{
.appVersion = "983";
copyright = "Copyright 2017 The Barlow Project Authors (https://github.com/jpt/barlow)";
customParameters = (
{
name = "Use Typo Metrics";
value = 1;
},
{
name = licenseURL;
value = "http://scripts.sil.org/OFL";
},
{
name = license;
value = "This Font Software is licensed under the SIL Open Font License, Version 1.1. This license is available with a FAQ at: http://scripts.sil.org/OFL";
},
{
name = versionString;
value = "Development Version";
},
{
name = fsType;
value = (
);
},
{
name = vendorID;
value = TRBY;
}
);
date = "2017-01-19 02:17:38 +0000";
designer = "Jeremy Tribby";
designerURL = "https://tribby.com/";
familyName = Barlow;
fontMaster = (
{
alignmentZones = (
"{800, 16}",
"{700, 9}",
"{500, 9}",
"{0, -8}",
"{-200, -16}"
);
ascender = 800;
capHeight = 700;
customParameters = (
{
name = typoAscender;
value = 1000;
},
{
name = typoDescender;
value = -200;
},
{
name = winAscent;
value = 958;
},
{
name = winDescent;
value = 211;
},
{
name = hheaAscender;
value = 1000;
},
{
name = hheaDescender;
value = -200;
}
);
descender = -200;
horizontalStems = (
22,
22
);
id = "262880E7-CFE1-4BDA-902E-E24798F3240A";
userData = {
GSCornerRadius = 12;
GSOffsetHorizontal = 11;
GSOffsetMakeStroke = 1;
GSOffsetVertical = 11;
noodleExtremesAndInflections = 1;
noodleRemoveOverlap = 1;
noodleThickness = "22.0";
};
verticalStems = (
21,
21
);
visible = 1;
weight = Light;
weightValue = 23;
widthValue = 5;
xHeight = 500;
},
{
alignmentZones = (
"{800, 16}",
"{700, 9}",
"{520, 9}",
"{0, -13}",
"{-200, -8}"
);
ascender = 800;
capHeight = 700;
customParameters = (
{
name = typoAscender;
value = 1000;
},
{
name = typoDescender;
value = -200;
},
{
name = winAscent;
value = 958;
},
{
name = winDescent;
value = 211;
},
{
name = hheaAscender;
value = 1000;
},
{
name = hheaDescender;
value = -200;
}
);
descender = -200;
horizontalStems = (
188,
188
);
id = "FFFA8D72-12AC-4CE0-B2CA-57A29829F4DA";
userData = {
GSCornerRadius = 8;
GSOffsetHorizontal = 83;

glyphs = (
{
glyphname = A;
lastChange = "2017-03-10 11:58:30 +0000";
layers = (
{
anchors = (
{
name = top;
position = "{251, 700}";
}
);
hints = (
{
origin = "{0, 6}";
target = "{0, 0}";
},
{
origin = "{0, 2}";
target = "{0, 3}";
},
{
origin = "{0, 5}";
target = "{0, 4}";
},
{
horizontal = 1;
origin = "{1, 0}";
target = "{1, 1}";
}
);
layerId = "262880E7-CFE1-4BDA-902E-E24798F3240A";
paths = (
{
closed = 1;
nodes = (
"55 0 LINE",
"251 671 LINE",
"449 0 LINE",
"471 0 LINE",
"262 700 LINE",
"240 700 LINE",
"33 0 LINE"
);
},
{
closed = 1;
nodes = (
"415 155 LINE",
"415 176 LINE",
"92 176 LINE",
"92 155 LINE"
);
}
);
width = 504;
},
{
anchors = (
{
name = top;
position = "{260, 700}";
}
);
layerId = "4E2227F3-52E4-4048-A8EE-327B486EF0A4";
paths = (
{
closed = 1;
nodes = (
"194 0 LINE",
"264 458 LINE",
"321 0 LINE",
"513 0 LINE",
"365 700 LINE",
"155 700 LINE",
"6 0 LINE"
);
},
{
closed = 1;
nodes = (
"393 95 LINE",
"393 239 LINE",
"123 239 LINE",
"123 95 LINE"
);
}
);
width = 519;
},
{
anchors = (
{
name = top;
position = "{302, 713}";
}
);
layerId = "FFFA8D72-12AC-4CE0-B2CA-57A29829F4DA";
paths = (
{
closed = 1;
nodes = (
"197 0 LINE",
"304 488 LINE",
"411 0 LINE",
"599 0 LINE",
"409 700 LINE",
"199 700 LINE",
"9 0 LINE"
);
},
{
closed = 1;
nodes = (
"470 95 LINE",
"470 239 LINE",
"135 239 LINE",
"135 95 LINE"
);
}
);
width = 608;
},
{
anchors = (
{
name = top;
position = "{196, 700}";
}
);
layerId = "DCBE1F7B-116A-43E0-B7B4-8657BA77D8B5";
paths = (
{
closed = 1;
nodes = (
"49 0 LINE",
"196 662 LINE",
"344 0 LINE",
"366 0 LINE",
"207 700 LINE",
"184 700 LINE",
"27 0 LINE"
);
},
{
closed = 1;
nodes = (
"321 155 LINE",
"321 176 LINE",
"75 176 LINE",
"75 155 LINE"
);
}
);
width = 393;
}
);
leftKerningGroup = A;
rightKerningGroup = A;
unicode = 0041;
},
{
glyphname = B;
lastChange = "2017-03-08 11:35:52 +0000";
layers = (
{
hints = (
{
horizontal = 1;
origin = "{2, 0}";
target = "{0, 8}";
},
{
horizontal = 1;
origin = "{1, 7}";
target = "{0, 0}";
},
{
origin = "{1, 7}";
target = "{0, 0}";
},
{
origin = "{0, 4}";
target = "{1, 3}";
},
{
origin = "{2, 4}";
target = "{3, 3}";
},
{
horizontal = 1;
origin = "{3, 0}";
target = "{2, 7}";
}
);
layerId = "262880E7-CFE1-4BDA-902E-E24798F3240A";
paths = (
{
closed = 1;
nodes = (
"110 679 LINE",
"286 679 LINE SMOOTH",
"384 679 OFFCURVE",
"449 617 OFFCURVE",
"449 523 CURVE SMOOTH",
"449 433 OFFCURVE",
"384 373 OFFCURVE",
"286 373 CURVE SMOOTH",
"110 373 LINE"
);
},
{
closed = 1;
nodes = (
"287 352 LINE SMOOTH",
"397 352 OFFCURVE",
"471 420 OFFCURVE",
"471 523 CURVE SMOOTH",
"471 629 OFFCURVE",
"397 700 OFFCURVE",
"286 700 CURVE SMOOTH",
"88 700 LINE",
"88 352 LINE"
);
},
{
closed = 1;
nodes = (
"110 352 LINE",
"286 352 LINE SMOOTH",
"388 352 OFFCURVE",
"456 286 OFFCURVE",
"456 186 CURVE SMOOTH",
"456 88 OFFCURVE",
"390 22 OFFCURVE",
"292 22 CURVE SMOOTH",
"110 22 LINE"
);
},
{
closed = 1;
nodes = (
"292 0 LINE SMOOTH",
"404 0 OFFCURVE",
"478 74 OFFCURVE",
"478 186 CURVE SMOOTH",
"478 298 OFFCURVE",
"402 373 OFFCURVE",
"287 373 CURVE SMOOTH",
"88 373 LINE",
"88 0 LINE"
);
}
);
width = 522;
},
{
layerId = "4E2227F3-52E4-4048-A8EE-327B486EF0A4";
paths = (
{
closed = 1;
nodes = (
"204 539 LINE",
"215 539 LINE",
"245 539 OFFCURVE",
"260 520 OFFCURVE",
"260 483 CURVE SMOOTH",
"260 447 OFFCURVE",
"245 427 OFFCURVE",
"215 427 CURVE",
"204 427 LINE"
);
},
{
closed = 1;
nodes = (
"181 319 LINE SMOOTH",
"356 319 OFFCURVE",
"444 369 OFFCURVE",
"444 503 CURVE SMOOTH",
"444 640 OFFCURVE",
"351 700 OFFCURVE",
"212 700 CURVE",
"16 700 LINE",
"16 319 LINE"
);
},
{
closed = 1;
nodes = (
"204 293 LINE",
"228 293 LINE SMOOTH",
"253 293 OFFCURVE",
"270 266 OFFCURVE",
"270 225 CURVE SMOOTH",
"270 182 OFFCURVE",
"252 161 OFFCURVE",
"227 161 CURVE SMOOTH",
"204 161 LINE"
);
},
{
closed = 1;
nodes = (
"242 0 LINE SMOOTH",
"361 0 OFFCURVE",
"460 65 OFFCURVE",
"458 201 CURVE SMOOTH",
"455 368 OFFCURVE",
"310 418 OFFCURVE",
"179 418 CURVE",
"16 418 LINE",
"16 0 LINE"
);
}
);
width = 466;
},
{
layerId = "FFFA8D72-12AC-4CE0-B2CA-57A29829F4DA";
paths = (
{
closed = 1;
nodes = (
"212 539 LINE",
"272 539 LINE",
"317 539 OFFCURVE",
"345 516 OFFCURVE",
"345 484 CURVE SMOOTH",
"345 451 OFFCURVE",
"315 429 OFFCURVE",
"272 429 CURVE",
"212 429 LINE"
);
},
{
closed = 1;
nodes = (
"226 323 LINE SMOOTH",
"411 321 OFFCURVE",
"529 360 OFFCURVE",
"529 502 CURVE SMOOTH",
"529 650 OFFCURVE",
"435 700 OFFCURVE",
"272 700 CURVE",
"24 700 LINE",
"24 325 LINE"
);
},
{
closed = 1;
nodes = (
"212 276 LINE",
"282 276 LINE SMOOTH",
"321 276 OFFCURVE",
"352 253 OFFCURVE",
"352 220 CURVE SMOOTH",
"352 189 OFFCURVE",
"325 161 OFFCURVE",
"281 161 CURVE SMOOTH",
"212 161 LINE"
);
},
{
closed = 1;
nodes = (
"281 0 LINE SMOOTH",
"423 0 OFFCURVE",
"540 55 OFFCURVE",
"540 200 CURVE SMOOTH",
"540 376 OFFCURVE",
"362 403 OFFCURVE",
"224 403 CURVE",
"24 401 LINE",
"24 0 LINE"
);
}
);
width = 552;
},
{
layerId = "DCBE1F7B-116A-43E0-B7B4-8657BA77D8B5";
paths = (
{
closed = 1;
nodes = (
"94 679 LINE",
"208 679 LINE SMOOTH",
"297 679 OFFCURVE",
"350 621 OFFCURVE",
"350 523 CURVE SMOOTH",
"350 429 OFFCURVE",
"297 373 OFFCURVE",
"208 373 CURVE SMOOTH",
"94 373 LINE"
);
},
{
closed = 1;
nodes = (
"207 352 LINE SMOOTH",
"311 352 OFFCURVE",
"372 415 OFFCURVE",
"372 523 CURVE SMOOTH",
"372 635 OFFCURVE",
"311 700 OFFCURVE",
"208 700 CURVE SMOOTH",
"72 700 LINE",
"72 352 LINE"
);
},
{
closed = 1;
nodes = (
"94 352 LINE",
"208 352 LINE SMOOTH",
"298 352 OFFCURVE",
"351 291 OFFCURVE",
"351 186 CURVE SMOOTH",
"351 83 OFFCURVE",
"298 22 OFFCURVE",
"208 22 CURVE SMOOTH",
"94 22 LINE"
);
},
{
closed = 1;
nodes = (
"209 0 LINE SMOOTH",
"312 0 OFFCURVE",
"373 69 OFFCURVE",
"373 186 CURVE SMOOTH",
"373 304 OFFCURVE",
"312 373 OFFCURVE",
"207 373 CURVE SMOOTH",
"72 373 LINE",
"72 0 LINE"
);
}
);
width = 409;
}
);
leftKerningGroup = H;
rightKerningGroup = B;
unicode = 0042;
},
{
glyphname = C;
lastChange = "2017-03-10 12:11:37 +0000";
layers = (
{
anchors = (
{
name = top;
position = "{260, 708}";
}
);
hints = (
{
origin = "{0, 27}";
target = "{0, 12}";
},
{
origin = "{0, 5}";
target = "{0, 2}";
},
{
horizontal = 1;
origin = "{0, 31}";
target = "{0, 8}";
},
{
horizontal = 1;
origin = "{0, 24}";
target = "{0, 15}";
}
);
layerId = "262880E7-CFE1-4BDA-902E-E24798F3240A";
paths = (
{
closed = 1;
nodes = (
"376 -9 OFFCURVE",
"454 62 OFFCURVE",
"454 168 CURVE SMOOTH",
"454 177 LINE",
"432 178 LINE",
"432 166 LINE SMOOTH",
"432 74 OFFCURVE",
"363 12 OFFCURVE",
"260 12 CURVE SMOOTH",
"156 12 OFFCURVE",
"88 74 OFFCURVE",
"88 166 CURVE SMOOTH",
"88 534 LINE SMOOTH",
"88 626 OFFCURVE",
"156 687 OFFCURVE",
"260 687 CURVE SMOOTH",
"363 687 OFFCURVE",
"432 626 OFFCURVE",
"432 534 CURVE SMOOTH",
"432 521 LINE",
"454 522 LINE",
"454 533 LINE SMOOTH",
"454 639 OFFCURVE",
"376 708 OFFCURVE",
"260 708 CURVE SMOOTH",
"143 708 OFFCURVE",
"66 639 OFFCURVE",
"66 533 CURVE SMOOTH",
"66 168 LINE SMOOTH",
"66 62 OFFCURVE",
"143 -9 OFFCURVE",
"260 -9 CURVE SMOOTH"
);
}
);
width = 498;
},
{
anchors = (
{
name = top;
position = "{231, 708}";
}
);
layerId = "4E2227F3-52E4-4048-A8EE-327B486EF0A4";
paths = (
{
closed = 1;
nodes = (
"362 -8 OFFCURVE",
"450 75 OFFCURVE",
"450 205 CURVE SMOOTH",
"450 224 LINE",
"262 231 LINE",
"262 189 LINE SMOOTH",
"262 167 OFFCURVE",
"250 153 OFFCURVE",
"231 153 CURVE SMOOTH",
"212 153 OFFCURVE",
"200 167 OFFCURVE",
"200 189 CURVE SMOOTH",
"200 510 LINE SMOOTH",
"200 532 OFFCURVE",
"212 547 OFFCURVE",
"231 547 CURVE SMOOTH",
"250 547 OFFCURVE",
"262 532 OFFCURVE",
"262 510 CURVE SMOOTH",
"262 470 LINE",
"450 477 LINE",
"450 497 LINE SMOOTH",
"450 627 OFFCURVE",
"362 708 OFFCURVE",
"231 708 CURVE SMOOTH",
"99 708 OFFCURVE",
"12 627 OFFCURVE",
"12 497 CURVE SMOOTH",
"12 205 LINE SMOOTH",
"12 75 OFFCURVE",
"99 -8 OFFCURVE",
"231 -8 CURVE SMOOTH"
);
}
);
width = 458;
},
{
anchors = (
{
name = top;
position = "{274, 708}";
}
);
layerId = "FFFA8D72-12AC-4CE0-B2CA-57A29829F4DA";
paths = (
{
closed = 1;
nodes = (
"428 -8 OFFCURVE",
"530 79 OFFCURVE",
"530 215 CURVE SMOOTH",
"530 224 LINE",
"342 234 LINE",
"342 222 LINE SMOOTH",
"342 181 OFFCURVE",
"315 153 OFFCURVE",
"274 153 CURVE SMOOTH",
"233 153 OFFCURVE",
"206 181 OFFCURVE",
"206 222 CURVE SMOOTH",
"206 477 LINE SMOOTH",
"206 519 OFFCURVE",
"233 547 OFFCURVE",
"274 547 CURVE SMOOTH",
"315 547 OFFCURVE",
"342 519 OFFCURVE",
"342 477 CURVE SMOOTH",
"342 465 LINE",
"530 477 LINE",
"530 487 LINE SMOOTH",
"530 623 OFFCURVE",
"428 708 OFFCURVE",
"274 708 CURVE SMOOTH",
"120 708 OFFCURVE",
"18 617 OFFCURVE",
"18 472 CURVE SMOOTH",
"18 230 LINE SMOOTH",
"18 85 OFFCURVE",
"120 -8 OFFCURVE",
"274 -8 CURVE SMOOTH"
);
}
);
width = 542;
},
{
anchors = (
{
name = top;
position = "{203, 708}";
}
);
layerId = "DCBE1F7B-116A-43E0-B7B4-8657BA77D8B5";
paths = (
{
closed = 1;
nodes = (
"294 -8 OFFCURVE",
"354 54 OFFCURVE",
"354 148 CURVE SMOOTH",
"354 177 LINE",
"331 178 LINE",
"331 147 LINE SMOOTH",
"331 67 OFFCURVE",
"280 13 OFFCURVE",
"203 13 CURVE SMOOTH",
"127 13 OFFCURVE",
"76 67 OFFCURVE",
"76 147 CURVE SMOOTH",
"76 554 LINE SMOOTH",
"76 634 OFFCURVE",
"127 687 OFFCURVE",
"203 687 CURVE SMOOTH",
"280 687 OFFCURVE",
"331 634 OFFCURVE",
"331 554 CURVE SMOOTH",
"331 521 LINE",
"354 522 LINE",
"354 553 LINE SMOOTH",
"354 647 OFFCURVE",
"294 708 OFFCURVE",
"203 708 CURVE SMOOTH",
"114 708 OFFCURVE",
"54 647 OFFCURVE",
"54 553 CURVE SMOOTH",
"54 148 LINE SMOOTH",
"54 54 OFFCURVE",
"114 -8 OFFCURVE",
"203 -8 CURVE SMOOTH"
);
}
);
width = 390;
}
);
leftKerningGroup = O;
rightKerningGroup = O;
unicode = 0043;
},
{
glyphname = D;
lastChange = "2017-03-10 12:46:07 +0000";
layers = (
{
hints = (
{
horizontal = 1;
origin = "{0, 7}";
target = "{1, 1}";
},
{
origin = "{0, 8}";
target = "{1, 0}";
},
{
horizontal = 1;
origin = "{0, 9}";
target = "{1, 9}";
},
{
origin = "{1, 5}";
target = "{0, 3}";
}
);
layerId = "262880E7-CFE1-4BDA-902E-E24798F3240A";
paths = (
{
closed = 1;
nodes = (
"274 0 LINE SMOOTH",
"391 0 OFFCURVE",
"463 68 OFFCURVE",
"463 180 CURVE SMOOTH",
"463 520 LINE SMOOTH",
"463 632 OFFCURVE",
"391 700 OFFCURVE",
"274 700 CURVE SMOOTH",
"88 700 LINE",
"88 0 LINE"
);
},
{
closed = 1;
nodes = (
"110 679 LINE",
"276 679 LINE SMOOTH",
"378 679 OFFCURVE",
"441 619 OFFCURVE",
"441 520 CURVE SMOOTH",
"441 179 LINE SMOOTH",
"441 81 OFFCURVE",
"378 21 OFFCURVE",
"276 21 CURVE SMOOTH",
"110 21 LINE"
);
}
);
width = 540;
},
{
layerId = "4E2227F3-52E4-4048-A8EE-327B486EF0A4";
paths = (
{
closed = 1;
nodes = (
"228 0 LINE SMOOTH",
"362 0 OFFCURVE",
"451 80 OFFCURVE",
"451 200 CURVE SMOOTH",
"451 500 LINE SMOOTH",
"451 620 OFFCURVE",
"362 700 OFFCURVE",
"228 700 CURVE SMOOTH",
"16 700 LINE",
"16 0 LINE"
);
},
{
closed = 1;
nodes = (
"204 539 LINE",
"223 539 LINE SMOOTH",
"247 539 OFFCURVE",
"263 519 OFFCURVE",
"263 488 CURVE",
"263 213 LINE",
"261 183 OFFCURVE",
"245 163 OFFCURVE",
"224 162 CURVE SMOOTH",
"204 161 LINE"
);
}
);
width = 465;
},
{
layerId = "FFFA8D72-12AC-4CE0-B2CA-57A29829F4DA";
paths = (
{
closed = 1;
nodes = (
"266 0 LINE SMOOTH",
"435 0 OFFCURVE",
"530 74 OFFCURVE",
"530 205 CURVE SMOOTH",
"530 495 LINE SMOOTH",
"530 626 OFFCURVE",
"435 700 OFFCURVE",
"266 700 CURVE SMOOTH",
"24 700 LINE",
"24 0 LINE"
);
},
{
closed = 1;
nodes = (
"212 539 LINE",
"272 539 LINE SMOOTH",
"317 539 OFFCURVE",
"342 512 OFFCURVE",
"342 463 CURVE",
"342 237 LINE",
"340 189 OFFCURVE",
"315 161 OFFCURVE",
"273 161 CURVE SMOOTH",
"212 161 LINE"
);
}
);
width = 551;
},
{
layerId = "DCBE1F7B-116A-43E0-B7B4-8657BA77D8B5";
paths = (
{
closed = 1;
nodes = (
"216 0 LINE SMOOTH",
"306 0 OFFCURVE",
"362 68 OFFCURVE",
"362 180 CURVE SMOOTH",
"362 520 LINE SMOOTH",
"362 632 OFFCURVE",
"306 700 OFFCURVE",
"216 700 CURVE SMOOTH",
"72 700 LINE",
"72 0 LINE"
);
},
{
closed = 1;
nodes = (
"94 679 LINE",
"217 679 LINE SMOOTH",
"293 679 OFFCURVE",
"339 619 OFFCURVE",
"339 520 CURVE SMOOTH",
"339 179 LINE SMOOTH",
"339 81 OFFCURVE",
"292 21 OFFCURVE",
"217 21 CURVE SMOOTH",
"94 21 LINE"
);
}
);
width = 425;
}
);
leftKerningGroup = H;
rightKerningGroup = B;
unicode = 0044;
},
{
glyphname = E;
lastChange = "2017-03-10 12:46:22 +0000";
layers = (
{
anchors = (
{
name = top;
position = "{270, 710}";
}
);
hints = (
{
horizontal = 1;
origin = "{1, 0}";
target = "{1, 1}";
},
{
horizontal = 1;
origin = "{0, 0}";
target = "{0, 1}";
},
{
origin = "{0, 7}";
target = "{0, 2}";
},
{
horizontal = 1;
origin = "{0, 5}";
target = "{0, 4}";
}
);
layerId = "262880E7-CFE1-4BDA-902E-E24798F3240A";
paths = (
{
closed = 1;
nodes = (
"452 0 LINE",
"452 21 LINE",
"110 21 LINE",
"110 679 LINE",
"452 679 LINE",
"452 700 LINE",
"88 700 LINE",
"88 0 LINE"
);
},
{
closed = 1;
nodes = (
"345 340 LINE",
"345 361 LINE",
"99 361 LINE",
"99 340 LINE"
);
}
);
width = 496;
},
{
anchors = (
{
name = top;
position = "{216, 713}";
}
);
layerId = "4E2227F3-52E4-4048-A8EE-327B486EF0A4";
paths = (
{
closed = 1;
nodes = (
"416 0 LINE",
"416 161 LINE",
"204 161 LINE",
"204 539 LINE",
"416 539 LINE",
"416 700 LINE",
"16 700 LINE",
"16 0 LINE"
);
},
{
closed = 1;
nodes = (
"324 270 LINE",
"324 431 LINE",
"92 431 LINE",
"92 270 LINE"
);
}
);
width = 424;
},
{
anchors = (
{
name = top;
position = "{261, 713}";
}
);
layerId = "FFFA8D72-12AC-4CE0-B2CA-57A29829F4DA";
paths = (
{
closed = 1;
nodes = (
"494 0 LINE",
"494 161 LINE",
"212 161 LINE",
"212 539 LINE",
"494 539 LINE",
"494 700 LINE",
"24 700 LINE",
"24 0 LINE"
);
},
{
closed = 1;
nodes = (
"380 275 LINE",
"380 435 LINE",
"100 435 LINE",
"100 275 LINE"
);
}
);
width = 506;
},
{
anchors = (
{
name = top;
position = "{213, 710}";
}
);
layerId = "DCBE1F7B-116A-43E0-B7B4-8657BA77D8B5";
paths = (
{
closed = 1;
nodes = (
"354 0 LINE",
"354 21 LINE",
"94 21 LINE",
"94 679 LINE",
"354 679 LINE",
"354 700 LINE",
"72 700 LINE",
"72 0 LINE"
);
},
{
closed = 1;
nodes = (
"271 340 LINE",
"271 361 LINE",
"83 361 LINE",
"83 340 LINE"
);
}
);
width = 390;
}
);
leftKerningGroup = H;
unicode = 0045;
},
{
glyphname = F;
lastChange = "2017-03-10 12:46:32 +0000";
layers = (
{
hints = (
{
horizontal = 1;
origin = "{0, 3}";
target = "{0, 2}";
},
{
horizontal = 1;
origin = "{1, 0}";
target = "{1, 1}";
},
{
origin = "{0, 5}";
target = "{0, 0}";
}
);
layerId = "262880E7-CFE1-4BDA-902E-E24798F3240A";
paths = (
{
closed = 1;
nodes = (
"110 0 LINE",
"110 679 LINE",
"451 679 LINE",
"451 700 LINE",
"88 700 LINE",
"88 0 LINE"
);
},
{
closed = 1;
nodes = (
"344 340 LINE",
"344 361 LINE",
"99 361 LINE",
"99 340 LINE"
);
}
);
width = 484;
},
{
layerId = "4E2227F3-52E4-4048-A8EE-327B486EF0A4";
paths = (
{
closed = 1;
nodes = (
"204 0 LINE",
"204 539 LINE",
"416 539 LINE",
"416 700 LINE",
"16 700 LINE",
"16 0 LINE"
);
},
{
closed = 1;
nodes = (
"324 270 LINE",
"324 431 LINE",
"92 431 LINE",
"92 270 LINE"
);
}
);
width = 422;
},
{
layerId = "FFFA8D72-12AC-4CE0-B2CA-57A29829F4DA";
paths = (
{
closed = 1;
nodes = (
"212 0 LINE",
"212 539 LINE",
"493 539 LINE",
"493 700 LINE",
"24 700 LINE",
"24 0 LINE"
);
},
{
closed = 1;
nodes = (
"380 275 LINE",
"380 435 LINE",
"100 435 LINE",
"100 275 LINE"
);
}
);
width = 502;
},
{
layerId = "DCBE1F7B-116A-43E0-B7B4-8657BA77D8B5";
paths = (
{
closed = 1;
nodes = (
"94 0 LINE",
"94 679 LINE",
"352 679 LINE",
"352 700 LINE",
"72 700 LINE",
"72 0 LINE"
);
},
{
closed = 1;
nodes = (
"270 340 LINE",
"270 361 LINE",
"83 361 LINE",
"83 340 LINE"
);
}
);
width = 379;
}
);
leftKerningGroup = H;
rightKerningGroup = F;
unicode = 0046;
},
{
glyphname = G;
lastChange = "2017-03-10 13:30:36 +0000";
layers = (
{
hints = (
{
origin = "{0, 29}";
target = "{0, 14}";
},
{
horizontal = 1;
origin = "{0, 26}";
target = "{0, 17}";
},
{
origin = "{0, 21}";
target = "{0, 22}";
},
{
horizontal = 1;
origin = "{0, 5}";
target = "{0, 4}";
},
{
horizontal = 1;
origin = "{0, 33}";
target = "{0, 10}";
}
);
layerId = "262880E7-CFE1-4BDA-902E-E24798F3240A";
paths = (
{
closed = 1;
nodes = (
"376 -8 OFFCURVE",
"453 64 OFFCURVE",
"453 174 CURVE SMOOTH",
"453 337 LINE",
"269 337 LINE",
"269 316 LINE",
"431 316 LINE",
"431 173 LINE SMOOTH",
"431 77 OFFCURVE",
"363 13 OFFCURVE",
"260 13 CURVE SMOOTH",
"157 13 OFFCURVE",
"88 77 OFFCURVE",
"88 173 CURVE SMOOTH",
"88 527 LINE SMOOTH",
"88 623 OFFCURVE",
"157 687 OFFCURVE",
"260 687 CURVE SMOOTH",
"363 687 OFFCURVE",
"431 623 OFFCURVE",
"431 527 CURVE SMOOTH",
"431 500 LINE",
"453 500 LINE",
"453 526 LINE SMOOTH",
"453 636 OFFCURVE",
"376 708 OFFCURVE",
"260 708 CURVE SMOOTH",
"144 708 OFFCURVE",
"66 636 OFFCURVE",
"66 526 CURVE SMOOTH",
"66 174 LINE SMOOTH",
"66 64 OFFCURVE",
"144 -8 OFFCURVE",
"260 -8 CURVE SMOOTH"
);
}
);
width = 497;
},
{
layerId = "4E2227F3-52E4-4048-A8EE-327B486EF0A4";
paths = (
{
closed = 1;
nodes = (
"362 -8 OFFCURVE",
"450 72 OFFCURVE",
"450 196 CURVE SMOOTH",
"450 395 LINE",
"233 395 LINE",
"233 250 LINE",
"262 250 LINE",
"262 195 LINE SMOOTH",
"262 170 OFFCURVE",
"250 153 OFFCURVE",
"231 153 CURVE SMOOTH",
"212 153 OFFCURVE",
"200 170 OFFCURVE",
"200 195 CURVE SMOOTH",
"200 505 LINE SMOOTH",
"200 530 OFFCURVE",
"212 547 OFFCURVE",
"231 547 CURVE SMOOTH",
"250 547 OFFCURVE",
"262 530 OFFCURVE",
"262 505 CURVE SMOOTH",
"262 455 LINE",
"450 455 LINE",
"450 503 LINE SMOOTH",
"450 628 OFFCURVE",
"362 708 OFFCURVE",
"231 708 CURVE SMOOTH",
"99 708 OFFCURVE",
"12 629 OFFCURVE",
"12 505 CURVE SMOOTH",
"12 196 LINE SMOOTH",
"12 72 OFFCURVE",
"99 -8 OFFCURVE",
"231 -8 CURVE SMOOTH"
);
}
);
width = 458;
},
{
layerId = "FFFA8D72-12AC-4CE0-B2CA-57A29829F4DA";
paths = (
{
closed = 1;
nodes = (
"427 -8 OFFCURVE",
"529 88 OFFCURVE",
"529 236 CURVE SMOOTH",
"529 391 LINE",
"278 391 LINE",
"278 246 LINE",
"342 246 LINE",
"342 230 LINE SMOOTH",
"342 184 OFFCURVE",
"315 153 OFFCURVE",
"274 153 CURVE SMOOTH",
"233 153 OFFCURVE",
"206 184 OFFCURVE",
"206 230 CURVE SMOOTH",
"206 470 LINE SMOOTH",
"206 516 OFFCURVE",
"233 547 OFFCURVE",
"274 547 CURVE SMOOTH",
"315 547 OFFCURVE",
"342 516 OFFCURVE",
"342 470 CURVE SMOOTH",
"342 447 LINE",
"529 447 LINE",
"529 463 LINE SMOOTH",
"529 612 OFFCURVE",
"427 708 OFFCURVE",
"274 708 CURVE SMOOTH",
"120 708 OFFCURVE",
"18 613 OFFCURVE",
"18 465 CURVE SMOOTH",
"18 236 LINE SMOOTH",
"18 88 OFFCURVE",
"120 -8 OFFCURVE",
"274 -8 CURVE SMOOTH"
);
}
);
width = 541;
},
{
layerId = "DCBE1F7B-116A-43E0-B7B4-8657BA77D8B5";
paths = (
{
closed = 1;
nodes = (
"293 -8 OFFCURVE",
"353 52 OFFCURVE",
"353 144 CURVE SMOOTH",
"353 332 LINE",
"210 332 LINE",
"210 311 LINE",
"331 311 LINE",
"331 143 LINE SMOOTH",
"331 65 OFFCURVE",
"280 13 OFFCURVE",
"203 13 CURVE SMOOTH",
"127 13 OFFCURVE",
"76 65 OFFCURVE",
"76 143 CURVE SMOOTH",
"76 557 LINE SMOOTH",
"76 635 OFFCURVE",
"127 687 OFFCURVE",
"203 687 CURVE SMOOTH",
"280 687 OFFCURVE",
"331 635 OFFCURVE",
"331 557 CURVE SMOOTH",
"331 500 LINE",
"353 500 LINE",
"353 556 LINE SMOOTH",
"353 648 OFFCURVE",
"293 708 OFFCURVE",
"203 708 CURVE SMOOTH",
"114 708 OFFCURVE",
"54 648 OFFCURVE",
"54 556 CURVE SMOOTH",
"54 144 LINE SMOOTH",
"54 52 OFFCURVE",
"114 -8 OFFCURVE",
"203 -8 CURVE SMOOTH"
);
}
);
width = 389;
}
);
leftKerningGroup = O;
rightKerningGroup = G;
unicode = 0047;
},
{
glyphname = H;
lastChange = "2017-03-10 12:45:00 +0000";
layers = (
{
hints = (
{
origin = "{1, 2}";
target = "{1, 1}";
},
{
origin = "{0, 2}";
target = "{0, 1}";
},
{
horizontal = 1;
origin = "{2, 0}";
target = "{2, 1}";
}
);
layerId = "262880E7-CFE1-4BDA-902E-E24798F3240A";
paths = (
{
closed = 1;
nodes = (
"453 0 LINE",
"453 700 LINE",
"431 700 LINE",
"431 0 LINE"
);
},
{
closed = 1;
nodes = (
"110 0 LINE",
"110 700 LINE",
"88 700 LINE",
"88 0 LINE"
);
},
{
closed = 1;
nodes = (
"436 340 LINE",
"436 361 LINE",
"105 361 LINE",
"105 340 LINE"
);
}
);
width = 541;
},
{
layerId = "4E2227F3-52E4-4048-A8EE-327B486EF0A4";
paths = (
{
closed = 1;
nodes = (
"449 0 LINE",
"449 700 LINE",
"261 700 LINE",
"261 0 LINE"
);
},
{
closed = 1;
nodes = (
"204 0 LINE",
"204 700 LINE",
"16 700 LINE",
"16 0 LINE"
);
},
{
closed = 1;
nodes = (
"351 270 LINE",
"351 431 LINE",
"116 431 LINE",
"116 270 LINE"
);
}
);
width = 465;
},
{
layerId = "FFFA8D72-12AC-4CE0-B2CA-57A29829F4DA";
paths = (
{
closed = 1;
nodes = (
"526 0 LINE",
"526 700 LINE",
"338 700 LINE",
"338 0 LINE"
);
},
{
closed = 1;
nodes = (
"212 0 LINE",
"212 700 LINE",
"24 700 LINE",
"24 0 LINE"
);
},
{
closed = 1;
nodes = (
"427 274 LINE",
"427 435 LINE",
"125 435 LINE",
"125 274 LINE"
);
}
);
width = 550;
},
{
layerId = "DCBE1F7B-116A-43E0-B7B4-8657BA77D8B5";
paths = (
{
closed = 1;
nodes = (
"355 0 LINE",
"355 700 LINE",
"333 700 LINE",
"333 0 LINE"
);
},
{
closed = 1;
nodes = (
"94 0 LINE",
"94 700 LINE",
"72 700 LINE",
"72 0 LINE"
);
},
{
closed = 1;
nodes = (
"340 340 LINE",
"340 361 LINE",
"88 361 LINE",
"88 340 LINE"
);
}
);
width = 427;
}
);
unicode = 0048;
},
{
glyphname = I;
lastChange = "2017-03-10 10:55:52 +0000";
layers = (
{
anchors = (
{
name = top;
position = "{99, 710}";
}
);
hints = (
{
origin = "{0, 2}";
target = "{0, 1}";
}
);
layerId = "262880E7-CFE1-4BDA-902E-E24798F3240A";
paths = (
{
closed = 1;
nodes = (
"110 0 LINE",
"110 700 LINE",
"88 700 LINE",
"88 0 LINE"
);
}
);
width = 198;
},
{
anchors = (
{
name = top;
position = "{104, 713}";
}
);
layerId = "4E2227F3-52E4-4048-A8EE-327B486EF0A4";
paths = (
{
closed = 1;
nodes = (
"198 0 LINE",
"198 700 LINE",
"10 700 LINE",
"10 0 LINE"
);
}
);
width = 214;
},
{
anchors = (
{
name = top;
position = "{109, 713}";
}
);
layerId = "FFFA8D72-12AC-4CE0-B2CA-57A29829F4DA";
paths = (
{
closed = 1;
nodes = (
"203 0 LINE",
"203 700 LINE",
"15 700 LINE",
"15 0 LINE"
);
}
);
width = 227;
},
{
anchors = (
{
name = top;
position = "{87, 710}";
}
);
layerId = "DCBE1F7B-116A-43E0-B7B4-8657BA77D8B5";
paths = (
{
closed = 1;
nodes = (
"98 0 LINE",
"98 700 LINE",
"76 700 LINE",
"76 0 LINE"
);
}
);
width = 178;
}
);
unicode = 0049;
},
{
glyphname = J;
lastChange = "2017-03-08 11:35:52 +0000";
layers = (
{
hints = (
{
origin = "{0, 5}";
target = "{0, 2}";
},
{
horizontal = 1;
origin = "{0, 17}";
target = "{0, 8}";
},
{
origin = "{0, 13}";
target = "{0, 12}";
}
);
layerId = "262880E7-CFE1-4BDA-902E-E24798F3240A";
paths = (
{
closed = 1;
nodes = (
"331 -8 OFFCURVE",
"406 62 OFFCURVE",
"406 168 CURVE SMOOTH",
"406 700 LINE",
"384 700 LINE",
"384 167 LINE SMOOTH",
"384 75 OFFCURVE",
"317 13 OFFCURVE",
"219 13 CURVE SMOOTH",
"121 13 OFFCURVE",
"55 75 OFFCURVE",
"55 167 CURVE SMOOTH",
"55 251 LINE",
"33 251 LINE",
"33 168 LINE SMOOTH",
"33 62 OFFCURVE",
"107 -8 OFFCURVE",
"219 -8 CURVE SMOOTH"
);
}
);
width = 494;
},
{
layerId = "4E2227F3-52E4-4048-A8EE-327B486EF0A4";
paths = (
{
closed = 1;
nodes = (
"354 -8 OFFCURVE",
"442 72 OFFCURVE",
"442 192 CURVE SMOOTH",
"442 700 LINE",
"254 700 LINE",
"254 190 LINE SMOOTH",
"254 168 OFFCURVE",
"241 153 OFFCURVE",
"223 153 CURVE SMOOTH",
"206 153 OFFCURVE",
"194 168 OFFCURVE",
"194 190 CURVE SMOOTH",
"194 265 LINE",
"6 265 LINE",
"6 192 LINE SMOOTH",
"6 72 OFFCURVE",
"93 -8 OFFCURVE",
"223 -8 CURVE SMOOTH"
);
}
);
width = 458;
},
{
layerId = "FFFA8D72-12AC-4CE0-B2CA-57A29829F4DA";
paths = (
{
closed = 1;
nodes = (
"413 -8 OFFCURVE",
"515 80 OFFCURVE",
"515 212 CURVE SMOOTH",
"515 700 LINE",
"328 700 LINE",
"328 213 LINE SMOOTH",
"328 177 OFFCURVE",
"301 153 OFFCURVE",
"261 153 CURVE SMOOTH",
"223 153 OFFCURVE",
"197 177 OFFCURVE",
"197 213 CURVE SMOOTH",
"197 280 LINE",
"9 280 LINE",
"9 212 LINE SMOOTH",
"9 80 OFFCURVE",
"110 -8 OFFCURVE",
"261 -8 CURVE SMOOTH"
);
}
);
width = 539;
},
{
layerId = "DCBE1F7B-116A-43E0-B7B4-8657BA77D8B5";
paths = (
{
closed = 1;
nodes = (
"257 -8 OFFCURVE",
"315 54 OFFCURVE",
"315 148 CURVE SMOOTH",
"315 700 LINE",
"293 700 LINE",
"293 147 LINE SMOOTH",
"293 67 OFFCURVE",
"244 13 OFFCURVE",
"171 13 CURVE SMOOTH",
"98 13 OFFCURVE",
"49 67 OFFCURVE",
"49 147 CURVE SMOOTH",
"49 251 LINE",
"27 251 LINE",
"27 148 LINE SMOOTH",
"27 54 OFFCURVE",
"85 -8 OFFCURVE",
"171 -8 CURVE SMOOTH"
);
}
);
width = 387;
}
);
leftKerningGroup = J;
rightKerningGroup = U;
unicode = 004A;
},
{
glyphname = K;
lastChange = "2017-03-10 13:39:29 +0000";
layers = (
{
hints = (
{
origin = "{0, 7}";
target = "{0, 6}";
},
{
origin = "{0, 3}";
target = "{0, 4}";
},
{
origin = "{0, 11}";
target = "{0, 0}";
}
);
layerId = "262880E7-CFE1-4BDA-902E-E24798F3240A";
paths = (
{
closed = 1;
nodes = (
"110 0 LINE",
"110 275 LINE",
"229 408 LINE",
"478 0 LINE",
"506 0 LINE",
"244 427 LINE",
"483 700 LINE",
"455 700 LINE",
"110 306 LINE",
"110 700 LINE",
"88 700 LINE",
"88 0 LINE"
);
}
);
width = 539;
},
{
layerId = "4E2227F3-52E4-4048-A8EE-327B486EF0A4";
paths = (
{
closed = 1;
nodes = (
"204 0 LINE",
"204 177 LINE",
"233 241 LINE",
"298 -4 LINE",
"496 0 LINE",
"358 392 LINE",
"498 700 LINE",
"300 700 LINE",
"204 456 LINE",
"204 700 LINE",
"16 700 LINE",
"16 0 LINE"
);
}
);
width = 504;
},
{
layerId = "FFFA8D72-12AC-4CE0-B2CA-57A29829F4DA";
paths = (
{
closed = 1;
nodes = (
"212 0 LINE",
"212 191 LINE",
"264 273 LINE",
"384 -4 LINE",
"583 0 LINE",
"391 392 LINE",
"580 700 LINE",
"381 700 LINE",
"212 444 LINE",
"212 700 LINE",
"24 700 LINE",
"24 0 LINE"
);
}
);
width = 592;
},
{
layerId = "DCBE1F7B-116A-43E0-B7B4-8657BA77D8B5";
paths = (
{
closed = 1;
nodes = (
"94 0 LINE",
"94 274 LINE",
"182 406 LINE",
"358 0 LINE",
"385 0 LINE",
"198 427 LINE",
"368 700 LINE",
"340 700 LINE",
"94 308 LINE",
"94 700 LINE",
"72 700 LINE",
"72 0 LINE"
);
}
);
width = 412;
}
);
rightKerningGroup = K;
unicode = 004B;
},
{
glyphname = L;
lastChange = "2017-03-10 12:46:55 +0000";
layers = (
{
hints = (
{
horizontal = 1;
origin = "{0, 0}";
target = "{0, 1}";
},
{
origin = "{0, 4}";
target = "{0, 3}";
}
);
layerId = "262880E7-CFE1-4BDA-902E-E24798F3240A";
paths = (
{
closed = 1;
nodes = (
"446 0 LINE",
"446 21 LINE",
"110 21 LINE",
"110 700 LINE",
"88 700 LINE",
"88 0 LINE"
);
}
);
width = 479;
},
{
layerId = "4E2227F3-52E4-4048-A8EE-327B486EF0A4";
paths = (
{
closed = 1;
nodes = (
"425 0 LINE",
"425 161 LINE",
"204 161 LINE",
"204 700 LINE",
"16 700 LINE",
"16 0 LINE"
);
}
);
width = 431;
},
{
layerId = "FFFA8D72-12AC-4CE0-B2CA-57A29829F4DA";
paths = (
{
closed = 1;
nodes = (
"501 0 LINE",
"501 161 LINE",
"212 161 LINE",
"212 700 LINE",
"24 700 LINE",
"24 0 LINE"
);
}
);
width = 510;
},
{
layerId = "DCBE1F7B-116A-43E0-B7B4-8657BA77D8B5";
paths = (
{
closed = 1;
nodes = (
"349 0 LINE",
"349 21 LINE",
"94 21 LINE",
"94 700 LINE",
"72 700 LINE",
"72 0 LINE"
);
}
);
width = 376;
}
);
rightKerningGroup = L;
unicode = 004C;
},
{
color = 3;
glyphname = M;
lastChange = "2017-03-08 11:35:52 +0000";
layers = (
{
hints = (
{
origin = "{0, 2}";
target = "{0, 3}";
},
{
origin = "{0, 11}";
target = "{0, 10}";
},
{
origin = "{0, 8}";
target = "{0, 7}";
}
);
layerId = "262880E7-CFE1-4BDA-902E-E24798F3240A";
paths = (
{
closed = 1;
nodes = (
"110 0 LINE",
"110 654 LINE",
"287 329 LINE",
"305 329 LINE",
"480 654 LINE",
"480 0 LINE",
"502 0 LINE",
"502 700 LINE",
"480 700 LINE",
"294 358 LINE",
"110 700 LINE",
"88 700 LINE",
"88 0 LINE"
);
}
);
width = 590;
},
{
layerId = "4E2227F3-52E4-4048-A8EE-327B486EF0A4";
paths = (
{
closed = 1;
nodes = (
"204 0 LINE",
"204 439 LINE",
"263 310 LINE",
"264 310 LINE",
"324 436 LINE",
"324 0 LINE",
"512 0 LINE",
"512 700 LINE",
"329 700 LINE",
"264 560 LINE",
"199 700 LINE",
"16 700 LINE",
"16 0 LINE"
);
}
);
width = 528;
},
{
associatedMasterId = "4E2227F3-52E4-4048-A8EE-327B486EF0A4";
layerId = "C618EEF0-F381-433B-B25F-2EDAE517ED4C";
name = "{100,3}";
paths = (
{
closed = 1;
nodes = (
"137 0 LINE",
"137 490 LINE",
"234 280 LINE",
"243 280 LINE",
"340 488 LINE",
"340 0 LINE",
"439 0 LINE",
"439 700 LINE",
"342 700 LINE",
"238 452 LINE",
"134 700 LINE",
"37 700 LINE",
"37 0 LINE"
);
}
);
width = 477;
},
{
layerId = "FFFA8D72-12AC-4CE0-B2CA-57A29829F4DA";
paths = (
{
closed = 1;
nodes = (
"212 0 LINE",
"212 414 LINE",
"282 292 LINE",
"362 292 LINE",
"432 414 LINE",
"432 0 LINE",
"620 0 LINE",
"620 700 LINE",
"437 700 LINE",
"322 512 LINE",
"207 700 LINE",
"24 700 LINE",
"24 0 LINE"
);
}
);
width = 644;
},
{
layerId = "DCBE1F7B-116A-43E0-B7B4-8657BA77D8B5";
paths = (
{
closed = 1;
nodes = (
"94 0 LINE",
"94 651 LINE",
"224 330 LINE",
"242 330 LINE",
"370 651 LINE",
"370 0 LINE",
"392 0 LINE",
"392 700 LINE",
"370 700 LINE",
"231 358 LINE",
"94 700 LINE",
"72 700 LINE",
"72 0 LINE"
);
}
);
width = 464;
},
{
associatedMasterId = "4E2227F3-52E4-4048-A8EE-327B486EF0A4";
layerId = "B75973C7-2F91-404C-BACF-1A0B6CD40DCC";
name = "{100,5}";
paths = (
{
closed = 1;
nodes = (
"154 0 LINE",
"154 518 LINE",
"277 288 LINE",
"331 288 LINE",
"454 518 LINE",
"454 0 LINE",
"553 0 LINE",
"553 700 LINE",
"458 700 LINE",
"303 414 LINE",
"149 700 LINE",
"54 700 LINE",
"54 0 LINE"
);
}
);
width = 607;
}
);
unicode = 004D;
},
{
color = 3;
glyphname = N;
lastChange = "2017-03-08 11:35:52 +0000";
layers = (
{
anchors = (
{
name = top;
position = "{281, 710}";
}
);
hints = (
{
origin = "{0, 9}";
target = "{0, 0}";
},
{
origin = "{0, 2}";
target = "{0, 3}";
}
);
layerId = "262880E7-CFE1-4BDA-902E-E24798F3240A";
paths = (
{
closed = 1;
nodes = (
"110 0 LINE",
"110 648 LINE",
"449 0 LINE",
"471 0 LINE",
"471 700 LINE",
"449 700 LINE",
"449 52 LINE",
"110 700 LINE",
"88 700 LINE",
"88 0 LINE"
);
}
);
width = 559;
},
{
anchors = (
{
name = top;
position = "{260, 713}";
}
);
layerId = "4E2227F3-52E4-4048-A8EE-327B486EF0A4";
paths = (
{
closed = 1;
nodes = (
"202 0 LINE",
"200 346 LINE",
"286 0 LINE",
"492 0 LINE",
"492 700 LINE",
"306 700 LINE",
"307 356 LINE",
"220 700 LINE",
"16 700 LINE",
"16 0 LINE"
);
}
);
width = 508;
},
{
anchors = (
{
name = top;
position = "{281, 713}";
}
);
layerId = "FFFA8D72-12AC-4CE0-B2CA-57A29829F4DA";
paths = (
{
closed = 1;
nodes = (
"210 0 LINE",
"208 357 LINE",
"384 0 LINE",
"560 0 LINE",
"560 700 LINE",
"374 700 LINE",
"375 350 LINE",
"200 700 LINE",
"24 700 LINE",
"24 0 LINE"
);
}
);
width = 584;
},
{
anchors = (
{
name = top;
position = "{221, 710}";
}
);
layerId = "DCBE1F7B-116A-43E0-B7B4-8657BA77D8B5";
paths = (
{
closed = 1;
nodes = (
"94 0 LINE",
"94 648 LINE",
"346 0 LINE",
"369 0 LINE",
"369 700 LINE",
"347 700 LINE",
"347 52 LINE",
"94 700 LINE",
"72 700 LINE",
"72 0 LINE"
);
}
);
width = 441;
},
{
anchors = (
{
name = top;
position = "{285, 711}";
}
);
associatedMasterId = "4E2227F3-52E4-4048-A8EE-327B486EF0A4";
layerId = "AF700569-CAED-4344-924C-FF7EDA896D2F";
name = "{100,5}";
paths = (
{
closed = 1;
nodes = (
"153 0 LINE",
"152 490 LINE",
"413 0 LINE",
"509 0 LINE",
"509 700 LINE",
"410 700 LINE",
"411 207 LINE",
"150 700 LINE",
"54 700 LINE",
"54 0 LINE"
);
}
);
width = 563;
},
{
anchors = (
{
name = top;
position = "{233, 711}";
}
);
associatedMasterId = "4E2227F3-52E4-4048-A8EE-327B486EF0A4";
layerId = "42C43E0D-C6E2-494E-A0C1-A4C56C6C4E84";
name = "{100,3}";
paths = (
{
closed = 1;
nodes = (
"141 0 LINE",
"140 467 LINE",
"317 0 LINE",
"423 0 LINE",
"423 700 LINE",
"324 700 LINE",
"325 234 LINE",
"146 700 LINE",
"42 700 LINE",
"42 0 LINE"
);
}
);
width = 465;
}
);
leftKerningGroup = H;
rightKerningGroup = H;
unicode = 004E;
},
{
glyphname = O;
lastChange = "2017-03-10 12:10:31 +0000";
layers = (
{
anchors = (
{
name = top;
position = "{262, 708}";
}
);
hints = (
{
origin = "{0, 9}";
target = "{1, 3}";
},
{
horizontal = 1;
origin = "{0, 6}";
target = "{1, 6}";
},
{
origin = "{1, 9}";
target = "{0, 3}";
},
{
horizontal = 1;
origin = "{0, 13}";
target = "{1, 13}";
}
);
layerId = "262880E7-CFE1-4BDA-902E-E24798F3240A";
paths = (
{
closed = 1;
nodes = (
"381 -7 OFFCURVE",
"460 67 OFFCURVE",
"460 180 CURVE SMOOTH",
"460 519 LINE SMOOTH",
"460 633 OFFCURVE",
"381 708 OFFCURVE",
"262 708 CURVE SMOOTH",
"144 708 OFFCURVE",
"66 633 OFFCURVE",
"66 519 CURVE SMOOTH",
"66 180 LINE SMOOTH",
"66 67 OFFCURVE",
"144 -7 OFFCURVE",
"262 -7 CURVE SMOOTH"
);
},
{
closed = 1;
nodes = (
"158 13 OFFCURVE",
"88 79 OFFCURVE",
"88 179 CURVE SMOOTH",
"88 520 LINE SMOOTH",
"88 620 OFFCURVE",
"158 687 OFFCURVE",
"262 687 CURVE SMOOTH",
"368 687 OFFCURVE",
"438 620 OFFCURVE",
"438 520 CURVE SMOOTH",
"438 179 LINE SMOOTH",
"438 79 OFFCURVE",
"368 13 OFFCURVE",
"262 13 CURVE SMOOTH"
);
}
);
width = 526;
},
{
anchors = (
{
name = top;
position = "{231, 708}";
}
);
layerId = "4E2227F3-52E4-4048-A8EE-327B486EF0A4";
paths = (
{
closed = 1;
nodes = (
"362 -8 OFFCURVE",
"450 75 OFFCURVE",
"450 206 CURVE SMOOTH",
"450 494 LINE SMOOTH",
"450 625 OFFCURVE",
"362 708 OFFCURVE",
"231 708 CURVE SMOOTH",
"99 708 OFFCURVE",
"12 625 OFFCURVE",
"12 494 CURVE SMOOTH",
"12 206 LINE SMOOTH",
"12 75 OFFCURVE",
"99 -8 OFFCURVE",
"231 -8 CURVE SMOOTH"
);
},
{
closed = 1;
nodes = (
"212 153 OFFCURVE",
"200 170 OFFCURVE",
"200 195 CURVE SMOOTH",
"200 505 LINE SMOOTH",
"200 530 OFFCURVE",
"212 547 OFFCURVE",
"231 547 CURVE SMOOTH",
"250 547 OFFCURVE",
"262 530 OFFCURVE",
"262 505 CURVE SMOOTH",
"262 195 LINE SMOOTH",
"262 170 OFFCURVE",
"250 153 OFFCURVE",
"231 153 CURVE SMOOTH"
);
}
);
width = 462;
},
{
anchors = (
{
name = top;
position = "{274, 708}";
}
);
guideLines = (
{
position = "{274, 613}";
},
{
position = "{271, 360}";
},
{
position = "{274, 87}";
}
);
layerId = "FFFA8D72-12AC-4CE0-B2CA-57A29829F4DA";
paths = (
{
closed = 1;
nodes = (
"428 -12 OFFCURVE",
"531 87 OFFCURVE",
"531 236 CURVE SMOOTH",
"531 464 LINE SMOOTH",
"531 613 OFFCURVE",
"428 708 OFFCURVE",
"274 708 CURVE SMOOTH",
"120 708 OFFCURVE",
"18 613 OFFCURVE",
"18 464 CURVE SMOOTH",
"18 236 LINE SMOOTH",
"18 87 OFFCURVE",
"120 -12 OFFCURVE",
"274 -12 CURVE SMOOTH"
);
},
{
closed = 1;
nodes = (
"233 149 OFFCURVE",
"206 180 OFFCURVE",
"206 226 CURVE SMOOTH",
"206 470 LINE SMOOTH",
"206 516 OFFCURVE",
"233 547 OFFCURVE",
"274 547 CURVE SMOOTH",
"315 547 OFFCURVE",
"343 516 OFFCURVE",
"343 470 CURVE SMOOTH",
"343 226 LINE SMOOTH",
"343 180 OFFCURVE",
"315 149 OFFCURVE",
"274 149 CURVE SMOOTH"
);
}
);
width = 549;
},
{
anchors = (
{
name = top;
position = "{205, 699}";
}
);
layerId = "DCBE1F7B-116A-43E0-B7B4-8657BA77D8B5";
paths = (
{
closed = 1;
nodes = (
"295 -8 OFFCURVE",
"358 56 OFFCURVE",
"358 150 CURVE SMOOTH",
"358 549 LINE SMOOTH",
"358 643 OFFCURVE",
"295 708 OFFCURVE",
"205 708 CURVE SMOOTH",
"116 708 OFFCURVE",
"54 643 OFFCURVE",
"54 549 CURVE SMOOTH",
"54 150 LINE SMOOTH",
"54 56 OFFCURVE",
"116 -8 OFFCURVE",
"205 -8 CURVE SMOOTH"
);
},
{
closed = 1;
nodes = (
"129 13 OFFCURVE",
"76 69 OFFCURVE",
"76 149 CURVE SMOOTH",
"76 550 LINE SMOOTH",
"76 631 OFFCURVE",
"129 687 OFFCURVE",
"205 687 CURVE SMOOTH",
"282 687 OFFCURVE",
"336 631 OFFCURVE",
"336 550 CURVE SMOOTH",
"336 149 LINE SMOOTH",
"336 69 OFFCURVE",
"282 13 OFFCURVE",
"205 13 CURVE SMOOTH"
);
}
);
width = 412;
}
);
leftKerningGroup = O;
rightKerningGroup = C;
unicode = 004F;
},
{
glyphname = P;
lastChange = "2017-03-10 11:43:46 +0000";
layers = (
{
hints = (
{
horizontal = 1;
origin = "{0, 17}";
target = "{0, 2}";
},
{
origin = "{0, 5}";
target = "{0, 14}";
},
{
horizontal = 1;
origin = "{0, 11}";
target = "{0, 8}";
},
{
origin = "{0, 18}";
target = "{0, 1}";
}
);
layerId = "262880E7-CFE1-4BDA-902E-E24798F3240A";
paths = (
{
closed = 1;
nodes = (
"110 0 LINE",
"110 681 LINE",
"294 681 LINE SMOOTH",
"384 681 OFFCURVE",
"445 617 OFFCURVE",
"445 520 CURVE SMOOTH",
"445 425 OFFCURVE",
"384 361 OFFCURVE",
"294 361 CURVE SMOOTH",
"105 361 LINE",
"105 340 LINE",
"292 340 LINE SMOOTH",
"397 340 OFFCURVE",
"467 411 OFFCURVE",
"467 520 CURVE SMOOTH",
"467 629 OFFCURVE",
"397 702 OFFCURVE",
"292 702 CURVE SMOOTH",
"88 702 LINE",
"88 0 LINE"
);
}
);
width = 522;
},
{
layerId = "4E2227F3-52E4-4048-A8EE-327B486EF0A4";
paths = (
{
closed = 1;
nodes = (
"204 0 LINE",
"204 539 LINE",
"223 539 LINE SMOOTH",
"252 539 OFFCURVE",
"273 517 OFFCURVE",
"273 471 CURVE SMOOTH",
"273 426 OFFCURVE",
"252 405 OFFCURVE",
"223 405 CURVE SMOOTH",
"188 405 LINE",
"188 260 LINE",
"266 260 LINE SMOOTH",
"382 260 OFFCURVE",
"461 345 OFFCURVE",
"461 475 CURVE SMOOTH",
"461 608 OFFCURVE",
"378 700 OFFCURVE",
"256 700 CURVE SMOOTH",
"16 700 LINE",
"16 0 LINE"
);
}
);
width = 471;
},
{
layerId = "FFFA8D72-12AC-4CE0-B2CA-57A29829F4DA";
paths = (
{
closed = 1;
nodes = (
"212 0 LINE",
"212 539 LINE",
"271 539 LINE SMOOTH",
"319 539 OFFCURVE",
"353 517 OFFCURVE",
"353 471 CURVE SMOOTH",
"353 426 OFFCURVE",
"319 405 OFFCURVE",
"271 405 CURVE SMOOTH",
"195 405 LINE",
"195 255 LINE",
"312 255 LINE SMOOTH",
"448 255 OFFCURVE",
"540 345 OFFCURVE",
"540 475 CURVE SMOOTH",
"540 608 OFFCURVE",
"444 700 OFFCURVE",
"302 700 CURVE SMOOTH",
"24 700 LINE",
"24 0 LINE"
);
}
);
width = 555;
},
{
layerId = "DCBE1F7B-116A-43E0-B7B4-8657BA77D8B5";
paths = (
{
closed = 1;
nodes = (
"94 0 LINE",
"94 681 LINE",
"220 681 LINE SMOOTH",
"294 681 OFFCURVE",
"343 617 OFFCURVE",
"343 520 CURVE SMOOTH",
"343 425 OFFCURVE",
"294 361 OFFCURVE",
"220 361 CURVE SMOOTH",
"90 361 LINE",
"90 340 LINE",
"220 340 LINE SMOOTH",
"307 340 OFFCURVE",
"365 412 OFFCURVE",
"365 520 CURVE SMOOTH",
"365 629 OFFCURVE",
"307 702 OFFCURVE",
"220 702 CURVE SMOOTH",
"72 702 LINE",
"72 0 LINE"
);
}
);
width = 410;
}
);
leftKerningGroup = H;
rightKerningGroup = P;
unicode = 0050;
},
{
glyphname = Q;
lastChange = "2017-03-08 11:35:53 +0000";
layers = (
{
hints = (
{
horizontal = 1;
origin = "{2, 6}";
target = "{1, 6}";
},
{
origin = "{2, 9}";
target = "{1, 3}";
},
{
origin = "{1, 9}";
target = "{2, 3}";
},
{
horizontal = 1;
origin = "{2, 13}";
target = "{1, 13}";
}
);
layerId = "262880E7-CFE1-4BDA-902E-E24798F3240A";
paths = (
{
closed = 1;
nodes = (
"265 -127 LINE",
"265 0 LINE",
"243 0 LINE",
"243 -127 LINE"
);
},
{
closed = 1;
nodes = (
"154 13 OFFCURVE",
"88 80 OFFCURVE",
"88 180 CURVE SMOOTH",
"88 520 LINE SMOOTH",
"88 620 OFFCURVE",
"154 687 OFFCURVE",
"254 687 CURVE SMOOTH",
"354 687 OFFCURVE",
"421 620 OFFCURVE",
"421 520 CURVE SMOOTH",
"421 180 LINE SMOOTH",
"421 80 OFFCURVE",
"354 13 OFFCURVE",
"254 13 CURVE SMOOTH"
);
},
{
closed = 1;
nodes = (
"367 -8 OFFCURVE",
"443 67 OFFCURVE",
"443 181 CURVE SMOOTH",
"443 519 LINE SMOOTH",
"443 633 OFFCURVE",
"367 708 OFFCURVE",
"254 708 CURVE SMOOTH",
"141 708 OFFCURVE",
"66 633 OFFCURVE",
"66 519 CURVE SMOOTH",
"66 181 LINE SMOOTH",
"66 67 OFFCURVE",
"141 -8 OFFCURVE",
"254 -8 CURVE SMOOTH"
);
}
);
width = 526;
},
{
layerId = "4E2227F3-52E4-4048-A8EE-327B486EF0A4";
paths = (
{
closed = 1;
nodes = (
"322 -87 LINE",
"322 113 LINE",
"134 113 LINE",
"134 -87 LINE"
);
},
{
closed = 1;
nodes = (
"211 153 OFFCURVE",
"200 170 OFFCURVE",
"200 195 CURVE SMOOTH",
"200 505 LINE SMOOTH",
"200 530 OFFCURVE",
"211 547 OFFCURVE",
"228 547 CURVE SMOOTH",
"246 547 OFFCURVE",
"257 530 OFFCURVE",
"257 505 CURVE SMOOTH",
"257 195 LINE SMOOTH",
"257 170 OFFCURVE",
"246 153 OFFCURVE",
"228 153 CURVE SMOOTH"
);
},
{
closed = 1;
nodes = (
"359 -8 OFFCURVE",
"445 81 OFFCURVE",
"445 215 CURVE SMOOTH",
"445 485 LINE SMOOTH",
"445 619 OFFCURVE",
"359 708 OFFCURVE",
"228 708 CURVE SMOOTH",
"98 708 OFFCURVE",
"12 619 OFFCURVE",
"12 485 CURVE SMOOTH",
"12 215 LINE SMOOTH",
"12 81 OFFCURVE",
"98 -8 OFFCURVE",
"228 -8 CURVE SMOOTH"
);
}
);
width = 462;
},
{
layerId = "FFFA8D72-12AC-4CE0-B2CA-57A29829F4DA";
paths = (
{
closed = 1;
nodes = (
"365 -87 LINE",
"365 113 LINE",
"177 113 LINE",
"177 -87 LINE"
);
},
{
closed = 1;
nodes = (
"232 153 OFFCURVE",
"206 184 OFFCURVE",
"206 230 CURVE SMOOTH",
"206 470 LINE SMOOTH",
"206 516 OFFCURVE",
"232 547 OFFCURVE",
"270 547 CURVE SMOOTH",
"309 547 OFFCURVE",
"335 516 OFFCURVE",
"335 470 CURVE SMOOTH",
"335 230 LINE SMOOTH",
"335 184 OFFCURVE",
"309 153 OFFCURVE",
"270 153 CURVE SMOOTH"
);
},
{
closed = 1;
nodes = (
"421 -8 OFFCURVE",
"523 85 OFFCURVE",
"523 225 CURVE SMOOTH",
"523 460 LINE SMOOTH",
"523 612 OFFCURVE",
"421 708 OFFCURVE",
"270 708 CURVE SMOOTH",
"119 708 OFFCURVE",
"18 612 OFFCURVE",
"18 460 CURVE SMOOTH",
"18 225 LINE SMOOTH",
"18 85 OFFCURVE",
"119 -8 OFFCURVE",
"270 -8 CURVE SMOOTH"
);
}
);
width = 549;
},
{
layerId = "DCBE1F7B-116A-43E0-B7B4-8657BA77D8B5";
paths = (
{
closed = 1;
nodes = (
"211 -127 LINE",
"211 0 LINE",
"188 0 LINE",
"188 -127 LINE"
);
},
{
closed = 1;
nodes = (
"127 13 OFFCURVE",
"76 69 OFFCURVE",
"76 150 CURVE SMOOTH",
"76 550 LINE SMOOTH",
"76 631 OFFCURVE",
"127 687 OFFCURVE",
"200 687 CURVE SMOOTH",
"273 687 OFFCURVE",
"323 631 OFFCURVE",
"323 550 CURVE SMOOTH",
"323 150 LINE SMOOTH",
"323 69 OFFCURVE",
"273 13 OFFCURVE",
"200 13 CURVE SMOOTH"
);
},
{
closed = 1;
nodes = (
"286 -8 OFFCURVE",
"345 57 OFFCURVE",
"345 151 CURVE SMOOTH",
"345 549 LINE SMOOTH",
"345 643 OFFCURVE",
"286 708 OFFCURVE",
"200 708 CURVE SMOOTH",
"114 708 OFFCURVE",
"54 643 OFFCURVE",
"54 549 CURVE SMOOTH",
"54 151 LINE SMOOTH",
"54 57 OFFCURVE",
"114 -8 OFFCURVE",
"200 -8 CURVE SMOOTH"
);
}
);
width = 412;
}
);
leftKerningGroup = C;
unicode = 0051;
},
{
glyphname = R;
lastChange = "2017-03-10 10:56:34 +0000";
layers = (
{
hints = (
{
horizontal = 1;
origin = "{0, 18}";
target = "{0, 1}";
},
{
horizontal = 1;
origin = "{0, 10}";
target = "{0, 9}";
},
{
origin = "{0, 19}";
target = "{0, 0}";
},
{
origin = "{1, 3}";
target = "{1, 0}";
},
{
origin = "{0, 5}";
target = "{0, 14}";
}
);
layerId = "262880E7-CFE1-4BDA-902E-E24798F3240A";
paths = (
{
closed = 1;
nodes = (
"110 0 LINE",
"110 681 LINE",
"294 681 LINE SMOOTH",
"384 681 OFFCURVE",
"445 617 OFFCURVE",
"445 522 CURVE SMOOTH",
"445 429 OFFCURVE",
"384 365 OFFCURVE",
"294 365 CURVE SMOOTH",
"105 365 LINE",
"105 344 LINE",
"292 344 LINE SMOOTH",
"397 344 OFFCURVE",
"467 415 OFFCURVE",
"467 522 CURVE SMOOTH",
"467 629 OFFCURVE",
"397 702 OFFCURVE",
"292 702 CURVE SMOOTH",
"88 702 LINE",
"88 0 LINE"
);
},
{
closed = 1;
nodes = (
"480 0 LINE",
"310 355 LINE",
"292 347 LINE",
"458 0 LINE"
);
}
);
width = 513;
},
{
layerId = "4E2227F3-52E4-4048-A8EE-327B486EF0A4";
paths = (
{
closed = 1;
nodes = (
"204 0 LINE",
"204 539 LINE",
"223 539 LINE SMOOTH",
"252 539 OFFCURVE",
"273 518 OFFCURVE",
"273 475 CURVE SMOOTH",
"273 434 OFFCURVE",
"252 412 OFFCURVE",
"223 412 CURVE SMOOTH",
"188 412 LINE",
"188 269 LINE",
"266 269 LINE SMOOTH",
"382 269 OFFCURVE",
"461 352 OFFCURVE",
"461 477 CURVE SMOOTH",
"461 608 OFFCURVE",
"378 700 OFFCURVE",
"256 700 CURVE SMOOTH",
"16 700 LINE",
"16 0 LINE"
);
},
{
closed = 1;
nodes = (
"470 0 LINE",
"371 349 LINE",
"192 349 LINE",
"276 0 LINE"
);
}
);
width = 470;
},
{
layerId = "FFFA8D72-12AC-4CE0-B2CA-57A29829F4DA";
paths = (
{
closed = 1;
nodes = (
"212 0 LINE",
"212 539 LINE",
"281 539 LINE SMOOTH",
"324 539 OFFCURVE",
"353 513 OFFCURVE",
"353 475 CURVE SMOOTH",
"353 437 OFFCURVE",
"324 412 OFFCURVE",
"281 412 CURVE SMOOTH",
"195 412 LINE",
"195 269 LINE",
"312 269 LINE SMOOTH",
"449 269 OFFCURVE",
"540 352 OFFCURVE",
"540 477 CURVE SMOOTH",
"540 611 OFFCURVE",
"449 700 OFFCURVE",
"312 700 CURVE SMOOTH",
"24 700 LINE",
"24 0 LINE"
);
},
{
closed = 1;
nodes = (
"540 0 LINE",
"413 349 LINE",
"228 349 LINE",
"340 0 LINE"
);
}
);
width = 540;
},
{
layerId = "DCBE1F7B-116A-43E0-B7B4-8657BA77D8B5";
paths = (
{
closed = 1;
nodes = (
"94 0 LINE",
"94 681 LINE",
"220 681 LINE SMOOTH",
"294 681 OFFCURVE",
"343 617 OFFCURVE",
"343 522 CURVE SMOOTH",
"343 428 OFFCURVE",
"294 365 OFFCURVE",
"220 365 CURVE SMOOTH",
"90 365 LINE",
"90 344 LINE",
"220 344 LINE SMOOTH",
"307 344 OFFCURVE",
"365 415 OFFCURVE",
"365 522 CURVE SMOOTH",
"365 630 OFFCURVE",
"307 702 OFFCURVE",
"220 702 CURVE SMOOTH",
"72 702 LINE",
"72 0 LINE"
);
},
{
closed = 1;
nodes = (
"370 0 LINE",
"239 353 LINE",
"220 345 LINE",
"348 0 LINE"
);
}
);
width = 404;
}
);
rightKerningGroup = R;
unicode = 0052;
},
{
glyphname = S;
lastChange = "2017-03-11 03:36:01 +0000";
layers = (
{
anchors = (
{
name = top;
position = "{257, 708}";
}
);
hints = (
{
horizontal = 1;
origin = "{0, 20}";
target = "{0, 11}";
},
{
origin = "{0, 23}";
target = "{0, 8}";
},
{
origin = "{0, 29}";
target = "{0, 2}";
},
{
origin = "{0, 14}";
target = "{0, 17}";
},
{
horizontal = 1;
origin = "{0, 41}";
target = "{0, 32}";
},
{
origin = "{0, 37}";
target = "{0, 36}";
}
);
layerId = "262880E7-CFE1-4BDA-902E-E24798F3240A";
paths = (
{
closed = 1;
nodes = (
"382 -8 OFFCURVE",
"463 61 OFFCURVE",
"463 161 CURVE SMOOTH",
"463 257 OFFCURVE",
"388 301 OFFCURVE",
"270 371 CURVE SMOOTH",
"165 433 OFFCURVE",
"101 456 OFFCURVE",
"101 549 CURVE SMOOTH",
"101 639 OFFCURVE",
"163 687 OFFCURVE",
"257 687 CURVE SMOOTH",
"365 687 OFFCURVE",
"434 625 OFFCURVE",
"434 533 CURVE SMOOTH",
"434 500 LINE",
"456 500 LINE",
"456 535 LINE SMOOTH",
"456 639 OFFCURVE",
"380 708 OFFCURVE",
"260 708 CURVE SMOOTH",
"151 708 OFFCURVE",
"79 652 OFFCURVE",
"79 548 CURVE SMOOTH",
"79 444 OFFCURVE",
"151 412 OFFCURVE",
"255 351 CURVE SMOOTH",
"393 270 OFFCURVE",
"441 231 OFFCURVE",
"441 159 CURVE SMOOTH",
"441 71 OFFCURVE",
"370 13 OFFCURVE",
"264 13 CURVE SMOOTH",
"155 13 OFFCURVE",
"86 74 OFFCURVE",
"86 166 CURVE SMOOTH",
"86 210 LINE",
"66 210 LINE",
"66 164 LINE SMOOTH",
"66 60 OFFCURVE",
"143 -8 OFFCURVE",
"262 -8 CURVE SMOOTH"
);
}
);
width = 518;
},
{
anchors = (
{
name = top;
position = "{223, 708}";
}
);
layerId = "4E2227F3-52E4-4048-A8EE-327B486EF0A4";
paths = (
{
closed = 1;
nodes = (
"354 -8 OFFCURVE",
"441 70 OFFCURVE",
"441 187 CURVE SMOOTH",
"441 287 OFFCURVE",
"380 338 OFFCURVE",
"275 412 CURVE SMOOTH",
"212 457 OFFCURVE",
"195 479 OFFCURVE",
"195 509 CURVE SMOOTH",
"195 533 OFFCURVE",
"206 547 OFFCURVE",
"223 547 CURVE SMOOTH",
"240 547 OFFCURVE",
"252 533 OFFCURVE",
"252 513 CURVE SMOOTH",
"252 472 LINE",
"437 472 LINE",
"437 509 LINE SMOOTH",
"437 628 OFFCURVE",
"352 708 OFFCURVE",
"223 708 CURVE SMOOTH",
"95 708 OFFCURVE",
"10 628 OFFCURVE",
"10 510 CURVE SMOOTH",
"10 387 OFFCURVE",
"101 322 OFFCURVE",
"173 272 CURVE SMOOTH",
"243 224 OFFCURVE",
"256 206 OFFCURVE",
"256 185 CURVE SMOOTH",
"256 166 OFFCURVE",
"244 153 OFFCURVE",
"228 153 CURVE SMOOTH",
"212 153 OFFCURVE",
"200 167 OFFCURVE",
"200 189 CURVE SMOOTH",
"200 229 LINE",
"14 229 LINE",
"14 180 LINE SMOOTH",
"14 70 OFFCURVE",
"98 -8 OFFCURVE",
"227 -8 CURVE SMOOTH"
);
}
);
width = 455;
},
{
anchors = (
{
name = top;
position = "{253, 708}";
}
);
layerId = "FFFA8D72-12AC-4CE0-B2CA-57A29829F4DA";
paths = (
{
closed = 1;
nodes = (
"390 -8 OFFCURVE",
"500 54 OFFCURVE",
"500 195 CURVE SMOOTH",
"500 259 OFFCURVE",
"477 340 OFFCURVE",
"318 418 CURVE SMOOTH",
"246 453 OFFCURVE",
"197 465 OFFCURVE",
"197 503 CURVE SMOOTH",
"197 529 OFFCURVE",
"219 547 OFFCURVE",
"253 547 CURVE SMOOTH",
"292 547 OFFCURVE",
"311 524 OFFCURVE",
"311 488 CURVE SMOOTH",
"311 466 LINE",
"496 466 LINE",
"496 509 LINE SMOOTH",
"496 628 OFFCURVE",
"398 708 OFFCURVE",
"254 708 CURVE SMOOTH",
"109 708 OFFCURVE",
"12 628 OFFCURVE",
"12 499 CURVE SMOOTH",
"12 394 OFFCURVE",
"76 346 OFFCURVE",
"175 300 CURVE SMOOTH",
"277 253 OFFCURVE",
"315 234 OFFCURVE",
"315 199 CURVE SMOOTH",
"315 171 OFFCURVE",
"292 153 OFFCURVE",
"260 153 CURVE SMOOTH",
"223 153 OFFCURVE",
"202 177 OFFCURVE",
"202 210 CURVE SMOOTH",
"202 236 LINE",
"13 236 LINE",
"16 180 LINE SMOOTH",
"22 69 OFFCURVE",
"108 -8 OFFCURVE",
"257 -8 CURVE SMOOTH"
);
}
);
width = 512;
},
{
anchors = (
{
name = top;
position = "{195, 708}";
}
);
layerId = "DCBE1F7B-116A-43E0-B7B4-8657BA77D8B5";
paths = (
{
closed = 1;
nodes = (
"287 -8 OFFCURVE",
"349 60 OFFCURVE",
"349 166 CURVE SMOOTH",
"349 257 OFFCURVE",
"304 294 OFFCURVE",
"204 369 CURVE SMOOTH",
"117 434 OFFCURVE",
"76 469 OFFCURVE",
"76 549 CURVE SMOOTH",
"76 640 OFFCURVE",
"128 688 OFFCURVE",
"195 688 CURVE SMOOTH",
"270 688 OFFCURVE",
"321 627 OFFCURVE",
"321 534 CURVE SMOOTH",
"321 500 LINE",
"343 500 LINE",
"343 535 LINE SMOOTH",
"343 639 OFFCURVE",
"284 708 OFFCURVE",
"195 708 CURVE SMOOTH",
"115 708 OFFCURVE",
"54 652 OFFCURVE",
"54 551 CURVE SMOOTH",
"54 453 OFFCURVE",
"110 409 OFFCURVE",
"192 347 CURVE SMOOTH",
"270 288 OFFCURVE",
"327 250 OFFCURVE",
"327 159 CURVE SMOOTH",
"327 70 OFFCURVE",
"272 12 OFFCURVE",
"200 12 CURVE SMOOTH",
"127 12 OFFCURVE",
"75 72 OFFCURVE",
"75 165 CURVE SMOOTH",
"75 192 LINE",
"54 192 LINE",
"54 164 LINE SMOOTH",
"54 60 OFFCURVE",
"115 -8 OFFCURVE",
"201 -8 CURVE SMOOTH"
);
}
);
width = 394;
}
);
leftKerningGroup = S;
rightKerningGroup = S;
unicode = 0053;
},
{
glyphname = T;
lastChange = "2017-03-10 12:47:17 +0000";
layers = (
{
hints = (
{
horizontal = 1;
origin = "{1, 2}";
target = "{1, 3}";
},
{
origin = "{0, 3}";
target = "{0, 0}";
}
);
layerId = "262880E7-CFE1-4BDA-902E-E24798F3240A";
paths = (
{
closed = 1;
nodes = (
"240 0 LINE",
"240 689 LINE",
"218 689 LINE",
"218 0 LINE"
);
},
{
closed = 1;
nodes = (
"435 679 LINE",
"435 700 LINE",
"33 700 LINE",
"33 679 LINE"
);
}
);
width = 468;
},
{
layerId = "4E2227F3-52E4-4048-A8EE-327B486EF0A4";
paths = (
{
closed = 1;
nodes = (
"330 0 LINE",
"330 689 LINE",
"142 689 LINE",
"142 0 LINE"
);
},
{
closed = 1;
nodes = (
"469 539 LINE",
"469 700 LINE",
"6 700 LINE",
"6 539 LINE"
);
}
);
width = 475;
},
{
layerId = "FFFA8D72-12AC-4CE0-B2CA-57A29829F4DA";
paths = (
{
closed = 1;
nodes = (
"370 0 LINE",
"370 689 LINE",
"182 689 LINE",
"182 0 LINE"
);
},
{
closed = 1;
nodes = (
"548 538 LINE",
"548 700 LINE",
"9 700 LINE",
"9 538 LINE"
);
}
);
width = 557;
},
{
layerId = "DCBE1F7B-116A-43E0-B7B4-8657BA77D8B5";
paths = (
{
closed = 1;
nodes = (
"189 0 LINE",
"189 689 LINE",
"167 689 LINE",
"167 0 LINE"
);
},
{
closed = 1;
nodes = (
"338 679 LINE",
"338 700 LINE",
"27 700 LINE",
"27 679 LINE"
);
}
);
width = 365;
}
);
leftKerningGroup = T;
rightKerningGroup = T;
unicode = 0054;
},
{
glyphname = U;
lastChange = "2017-03-08 11:35:52 +0000";
layers = (
{
anchors = (
{
name = top;
position = "{275, 712}";
}
);
hints = (
{
horizontal = 1;
origin = "{0, 17}";
target = "{0, 8}";
},
{
origin = "{0, 5}";
target = "{0, 2}";
},
{
origin = "{0, 14}";
target = "{0, 11}";
}
);
layerId = "262880E7-CFE1-4BDA-902E-E24798F3240A";
paths = (
{
closed = 1;
nodes = (
"394 -8 OFFCURVE",
"474 69 OFFCURVE",
"474 185 CURVE SMOOTH",
"474 700 LINE",
"452 700 LINE",
"452 182 LINE SMOOTH",
"452 81 OFFCURVE",
"381 13 OFFCURVE",
"275 13 CURVE SMOOTH",
"169 13 OFFCURVE",
"99 81 OFFCURVE",
"99 182 CURVE SMOOTH",
"99 700 LINE",
"77 700 LINE",
"77 185 LINE SMOOTH",
"77 69 OFFCURVE",
"156 -8 OFFCURVE",
"275 -8 CURVE SMOOTH"
);
}
);
width = 551;
},
{
anchors = (
{
name = top;
position = "{231, 713}";
}
);
layerId = "4E2227F3-52E4-4048-A8EE-327B486EF0A4";
paths = (
{
closed = 1;
nodes = (
"361 -8 OFFCURVE",
"447 78 OFFCURVE",
"447 208 CURVE SMOOTH",
"447 700 LINE",
"259 700 LINE",
"259 190 LINE SMOOTH",
"259 168 OFFCURVE",
"248 153 OFFCURVE",
"231 153 CURVE SMOOTH",
"213 153 OFFCURVE",
"202 168 OFFCURVE",
"202 190 CURVE SMOOTH",
"202 700 LINE",
"14 700 LINE",
"14 208 LINE SMOOTH",
"14 78 OFFCURVE",
"100 -8 OFFCURVE",
"231 -8 CURVE SMOOTH"
);
}
);
width = 461;
},
{
anchors = (
{
name = top;
position = "{275, 713}";
}
);
layerId = "FFFA8D72-12AC-4CE0-B2CA-57A29829F4DA";
paths = (
{
closed = 1;
nodes = (
"427 -8 OFFCURVE",
"529 81 OFFCURVE",
"529 223 CURVE SMOOTH",
"529 700 LINE",
"341 700 LINE",
"341 223 LINE SMOOTH",
"341 183 OFFCURVE",
"315 153 OFFCURVE",
"275 153 CURVE SMOOTH",
"235 153 OFFCURVE",
"208 183 OFFCURVE",
"208 223 CURVE SMOOTH",
"208 700 LINE",
"20 700 LINE",
"20 223 LINE SMOOTH",
"20 81 OFFCURVE",
"122 -8 OFFCURVE",
"275 -8 CURVE SMOOTH"
);
}
);
width = 549;
},
{
anchors = (
{
name = top;
position = "{215, 710}";
}
);
layerId = "DCBE1F7B-116A-43E0-B7B4-8657BA77D8B5";
paths = (
{
closed = 1;
nodes = (
"307 -8 OFFCURVE",
"369 65 OFFCURVE",
"369 175 CURVE SMOOTH",
"369 700 LINE",
"347 700 LINE",
"347 172 LINE SMOOTH",
"347 77 OFFCURVE",
"294 13 OFFCURVE",
"215 13 CURVE SMOOTH",
"137 13 OFFCURVE",
"85 77 OFFCURVE",
"85 172 CURVE SMOOTH",
"85 700 LINE",
"63 700 LINE",
"63 175 LINE SMOOTH",
"63 65 OFFCURVE",
"124 -8 OFFCURVE",
"215 -8 CURVE SMOOTH"
);
}
);
width = 432;
}
);
rightKerningGroup = U;
unicode = 0055;
},
{
glyphname = V;
lastChange = "2017-03-10 12:48:23 +0000";
layers = (
{
hints = (
{
origin = "{0, 6}";
target = "{0, 0}";
},
{
origin = "{0, 5}";
target = "{0, 4}";
},
{
origin = "{0, 2}";
target = "{0, 1}";
}
);
layerId = "262880E7-CFE1-4BDA-902E-E24798F3240A";
paths = (
{
closed = 1;
nodes = (
"264 0 LINE",
"474 700 LINE",
"452 700 LINE",
"253 33 LINE",
"55 700 LINE",
"33 700 LINE",
"242 0 LINE"
);
}
);
width = 507;
},
{
layerId = "4E2227F3-52E4-4048-A8EE-327B486EF0A4";
paths = (
{
closed = 1;
nodes = (
"355 0 LINE",
"503 700 LINE",
"305 700 LINE",
"259 305 LINE",
"209 700 LINE",
"6 700 LINE",
"152 0 LINE"
);
}
);
width = 509;
},
{
layerId = "FFFA8D72-12AC-4CE0-B2CA-57A29829F4DA";
paths = (
{
closed = 1;
nodes = (
"386 0 LINE",
"570 700 LINE",
"372 700 LINE",
"293 258 LINE",
"211 700 LINE",
"9 700 LINE",
"191 0 LINE"
);
}
);
width = 579;
},
{
layerId = "DCBE1F7B-116A-43E0-B7B4-8657BA77D8B5";
paths = (
{
closed = 1;
nodes = (
"199 0 LINE",
"348 700 LINE",
"326 700 LINE",
"188 42 LINE",
"50 700 LINE",
"27 700 LINE",
"177 0 LINE"
);
}
);
width = 375;
}
);
leftKerningGroup = V;
rightKerningGroup = V;
unicode = 0056;
},
{
glyphname = W;
lastChange = "2017-03-10 12:07:06 +0000";
layers = (
{
hints = (
{
origin = "{0, 11}";
target = "{0, 10}";
},
{
origin = "{0, 12}";
target = "{0, 0}";
},
{
origin = "{0, 8}";
target = "{0, 7}";
},
{
origin = "{0, 2}";
target = "{0, 3}";
},
{
origin = "{0, 5}";
target = "{0, 4}";
}
);
layerId = "262880E7-CFE1-4BDA-902E-E24798F3240A";
paths = (
{
closed = 1;
nodes = (
"237 0 LINE",
"406 666 LINE",
"572 0 LINE",
"594 0 LINE",
"781 700 LINE",
"759 700 LINE",
"584 40 LINE",
"416 700 LINE",
"394 700 LINE",
"227 40 LINE",
"55 700 LINE",
"33 700 LINE",
"215 0 LINE"
);
}
);
width = 814;
},
{
layerId = "4E2227F3-52E4-4048-A8EE-327B486EF0A4";
paths = (
{
closed = 1;
nodes = (
"313 0 LINE",
"352 362 LINE",
"400 0 LINE",
"564 0 LINE",
"698 700 LINE",
"504 700 LINE",
"483 352 LINE",
"432 700 LINE",
"266 700 LINE",
"231 352 LINE",
"204 700 LINE",
"6 700 LINE",
"148 0 LINE"
);
}
);
width = 704;
},
{
hints = (
{
place = "{-23.609, 0}";
}
);
layerId = "FFFA8D72-12AC-4CE0-B2CA-57A29829F4DA";
paths = (
{
closed = 1;
nodes = (
"339 0 LINE",
"397 372 LINE",
"465 0 LINE",
"652 0 LINE",
"784 700 LINE",
"596 700 LINE",
"549 348 LINE",
"494 700 LINE",
"303 700 LINE",
"256 348 LINE",
"207 700 LINE",
"9 700 LINE",
"163 0 LINE"
);
}
);
width = 793;
},
{
layerId = "DCBE1F7B-116A-43E0-B7B4-8657BA77D8B5";
paths = (
{
closed = 1;
nodes = (
"182 0 LINE",
"286 656 LINE",
"389 0 LINE",
"412 0 LINE",
"538 700 LINE",
"514 700 LINE",
"402 40 LINE",
"297 700 LINE",
"274 700 LINE",
"172 40 LINE",
"50 700 LINE",
"27 700 LINE",
"160 0 LINE"
);
}
);
width = 565;
}
);
leftKerningGroup = V;
rightKerningGroup = V;
unicode = 0057;
},
{
glyphname = X;
lastChange = "2017-03-08 11:35:52 +0000";
layers = (
{
hints = (
{
origin = "{0, 11}";
target = "{0, 0}";
},
{
origin = "{0, 2}";
target = "{0, 3}";
}
);
layerId = "262880E7-CFE1-4BDA-902E-E24798F3240A";
paths = (
{
closed = 1;
nodes = (
"58 0 LINE",
"241 330 LINE",
"423 0 LINE",
"448 0 LINE",
"251 349 LINE",
"448 700 LINE",
"423 700 LINE",
"241 369 LINE",
"58 700 LINE",
"33 700 LINE",
"230 350 LINE",
"33 0 LINE"
);
}
);
width = 481;
},
{
layerId = "4E2227F3-52E4-4048-A8EE-327B486EF0A4";
paths = (
{
closed = 1;
nodes = (
"197 0 LINE",
"246 162 LINE",
"295 0 LINE",
"485 0 LINE",
"345 350 LINE",
"485 700 LINE",
"294 700 LINE",
"246 537 LINE",
"198 700 LINE",
"6 700 LINE",
"146 350 LINE",
"6 0 LINE"
);
}
);
width = 491;
},
{
layerId = "FFFA8D72-12AC-4CE0-B2CA-57A29829F4DA";
paths = (
{
closed = 1;
nodes = (
"213 0 LINE",
"301 196 LINE",
"389 0 LINE",
"592 0 LINE",
"413 350 LINE",
"592 700 LINE",
"388 700 LINE",
"301 503 LINE",
"214 700 LINE",
"9 700 LINE",
"189 350 LINE",
"9 0 LINE"
);
}
);
width = 601;
},
{
layerId = "DCBE1F7B-116A-43E0-B7B4-8657BA77D8B5";
paths = (
{
closed = 1;
nodes = (
"52 0 LINE",
"188 330 LINE",
"323 0 LINE",
"348 0 LINE",
"198 349 LINE",
"348 700 LINE",
"323 700 LINE",
"188 369 LINE",
"52 700 LINE",
"27 700 LINE",
"176 350 LINE",
"27 0 LINE"
);
}
);
width = 375;
}
);
rightKerningGroup = X;
unicode = 0058;
},
{
glyphname = Y;
lastChange = "2017-03-08 11:35:52 +0000";
layers = (
{
anchors = (
{
name = top;
position = "{237, 699}";
}
);
hints = (
{
origin = "{0, 6}";
target = "{0, 5}";
},
{
origin = "{0, 3}";
target = "{0, 2}";
},
{
origin = "{0, 8}";
target = "{0, 0}";
}
);
layerId = "262880E7-CFE1-4BDA-902E-E24798F3240A";
paths = (
{
closed = 1;
nodes = (
"248 0 LINE",
"248 339 LINE",
"441 700 LINE",
"419 700 LINE",
"237 358 LINE",
"55 700 LINE",
"33 700 LINE",
"226 339 LINE",
"226 0 LINE"
);
}
);
width = 474;
},
{
anchors = (
{
name = top;
position = "{248, 699}";
}
);
layerId = "4E2227F3-52E4-4048-A8EE-327B486EF0A4";
paths = (
{
closed = 1;
nodes = (
"341 2 LINE",
"341 251 LINE",
"490 700 LINE",
"292 700 LINE",
"248 471 LINE",
"204 700 LINE",
"6 700 LINE",
"153 251 LINE",
"153 2 LINE"
);
}
);
width = 496;
},
{
anchors = (
{
name = top;
position = "{296, 700}";
}
);
layerId = "FFFA8D72-12AC-4CE0-B2CA-57A29829F4DA";
paths = (
{
closed = 1;
nodes = (
"389 2 LINE",
"389 251 LINE",
"584 700 LINE",
"379 700 LINE",
"296 461 LINE",
"213 700 LINE",
"9 700 LINE",
"202 251 LINE",
"202 2 LINE"
);
}
);
width = 593;
},
{
anchors = (
{
name = top;
position = "{180, 700}";
}
);
layerId = "DCBE1F7B-116A-43E0-B7B4-8657BA77D8B5";
paths = (
{
closed = 1;
nodes = (
"191 0 LINE",
"191 339 LINE",
"332 700 LINE",
"309 700 LINE",
"180 358 LINE",
"50 700 LINE",
"27 700 LINE",
"169 339 LINE",
"169 0 LINE"
);
}
);
width = 359;
}
);
leftKerningGroup = Y;
unicode = 0059;
},
{
glyphname = Z;
lastChange = "2017-03-11 03:49:04 +0000";
layers = (
{
anchors = (
{
name = top;
position = "{227, 713}";
}
);
hints = (
{
horizontal = 1;
origin = "{0, 5}";
target = "{0, 6}";
},
{
origin = "{0, 7}";
target = "{0, 3}";
},
{
horizontal = 1;
origin = "{0, 0}";
target = "{0, 1}";
},
{
origin = "{0, 8}";
target = "{0, 2}";
}
);
layerId = "262880E7-CFE1-4BDA-902E-E24798F3240A";
paths = (
{
closed = 1;
nodes = (
"423 0 LINE",
"423 21 LINE",
"69 21 LINE",
"423 679 LINE",
"423 700 LINE",
"44 700 LINE",
"44 679 LINE",
"399 679 LINE",
"44 21 LINE",
"44 0 LINE"
);
}
);
width = 478;
},
{
anchors = (
{
name = top;
position = "{206, 713}";
}
);
layerId = "4E2227F3-52E4-4048-A8EE-327B486EF0A4";
paths = (
{
closed = 1;
nodes = (
"406 0 LINE",
"406 161 LINE",
"204 161 LINE",
"406 539 LINE",
"406 700 LINE",
"8 700 LINE",
"8 539 LINE",
"208 539 LINE",
"8 161 LINE",
"8 0 LINE"
);
}
);
width = 416;
},
{
anchors = (
{
name = top;
position = "{252, 713}";
}
);
layerId = "FFFA8D72-12AC-4CE0-B2CA-57A29829F4DA";
paths = (
{
closed = 1;
nodes = (
"483 0 LINE",
"483 161 LINE",
"208 161 LINE",
"483 530 LINE",
"483 700 LINE",
"12 700 LINE",
"12 539 LINE",
"285 539 LINE",
"12 170 LINE",
"12 0 LINE"
);
}
);
width = 498;
},
{
anchors = (
{
name = top;
position = "{185, 713}";
}
);
layerId = "DCBE1F7B-116A-43E0-B7B4-8657BA77D8B5";
paths = (
{
closed = 1;
nodes = (
"328 0 LINE",
"328 21 LINE",
"61 21 LINE",
"328 679 LINE",
"328 700 LINE",
"36 700 LINE",
"36 679 LINE",
"304 679 LINE",
"36 21 LINE",
"36 0 LINE"
);
}
);
width = 373;
}
);
leftKerningGroup = Z;
rightKerningGroup = Z;
unicode = 005A;
},
{
glyphname = a;
lastChange = "2017-03-08 11:35:52 +0000";
layers = (
{
anchors = (
{
name = top;
position = "{257, 508}";
}
);
hints = (
{
horizontal = 1;
origin = "{2, 5}";
target = "{1, 4}";
},
{
horizontal = 1;
origin = "{1, 10}";
target = "{2, 10}";
},
{
origin = "{1, 7}";
target = "{2, 2}";
},
{
origin = "{0, 15}";
target = "{0, 0}";
},
{
horizontal = 1;
origin = "{0, 4}";
target = "{0, 11}";
},
{
origin = "{0, 7}";
target = "{0, 8}";
}
);
layerId = "262880E7-CFE1-4BDA-902E-E24798F3240A";
paths = (
{
closed = 1;
nodes = (
"416 0 LINE",
"416 342 LINE SMOOTH",
"416 442 OFFCURVE",
"368 508 OFFCURVE",
"254 508 CURVE SMOOTH",
"159 508 OFFCURVE",
"95 462 OFFCURVE",
"84 392 CURVE",
"106 388 LINE",
"114 449 OFFCURVE",
"169 487 OFFCURVE",
"251 487 CURVE SMOOTH",
"355 487 OFFCURVE",
"394 425 OFFCURVE",
"394 345 CURVE SMOOTH",
"394 0 LINE"
);
},
{
closed = 1;
nodes = (
"317 -8 OFFCURVE",
"411 37 OFFCURVE",
"411 142 CURVE",
"411 277 LINE",
"267 277 LINE",
"143 277 OFFCURVE",
"66 219 OFFCURVE",
"66 124 CURVE SMOOTH",
"66 26 OFFCURVE",
"148 -8 OFFCURVE",
"225 -8 CURVE SMOOTH"
);
},
{
closed = 1;
nodes = (
"149 13 OFFCURVE",
"88 49 OFFCURVE",
"88 125 CURVE SMOOTH",
"88 208 OFFCURVE",
"161 256 OFFCURVE",
"264 256 CURVE",
"394 256 LINE",
"394 142 LINE SMOOTH",
"394 52 OFFCURVE",
"306 13 OFFCURVE",
"224 13 CURVE SMOOTH"
);
}
);
width = 493;
},
{
anchors = (
{
name = top;
position = "{232, 528}";
}
);
layerId = "4E2227F3-52E4-4048-A8EE-327B486EF0A4";
paths = (
{
closed = 1;
nodes = (
"449 0 LINE",
"449 360 LINE SMOOTH",
"449 461 OFFCURVE",
"362 528 OFFCURVE",
"232 528 CURVE SMOOTH",
"105 528 OFFCURVE",
"17 459 OFFCURVE",
"17 341 CURVE",
"206 337 LINE",
"206 355 OFFCURVE",
"217 367 OFFCURVE",
"232 367 CURVE SMOOTH",
"249 367 OFFCURVE",
"261 355 OFFCURVE",
"261 337 CURVE SMOOTH",
"261 0 LINE"
);
},
{
closed = 1;
nodes = (
"264 -7 OFFCURVE",
"300 59 OFFCURVE",
"300 197 CURVE",
"300 313 LINE",
"221 313 LINE",
"95 313 OFFCURVE",
"12 297 OFFCURVE",
"12 151 CURVE SMOOTH",
"12 7 OFFCURVE",
"90 -9 OFFCURVE",
"159 -8 CURVE SMOOTH"
);
},
{
closed = 1;
nodes = (
"216 125 OFFCURVE",
"204 134 OFFCURVE",
"204 153 CURVE SMOOTH",
"204 170 OFFCURVE",
"216 185 OFFCURVE",
"235 185 CURVE",
"261 185 LINE",
"261 152 LINE SMOOTH",
"261 135 OFFCURVE",
"243 125 OFFCURVE",
"229 125 CURVE SMOOTH"
);
}
);
width = 463;
},
{
anchors = (
{
name = top;
position = "{243, 517}";
}
);
associatedMasterId = "4E2227F3-52E4-4048-A8EE-327B486EF0A4";
layerId = "ECDB5D87-04FB-4DD9-B431-22FBE4ECF321";
name = "{100,5}";
paths = (
{
closed = 1;
nodes = (
"449 0 LINE",
"449 348 LINE SMOOTH",
"449 446 OFFCURVE",
"363 517 OFFCURVE",
"242 517 CURVE SMOOTH",
"127 517 OFFCURVE",
"43 453 OFFCURVE",
"43 364 CURVE",
"142 355 LINE",
"142 400 OFFCURVE",
"185 431 OFFCURVE",
"243 431 CURVE SMOOTH",
"309 431 OFFCURVE",
"349 392 OFFCURVE",
"349 333 CURVE SMOOTH",
"349 0 LINE"
);
},
{
closed = 1;
nodes = (
"323 -8 OFFCURVE",
"386 51 OFFCURVE",
"386 157 CURVE",
"386 303 LINE",
"245 303 LINE",
"117 303 OFFCURVE",
"31 237 OFFCURVE",
"31 137 CURVE SMOOTH",
"31 50 OFFCURVE",
"101 -8 OFFCURVE",
"206 -8 CURVE SMOOTH"
);
},
{
closed = 1;
nodes = (
"167 78 OFFCURVE",
"131 103 OFFCURVE",
"131 141 CURVE SMOOTH",
"131 187 OFFCURVE",
"180 217 OFFCURVE",
"254 217 CURVE",
"349 217 LINE",
"349 200 LINE SMOOTH",
"349 122 OFFCURVE",
"297 78 OFFCURVE",
"220 78 CURVE SMOOTH"
);
}
);
width = 499;
},
{
anchors = (
{
name = top;
position = "{265, 528}";
}
);
layerId = "FFFA8D72-12AC-4CE0-B2CA-57A29829F4DA";
paths = (
{
closed = 1;
nodes = (
"513 0 LINE",
"513 355 LINE SMOOTH",
"513 451 OFFCURVE",
"404 528 OFFCURVE",
"265 528 CURVE SMOOTH",
"126 528 OFFCURVE",
"25 452 OFFCURVE",
"24 356 CURVE",
"212 332 LINE",
"213 352 OFFCURVE",
"236 367 OFFCURVE",
"268 367 CURVE SMOOTH",
"303 367 OFFCURVE",
"325 348 OFFCURVE",
"325 320 CURVE SMOOTH",
"325 0 LINE"
);
},
{
closed = 1;
nodes = (
"314 -8 OFFCURVE",
"359 47 OFFCURVE",
"359 182 CURVE",
"359 305 LINE",
"227 305 LINE",
"89 305 OFFCURVE",
"18 246 OFFCURVE",
"18 142 CURVE SMOOTH",
"18 39 OFFCURVE",
"87 -8 OFFCURVE",
"196 -8 CURVE SMOOTH"
);
},
{
closed = 1;
nodes = (
"222 115 OFFCURVE",
"207 127 OFFCURVE",
"207 153 CURVE SMOOTH",
"207 183 OFFCURVE",
"228 196 OFFCURVE",
"270 196 CURVE",
"325 196 LINE",
"325 180 LINE SMOOTH",
"325 138 OFFCURVE",
"294 115 OFFCURVE",
"252 115 CURVE SMOOTH"
);
}
);
width = 534;
},
{
anchors = (
{
name = top;
position = "{193, 508}";
}
);
layerId = "DCBE1F7B-116A-43E0-B7B4-8657BA77D8B5";
paths = (
{
closed = 1;
nodes = (
"328 0 LINE",
"328 342 LINE SMOOTH",
"328 442 OFFCURVE",
"283 508 OFFCURVE",
"197 508 CURVE SMOOTH",
"128 508 OFFCURVE",
"67 461 OFFCURVE",
"64 388 CURVE",
"87 385 LINE",
"87 446 OFFCURVE",
"139 487 OFFCURVE",
"196 487 CURVE SMOOTH",
"268 487 OFFCURVE",
"305 430 OFFCURVE",
"305 345 CURVE SMOOTH",
"305 0 LINE"
);
},
{
closed = 1;
nodes = (
"251 -8 OFFCURVE",
"320 37 OFFCURVE",
"320 142 CURVE",
"320 283 LINE",
"208 283 LINE SMOOTH",
"119 283 OFFCURVE",
"54 236 OFFCURVE",
"54 126 CURVE SMOOTH",
"54 18 OFFCURVE",
"118 -8 OFFCURVE",
"175 -8 CURVE SMOOTH"
);
},
{
closed = 1;
nodes = (
"121 13 OFFCURVE",
"76 45 OFFCURVE",
"76 127 CURVE SMOOTH",
"76 219 OFFCURVE",
"132 262 OFFCURVE",
"210 262 CURVE SMOOTH",
"305 262 LINE",
"305 142 LINE SMOOTH",
"305 52 OFFCURVE",
"241 13 OFFCURVE",
"178 13 CURVE SMOOTH"
);
}
);
width = 391;
},
{
anchors = (
{
name = top;
position = "{202, 517}";
}
);
associatedMasterId = "4E2227F3-52E4-4048-A8EE-327B486EF0A4";
layerId = "FAF4597E-2DB2-4F36-AC5C-F274557DEF62";
name = "{100,3}";
paths = (
{
closed = 1;
nodes = (
"374 0 LINE",
"374 350 LINE SMOOTH",
"374 451 OFFCURVE",
"306 517 OFFCURVE",
"202 517 CURVE SMOOTH",
"101 517 OFFCURVE",
"30 455 OFFCURVE",
"29 374 CURVE",
"130 366 LINE",
"131 405 OFFCURVE",
"162 431 OFFCURVE",
"200 431 CURVE SMOOTH",
"246 431 OFFCURVE",
"274 395 OFFCURVE",
"274 341 CURVE SMOOTH",
"274 0 LINE"
);
},
{
closed = 1;
nodes = (
"261 -8 OFFCURVE",
"310 42 OFFCURVE",
"310 177 CURVE",
"310 299 LINE",
"214 299 LINE SMOOTH",
"109 299 OFFCURVE",
"24 265 OFFCURVE",
"24 146 CURVE SMOOTH",
"24 18 OFFCURVE",
"122 -8 OFFCURVE",
"181 -8 CURVE SMOOTH"
);
},
{
closed = 1;
nodes = (
"152 79 OFFCURVE",
"125 100 OFFCURVE",
"125 144 CURVE SMOOTH",
"125 189 OFFCURVE",
"161 215 OFFCURVE",
"211 215 CURVE SMOOTH",
"274 215 LINE",
"274 161 LINE SMOOTH",
"274 107 OFFCURVE",
"231 79 OFFCURVE",
"190 79 CURVE SMOOTH"
);
}
);
width = 411;
}
);
leftKerningGroup = a;
rightKerningGroup = b;
unicode = 0061;
},
{
glyphname = b;
lastChange = "2017-03-08 11:35:53 +0000";
layers = (
{
components = (
{
name = b.bowl;
transform = "{1, 0, 0, 1, 90, 0}";
}
);
hints = (
{
origin = "{0, 2}";
target = "{0, 1}";
}
);
layerId = "262880E7-CFE1-4BDA-902E-E24798F3240A";
paths = (
{
closed = 1;
nodes = (
"110 0 LINE",
"110 700 LINE",
"88 700 LINE",
"88 0 LINE"
);
}
);
width = 487;
},
{
components = (
{
name = b.bowl;
transform = "{1, 0, 0, 1, 170, 0}";
}
);
layerId = "4E2227F3-52E4-4048-A8EE-327B486EF0A4";
paths = (
{
closed = 1;
nodes = (
"204 0 LINE",
"204 700 LINE",
"16 700 LINE",
"16 0 LINE"
);
}
);
width = 447;
},
{
components = (
{
name = b.bowl;
transform = "{1, 0, 0, 1, 153, 0}";
}
);
layerId = "FFFA8D72-12AC-4CE0-B2CA-57A29829F4DA";
paths = (
{
closed = 1;
nodes = (
"212 0 LINE",
"212 700 LINE",
"24 700 LINE",
"24 0 LINE"
);
}
);
width = 532;
},
{
components = (
{
name = b.bowl;
transform = "{1, 0, 0, 1, 79, 0}";
}
);
layerId = "DCBE1F7B-116A-43E0-B7B4-8657BA77D8B5";
paths = (
{
closed = 1;
nodes = (
"94 0 LINE",
"94 700 LINE",
"72 700 LINE",
"72 0 LINE"
);
}
);
width = 384;
}
);
leftKerningGroup = b;
rightKerningGroup = n;
unicode = 0062;
},
{
glyphname = c;
lastChange = "2017-03-10 13:27:37 +0000";
layers = (
{
anchors = (
{
name = top;
position = "{229, 508}";
}
);
hints = (
{
origin = "{0, 43}";
target = "{0, 18}";
},
{
horizontal = 1;
origin = "{0, 49}";
target = "{0, 12}";
},
{
horizontal = 1;
origin = "{0, 37}";
target = "{0, 24}";
},
{
origin = "{0, 30}";
target = "{0, 31}";
}
);
layerId = "262880E7-CFE1-4BDA-902E-E24798F3240A";
paths = (
{
closed = 1;
nodes = (
"317 -8 OFFCURVE",
"384 45 OFFCURVE",
"398 113 CURVE SMOOTH",
"400 124 OFFCURVE",
"401 129 OFFCURVE",
"402 137 CURVE",
"380 139 LINE",
"379 131 OFFCURVE",
"379 131 OFFCURVE",
"378 125 CURVE SMOOTH",
"366 64 OFFCURVE",
"309 13 OFFCURVE",
"229 13 CURVE SMOOTH",
"149 13 OFFCURVE",
"94 63 OFFCURVE",
"81 135 CURVE SMOOTH",
"77 156 OFFCURVE",
"77 193 OFFCURVE",
"77 250 CURVE SMOOTH",
"77 302 OFFCURVE",
"77 343 OFFCURVE",
"81 365 CURVE SMOOTH",
"94 436 OFFCURVE",
"149 487 OFFCURVE",
"229 487 CURVE SMOOTH",
"309 487 OFFCURVE",
"366 436 OFFCURVE",
"378 375 CURVE SMOOTH",
"379 369 OFFCURVE",
"380 361 OFFCURVE",
"381 352 CURVE",
"403 353 LINE",
"402 363 OFFCURVE",
"400 376 OFFCURVE",
"398 387 CURVE SMOOTH",
"384 455 OFFCURVE",
"317 508 OFFCURVE",
"229 508 CURVE SMOOTH",
"141 508 OFFCURVE",
"78 454 OFFCURVE",
"61 377 CURVE SMOOTH",
"54 345 OFFCURVE",
"55 310 OFFCURVE",
"55 251 CURVE SMOOTH",
"55 195 OFFCURVE",
"54 156 OFFCURVE",
"61 123 CURVE SMOOTH",
"78 46 OFFCURVE",
"141 -8 OFFCURVE",
"229 -8 CURVE SMOOTH"
);
}
);
width = 447;
},
{
anchors = (
{
name = top;
position = "{221, 532}";
}
);
layerId = "4E2227F3-52E4-4048-A8EE-327B486EF0A4";
paths = (
{
closed = 1;
nodes = (
"355 -8 OFFCURVE",
"431 57 OFFCURVE",
"431 170 CURVE SMOOTH",
"431 181 OFFCURVE",
"431 197 OFFCURVE",
"431 213 CURVE",
"243 215 LINE",
"243 205 OFFCURVE",
"243 195 OFFCURVE",
"243 185 CURVE SMOOTH",
"243 166 OFFCURVE",
"234 153 OFFCURVE",
"221 153 CURVE SMOOTH",
"207 153 OFFCURVE",
"198 166 OFFCURVE",
"198 185 CURVE SMOOTH",
"198 210 OFFCURVE",
"198 235 OFFCURVE",
"198 260 CURVE SMOOTH",
"198 285 OFFCURVE",
"198 310 OFFCURVE",
"198 335 CURVE SMOOTH",
"198 354 OFFCURVE",
"207 367 OFFCURVE",
"221 367 CURVE SMOOTH",
"234 367 OFFCURVE",
"243 354 OFFCURVE",
"243 335 CURVE SMOOTH",
"243 325 OFFCURVE",
"243 316 OFFCURVE",
"243 306 CURVE",
"431 313 LINE",
"431 327 OFFCURVE",
"431 340 OFFCURVE",
"431 350 CURVE SMOOTH",
"431 456 OFFCURVE",
"355 528 OFFCURVE",
"221 528 CURVE SMOOTH",
"87 528 OFFCURVE",
"10 456 OFFCURVE",
"10 350 CURVE SMOOTH",
"10 327 OFFCURVE",
"10 283 OFFCURVE",
"10 260 CURVE SMOOTH",
"10 237 OFFCURVE",
"10 193 OFFCURVE",
"10 170 CURVE SMOOTH",
"10 57 OFFCURVE",
"87 -8 OFFCURVE",
"221 -8 CURVE SMOOTH"
);
}
);
width = 441;
},
{
anchors = (
{
name = top;
position = "{270, 528}";
}
);
layerId = "FFFA8D72-12AC-4CE0-B2CA-57A29829F4DA";
paths = (
{
closed = 1;
nodes = (
"379 -8 OFFCURVE",
"473 46 OFFCURVE",
"509 144 CURVE SMOOTH",
"513 154 OFFCURVE",
"514 159 OFFCURVE",
"517 169 CURVE",
"332 203 LINE",
"331 199 OFFCURVE",
"330 196 OFFCURVE",
"329 193 CURVE SMOOTH",
"319 169 OFFCURVE",
"296 153 OFFCURVE",
"272 153 CURVE SMOOTH",
"247 153 OFFCURVE",
"224 169 OFFCURVE",
"215 193 CURVE SMOOTH",
"208 211 OFFCURVE",
"205 234 OFFCURVE",
"205 262 CURVE SMOOTH",
"205 288 OFFCURVE",
"208 310 OFFCURVE",
"215 327 CURVE SMOOTH",
"225 351 OFFCURVE",
"248 367 OFFCURVE",
"272 367 CURVE SMOOTH",
"296 367 OFFCURVE",
"318 351 OFFCURVE",
"329 327 CURVE SMOOTH",
"331 323 OFFCURVE",
"332 318 OFFCURVE",
"333 314 CURVE",
"519 347 LINE",
"517 352 OFFCURVE",
"518 356 OFFCURVE",
"509 379 CURVE SMOOTH",
"471 473 OFFCURVE",
"381 528 OFFCURVE",
"273 528 CURVE SMOOTH",
"163 528 OFFCURVE",
"72 471 OFFCURVE",
"35 376 CURVE SMOOTH",
"24 348 OFFCURVE",
"15 310 OFFCURVE",
"15 263 CURVE SMOOTH",
"15 225 OFFCURVE",
"21 185 OFFCURVE",
"35 149 CURVE SMOOTH",
"73 51 OFFCURVE",
"162 -8 OFFCURVE",
"273 -8 CURVE SMOOTH"
);
}
);
width = 531;
},
{
anchors = (
{
name = top;
position = "{179, 508}";
}
);
layerId = "DCBE1F7B-116A-43E0-B7B4-8657BA77D8B5";
paths = (
{
closed = 1;
nodes = (
"259 -8 OFFCURVE",
"314 52 OFFCURVE",
"314 115 CURVE SMOOTH",
"314 117 OFFCURVE",
"314 125 OFFCURVE",
"314 127 CURVE",
"292 127 LINE",
"292 125 OFFCURVE",
"292 117 OFFCURVE",
"292 115 CURVE SMOOTH",
"292 63 OFFCURVE",
"246 13 OFFCURVE",
"179 13 CURVE SMOOTH",
"113 13 OFFCURVE",
"67 63 OFFCURVE",
"67 135 CURVE SMOOTH",
"67 173 OFFCURVE",
"67 212 OFFCURVE",
"67 250 CURVE SMOOTH",
"67 288 OFFCURVE",
"67 327 OFFCURVE",
"67 365 CURVE SMOOTH",
"67 437 OFFCURVE",
"113 487 OFFCURVE",
"179 487 CURVE SMOOTH",
"246 487 OFFCURVE",
"292 437 OFFCURVE",
"292 385 CURVE SMOOTH",
"292 383 OFFCURVE",
"292 375 OFFCURVE",
"292 373 CURVE",
"314 373 LINE",
"314 374 OFFCURVE",
"314 384 OFFCURVE",
"314 385 CURVE SMOOTH",
"314 448 OFFCURVE",
"259 508 OFFCURVE",
"179 508 CURVE SMOOTH",
"100 508 OFFCURVE",
"45 448 OFFCURVE",
"45 365 CURVE SMOOTH",
"45 327 OFFCURVE",
"45 288 OFFCURVE",
"45 250 CURVE SMOOTH",
"45 212 OFFCURVE",
"45 173 OFFCURVE",
"45 135 CURVE SMOOTH",
"45 52 OFFCURVE",
"100 -8 OFFCURVE",
"179 -8 CURVE SMOOTH"
);
}
);
width = 350;
},
{
anchors = (
{
name = top;
position = "{260, 528}";
}
);
associatedMasterId = "FFFA8D72-12AC-4CE0-B2CA-57A29829F4DA";
layerId = "0E7C393E-0635-473F-B31A-CAEFC4379571";
name = "Feb 24 17, 16:06";
paths = (
{
closed = 1;
nodes = (
"372 -8 OFFCURVE",
"454 49 OFFCURVE",
"490 144 CURVE SMOOTH",
"497 163 OFFCURVE",
"502 183 OFFCURVE",
"505 204 CURVE",
"319 219 LINE",
"317 206 OFFCURVE",
"314 195 OFFCURVE",
"310 185 CURVE SMOOTH",
"302 165 OFFCURVE",
"285 153 OFFCURVE",
"260 153 CURVE SMOOTH",
"235 153 OFFCURVE",
"219 165 OFFCURVE",
"210 185 CURVE SMOOTH",
"201 205 OFFCURVE",
"198 232 OFFCURVE",
"198 262 CURVE SMOOTH",
"198 298 OFFCURVE",
"200 316 OFFCURVE",
"210 336 CURVE SMOOTH",
"220 355 OFFCURVE",
"235 367 OFFCURVE",
"260 367 CURVE SMOOTH",
"285 367 OFFCURVE",
"300 355 OFFCURVE",
"310 336 CURVE SMOOTH",
"316 324 OFFCURVE",
"319 309 OFFCURVE",
"321 295 CURVE",
"507 315 LINE",
"503 338 OFFCURVE",
"498 360 OFFCURVE",
"490 381 CURVE SMOOTH",
"454 476 OFFCURVE",
"372 528 OFFCURVE",
"260 528 CURVE SMOOTH",
"148 528 OFFCURVE",
"66 476 OFFCURVE",
"30 381 CURVE SMOOTH",
"17 346 OFFCURVE",
"10 307 OFFCURVE",
"10 263 CURVE SMOOTH",
"10 219 OFFCURVE",
"17 179 OFFCURVE",
"30 144 CURVE SMOOTH",
"66 49 OFFCURVE",
"148 -8 OFFCURVE",
"260 -8 CURVE SMOOTH"
);
}
);
width = 515;
visible = 1;
},
{
anchors = (
{
name = top;
position = "{223, 532}";
}
);
associatedMasterId = "4E2227F3-52E4-4048-A8EE-327B486EF0A4";
layerId = "A66C9DAC-E233-43FD-8EF1-F60ACA1546F6";
name = "Mar 6 17, 05:00";
paths = (
{
closed = 1;
nodes = (
"359 -8 OFFCURVE",
"435 57 OFFCURVE",
"435 170 CURVE SMOOTH",
"435 180 OFFCURVE",
"435 194 OFFCURVE",
"435 209 CURVE",
"247 214 LINE",
"246 184 OFFCURVE",
"245 171 OFFCURVE",
"241 163 CURVE SMOOTH",
"238 157 OFFCURVE",
"231 153 OFFCURVE",
"223 153 CURVE SMOOTH",
"215 153 OFFCURVE",
"207 157 OFFCURVE",
"204 163 CURVE SMOOTH",
"198 174 OFFCURVE",
"198 194 OFFCURVE",
"198 260 CURVE SMOOTH",
"198 332 OFFCURVE",
"197 348 OFFCURVE",
"204 360 CURVE SMOOTH",
"208 366 OFFCURVE",
"214 371 OFFCURVE",
"223 371 CURVE SMOOTH",
"231 371 OFFCURVE",
"238 366 OFFCURVE",
"241 360 CURVE SMOOTH",
"245 351 OFFCURVE",
"247 340 OFFCURVE",
"247 305 CURVE",
"435 311 LINE",
"435 326 OFFCURVE",
"435 340 OFFCURVE",
"435 350 CURVE SMOOTH",
"435 456 OFFCURVE",
"359 532 OFFCURVE",
"223 532 CURVE SMOOTH",
"87 532 OFFCURVE",
"10 456 OFFCURVE",
"10 350 CURVE SMOOTH",
"10 327 OFFCURVE",
"10 283 OFFCURVE",
"10 260 CURVE SMOOTH",
"10 237 OFFCURVE",
"10 193 OFFCURVE",
"10 170 CURVE SMOOTH",
"10 57 OFFCURVE",
"87 -8 OFFCURVE",
"223 -8 CURVE SMOOTH"
);
}
);
width = 443;
},
{
anchors = (
{
name = top;
position = "{248, 517}";
}
);
associatedMasterId = "FFFA8D72-12AC-4CE0-B2CA-57A29829F4DA";
hints = (
{
origin = "{0, 43}";
target = "{0, 18}";
},
{
horizontal = 1;
origin = "{0, 49}";
target = "{0, 12}";
},
{
horizontal = 1;
origin = "{0, 37}";
target = "{0, 24}";
},
{
origin = "{0, 30}";
target = "{0, 31}";
}
);
layerId = "61FC974D-32B2-4EBB-9AC3-8FEB0E22D734";
name = "{100,5}";
paths = (
{
closed = 1;
nodes = (
"350 -8 OFFCURVE",
"426 42 OFFCURVE",
"450 127 CURVE SMOOTH",
"451 131 OFFCURVE",
"453 141 OFFCURVE",
"456 152 CURVE",
"358 169 LINE",
"357 166 OFFCURVE",
"356 161 OFFCURVE",
"355 157 CURVE SMOOTH",
"339 107 OFFCURVE",
"298 78 OFFCURVE",
"246 78 CURVE SMOOTH",
"199 78 OFFCURVE",
"162 108 OFFCURVE",
"147 159 CURVE SMOOTH",
"139 188 OFFCURVE",
"134 223 OFFCURVE",
"134 255 CURVE SMOOTH",
"134 288 OFFCURVE",
"139 323 OFFCURVE",
"147 349 CURVE SMOOTH",
"163 401 OFFCURVE",
"200 431 OFFCURVE",
"248 431 CURVE SMOOTH",
"299 431 OFFCURVE",
"338 402 OFFCURVE",
"355 353 CURVE SMOOTH",
"356 350 OFFCURVE",
"358 343 OFFCURVE",
"359 334 CURVE",
"457 350 LINE",
"453 369 OFFCURVE",
"451 381 OFFCURVE",
"450 383 CURVE SMOOTH",
"423 467 OFFCURVE",
"347 517 OFFCURVE",
"246 517 CURVE SMOOTH",
"153 517 OFFCURVE",
"81 466 OFFCURVE",
"52 378 CURVE SMOOTH",
"41 344 OFFCURVE",
"34 299 OFFCURVE",
"34 256 CURVE SMOOTH",
"34 214 OFFCURVE",
"41 169 OFFCURVE",
"52 134 CURVE SMOOTH",
"81 45 OFFCURVE",
"153 -8 OFFCURVE",
"245 -8 CURVE SMOOTH"
);
}
);
width = 486;
}
);
leftKerningGroup = o;
rightKerningGroup = c;
unicode = 0063;
},
{
color = 3;
glyphname = e;
lastChange = "2017-03-10 12:49:53 +0000";
layers = (
{
anchors = (
{
name = top;
position = "{229, 508}";
}
);
hints = (
{
origin = "{0, 40}";
target = "{0, 12}";
},
{
origin = "{0, 24}";
target = "{0, 28}";
},
{
horizontal = 1;
origin = "{0, 28}";
target = "{0, 24}";
},
{
horizontal = 1;
origin = "{0, 34}";
target = "{0, 18}";
},
{
horizontal = 1;
origin = "{0, 46}";
target = "{0, 6}";
},
{
origin = "{0, 3}";
target = "{0, 2}";
}
);
layerId = "262880E7-CFE1-4BDA-902E-E24798F3240A";
paths = (
{
closed = 1;
nodes = (
"315 -8 OFFCURVE",
"378 44 OFFCURVE",
"397 118 CURVE",
"374 117 LINE",
"355 56 OFFCURVE",
"302 13 OFFCURVE",
"229 13 CURVE SMOOTH",
"149 13 OFFCURVE",
"94 63 OFFCURVE",
"81 135 CURVE SMOOTH",
"77 156 OFFCURVE",
"77 193 OFFCURVE",
"77 250 CURVE SMOOTH",
"77 302 OFFCURVE",
"77 343 OFFCURVE",
"81 365 CURVE SMOOTH",
"94 436 OFFCURVE",
"149 487 OFFCURVE",
"229 487 CURVE SMOOTH",
"309 487 OFFCURVE",
"365 436 OFFCURVE",
"378 365 CURVE SMOOTH",
"382 345 OFFCURVE",
"382 302 OFFCURVE",
"382 258 CURVE",
"391 267 LINE",
"67 267 LINE",
"67 246 LINE",
"404 246 LINE",
"404 332 OFFCURVE",
"404 350 OFFCURVE",
"398 377 CURVE SMOOTH",
"381 454 OFFCURVE",
"317 508 OFFCURVE",
"229 508 CURVE SMOOTH",
"141 508 OFFCURVE",
"78 454 OFFCURVE",
"61 377 CURVE SMOOTH",
"54 345 OFFCURVE",
"55 310 OFFCURVE",
"55 251 CURVE SMOOTH",
"55 195 OFFCURVE",
"54 156 OFFCURVE",
"61 123 CURVE SMOOTH",
"78 46 OFFCURVE",
"141 -8 OFFCURVE",
"229 -8 CURVE SMOOTH"
);
}
);
width = 459;
},
{
anchors = (
{
name = top;
position = "{268, 528}";
}
);
layerId = "FFFA8D72-12AC-4CE0-B2CA-57A29829F4DA";
paths = (
{
closed = 1;
nodes = (
"376 -8 OFFCURVE",
"446 23 OFFCURVE",
"501 81 CURVE",
"414 187 LINE",
"393 162 OFFCURVE",
"354 149 OFFCURVE",
"308 149 CURVE SMOOTH",
"252 149 OFFCURVE",
"224 169 OFFCURVE",
"214 193 CURVE SMOOTH",
"207 210 OFFCURVE",
"204 238 OFFCURVE",
"204 262 CURVE SMOOTH",
"204 287 OFFCURVE",
"207 309 OFFCURVE",
"214 327 CURVE SMOOTH",
"223 351 OFFCURVE",
"246 367 OFFCURVE",
"270 367 CURVE SMOOTH",
"296 367 OFFCURVE",
"317 351 OFFCURVE",
"326 327 CURVE SMOOTH",
"333 309 OFFCURVE",
"336 287 OFFCURVE",
"336 262 CURVE",
"407 305 LINE",
"150 305 LINE",
"150 213 LINE",
"525 213 LINE",
"525 298 OFFCURVE",
"517 343 OFFCURVE",
"506 373 CURVE SMOOTH",
"473 462 OFFCURVE",
"382 528 OFFCURVE",
"268 528 CURVE SMOOTH",
"162 528 OFFCURVE",
"72 471 OFFCURVE",
"35 375 CURVE SMOOTH",
"21 339 OFFCURVE",
"15 300 OFFCURVE",
"15 262 CURVE SMOOTH",
"15 219 OFFCURVE",
"23 181 OFFCURVE",
"35 149 CURVE SMOOTH",
"73 48 OFFCURVE",
"157 -8 OFFCURVE",
"283 -8 CURVE SMOOTH"
);
}
);
width = 540;
},
{
anchors = (
{
name = top;
position = "{223, 528}";
}
);
layerId = "4E2227F3-52E4-4048-A8EE-327B486EF0A4";
paths = (
{
closed = 1;
nodes = (
"364 -8 OFFCURVE",
"429 60 OFFCURVE",
"431 181 CURVE",
"248 192 LINE",
"248 176 OFFCURVE",
"242 153 OFFCURVE",
"223 153 CURVE SMOOTH",
"209 153 OFFCURVE",
"200 166 OFFCURVE",
"200 185 CURVE SMOOTH",
"200 210 OFFCURVE",
"200 235 OFFCURVE",
"200 260 CURVE SMOOTH",
"200 285 OFFCURVE",
"200 310 OFFCURVE",
"200 335 CURVE SMOOTH",
"200 354 OFFCURVE",
"209 367 OFFCURVE",
"223 367 CURVE SMOOTH",
"236 367 OFFCURVE",
"245 354 OFFCURVE",
"245 335 CURVE SMOOTH",
"245 316 OFFCURVE",
"245 298 OFFCURVE",
"245 279 CURVE",
"308 305 LINE",
"150 305 LINE",
"150 213 LINE",
"433 213 LINE",
"433 221 OFFCURVE",
"433 291 OFFCURVE",
"433 350 CURVE SMOOTH",
"433 456 OFFCURVE",
"357 528 OFFCURVE",
"223 528 CURVE SMOOTH",
"89 528 OFFCURVE",
"12 456 OFFCURVE",
"12 350 CURVE SMOOTH",
"12 327 OFFCURVE",
"12 283 OFFCURVE",
"12 260 CURVE SMOOTH",
"12 230 OFFCURVE",
"12 200 OFFCURVE",
"12 170 CURVE SMOOTH",
"12 57 OFFCURVE",
"89 -8 OFFCURVE",
"223 -8 CURVE SMOOTH"
);
}
);
width = 445;
},
{
anchors = (
{
name = top;
position = "{179, 508}";
}
);
layerId = "DCBE1F7B-116A-43E0-B7B4-8657BA77D8B5";
paths = (
{
closed = 1;
nodes = (
"250 -8 OFFCURVE",
"302 40 OFFCURVE",
"312 109 CURVE",
"290 108 LINE",
"280 51 OFFCURVE",
"237 13 OFFCURVE",
"179 13 CURVE SMOOTH",
"113 13 OFFCURVE",
"67 63 OFFCURVE",
"67 135 CURVE SMOOTH",
"67 173 OFFCURVE",
"67 212 OFFCURVE",
"67 250 CURVE SMOOTH",
"67 288 OFFCURVE",
"67 327 OFFCURVE",
"67 365 CURVE SMOOTH",
"67 437 OFFCURVE",
"113 487 OFFCURVE",
"179 487 CURVE SMOOTH",
"246 487 OFFCURVE",
"292 437 OFFCURVE",
"292 365 CURVE SMOOTH",
"292 327 OFFCURVE",
"292 288 OFFCURVE",
"292 261 CURVE",
"301 267 LINE",
"59 267 LINE",
"59 246 LINE",
"314 246 LINE",
"314 286 OFFCURVE",
"314 327 OFFCURVE",
"314 365 CURVE SMOOTH",
"314 448 OFFCURVE",
"259 508 OFFCURVE",
"179 508 CURVE SMOOTH",
"100 508 OFFCURVE",
"45 448 OFFCURVE",
"45 365 CURVE SMOOTH",
"45 327 OFFCURVE",
"45 288 OFFCURVE",
"45 250 CURVE SMOOTH",
"45 212 OFFCURVE",
"45 173 OFFCURVE",
"45 135 CURVE SMOOTH",
"45 52 OFFCURVE",
"100 -8 OFFCURVE",
"179 -8 CURVE SMOOTH"
);
}
);
width = 359;
},
{
anchors = (
{
name = top;
position = "{252, 528}";
}
);
associatedMasterId = "FFFA8D72-12AC-4CE0-B2CA-57A29829F4DA";
layerId = "C523A904-EA06-4FAF-AEC3-0CFA5C7EE4AC";
name = "Feb 19 17, 20:25";
paths = (
{
closed = 1;
nodes = (
"389 -7 OFFCURVE",
"479 61 OFFCURVE",
"485 162 CURVE",
"305 185 LINE",
"304 166 OFFCURVE",
"285 154 OFFCURVE",
"257 154 CURVE SMOOTH",
"222 154 OFFCURVE",
"198 188 OFFCURVE",
"198 239 CURVE SMOOTH",
"198 271 LINE SMOOTH",
"198 329 OFFCURVE",
"221 367 OFFCURVE",
"256 367 CURVE SMOOTH",
"289 367 OFFCURVE",
"311 338 OFFCURVE",
"311 294 CURVE",
"311 310 LINE",
"126 310 LINE",
"126 206 LINE",
"499 206 LINE",
"499 267 LINE SMOOTH",
"499 424 OFFCURVE",
"401 528 OFFCURVE",
"253 528 CURVE SMOOTH",
"107 528 OFFCURVE",
"10 428 OFFCURVE",
"10 277 CURVE SMOOTH",
"10 249 LINE SMOOTH",
"10 95 OFFCURVE",
"110 -7 OFFCURVE",
"259 -7 CURVE SMOOTH"
);
}
);
width = 509;
},
{
anchors = (
{
name = top;
position = "{226, 498}";
}
);
associatedMasterId = "262880E7-CFE1-4BDA-902E-E24798F3240A";
layerId = "2EFA006A-DDA3-4D17-BF31-C40C040EE571";
name = "Feb 24 17, 00:11";
paths = (
{
closed = 1;
nodes = (
"307 -8 OFFCURVE",
"370 42 OFFCURVE",
"385 116 CURVE",
"364 115 LINE",
"348 54 OFFCURVE",
"293 13 OFFCURVE",
"227 13 CURVE SMOOTH",
"137 13 OFFCURVE",
"77 81 OFFCURVE",
"77 182 CURVE SMOOTH",
"77 318 LINE SMOOTH",
"77 419 OFFCURVE",
"137 487 OFFCURVE",
"226 487 CURVE SMOOTH",
"316 487 OFFCURVE",
"376 419 OFFCURVE",
"376 318 CURVE SMOOTH",
"376 267 LINE",
"67 267 LINE",
"67 246 LINE",
"398 246 LINE",
"398 316 LINE SMOOTH",
"398 431 OFFCURVE",
"329 508 OFFCURVE",
"226 508 CURVE SMOOTH",
"123 508 OFFCURVE",
"55 432 OFFCURVE",
"55 317 CURVE SMOOTH",
"55 183 LINE SMOOTH",
"55 68 OFFCURVE",
"124 -8 OFFCURVE",
"227 -8 CURVE SMOOTH"
);
}
);
width = 453;
},
{
anchors = (
{
name = top;
position = "{252, 528}";
}
);
associatedMasterId = "FFFA8D72-12AC-4CE0-B2CA-57A29829F4DA";
layerId = "FDC1E1ED-A095-4F4A-B02A-1ACC860B025E";
name = "Feb 24 17, 00:13";
paths = (
{
closed = 1;
nodes = (
"390 -7 OFFCURVE",
"474 57 OFFCURVE",
"501 173 CURVE",
"313 194 LINE",
"304 168 OFFCURVE",
"287 154 OFFCURVE",
"260 154 CURVE SMOOTH",
"216 154 OFFCURVE",
"198 193 OFFCURVE",
"198 263 CURVE SMOOTH",
"198 263 LINE SMOOTH",
"198 328 OFFCURVE",
"216 367 OFFCURVE",
"260 367 CURVE SMOOTH",
"303 367 OFFCURVE",
"321 330 OFFCURVE",
"322 269 CURVE",
"322 306 LINE",
"162 306 LINE",
"162 219 LINE",
"510 219 LINE",
"510 263 LINE SMOOTH",
"510 435 OFFCURVE",
"420 528 OFFCURVE",
"260 528 CURVE SMOOTH",
"100 528 OFFCURVE",
"10 435 OFFCURVE",
"10 263 CURVE SMOOTH",
"10 263 LINE SMOOTH",
"10 90 OFFCURVE",
"100 -7 OFFCURVE",
"260 -7 CURVE SMOOTH"
);
}
);
width = 520;
},
{
anchors = (
{
name = top;
position = "{260, 528}";
}
);
associatedMasterId = "FFFA8D72-12AC-4CE0-B2CA-57A29829F4DA";
layerId = "5A86ED49-1A07-4A08-ACBE-BDE77E6ADA45";
name = "Feb 24 17, 00:19";
paths = (
{
closed = 1;
nodes = (
"510 219 LINE",
"510 284 OFFCURVE",
"510 327 OFFCURVE",
"490 381 CURVE SMOOTH",
"454 476 OFFCURVE",
"372 528 OFFCURVE",
"260 528 CURVE SMOOTH",
"148 528 OFFCURVE",
"66 476 OFFCURVE",
"30 381 CURVE SMOOTH",
"17 346 OFFCURVE",
"10 307 OFFCURVE",
"10 263 CURVE SMOOTH",
"10 219 OFFCURVE",
"17 179 OFFCURVE",
"30 144 CURVE SMOOTH",
"66 49 OFFCURVE",
"148 -8 OFFCURVE",
"260 -8 CURVE SMOOTH",
"384 -8 OFFCURVE",
"454 48 OFFCURVE",
"499 172 CURVE",
"313 193 LINE",
"302 168 OFFCURVE",
"289 154 OFFCURVE",
"260 154 CURVE SMOOTH",
"235 154 OFFCURVE",
"219 166 OFFCURVE",
"210 186 CURVE SMOOTH",
"201 206 OFFCURVE",
"198 233 OFFCURVE",
"198 263 CURVE SMOOTH",
"198 302 OFFCURVE",
"200 320 OFFCURVE",
"210 340 CURVE SMOOTH",
"220 359 OFFCURVE",
"235 371 OFFCURVE",
"260 371 CURVE SMOOTH",
"285 371 OFFCURVE",
"300 359 OFFCURVE",
"310 340 CURVE SMOOTH",
"316 328 OFFCURVE",
"319 313 OFFCURVE",
"321 296 CURVE",
"194 296 LINE",
"194 219 LINE"
);
}
);
width = 520;
},
{
anchors = (
{
name = top;
position = "{223, 528}";
}
);
associatedMasterId = "4E2227F3-52E4-4048-A8EE-327B486EF0A4";
layerId = "1607DCD5-9BA9-4F8D-B5DF-80154018F12C";
name = "Feb 24 17, 00:20";
paths = (
{
closed = 1;
nodes = (
"358 -7 OFFCURVE",
"429 67 OFFCURVE",
"428 181 CURVE",
"247 193 LINE",
"246 168 OFFCURVE",
"238 154 OFFCURVE",
"224 154 CURVE SMOOTH",
"207 154 OFFCURVE",
"198 168 OFFCURVE",
"198 193 CURVE SMOOTH",
"198 332 LINE SMOOTH",
"198 354 OFFCURVE",
"207 367 OFFCURVE",
"223 367 CURVE SMOOTH",
"238 367 OFFCURVE",
"247 354 OFFCURVE",
"247 332 CURVE SMOOTH",
"247 303 LINE",
"126 303 LINE",
"126 215 LINE",
"435 215 LINE",
"435 331 LINE SMOOTH",
"435 457 OFFCURVE",
"359 528 OFFCURVE",
"223 528 CURVE SMOOTH",
"87 528 OFFCURVE",
"10 457 OFFCURVE",
"10 331 CURVE SMOOTH",
"10 189 LINE SMOOTH",
"10 64 OFFCURVE",
"87 -7 OFFCURVE",
"223 -7 CURVE SMOOTH"
);
}
);
width = 445;
},
{
anchors = (
{
name = top;
position = "{203, 517}";
}
);
associatedMasterId = "4E2227F3-52E4-4048-A8EE-327B486EF0A4";
layerId = "A53D93E6-92CC-45B1-8880-653E9256B646";
name = "100,3} Feb 24 17, 00:22";
paths = (
{
closed = 1;
nodes = (
"303 -8 OFFCURVE",
"372 48 OFFCURVE",
"379 141 CURVE",
"280 143 LINE",
"272 102 OFFCURVE",
"241 79 OFFCURVE",
"204 79 CURVE SMOOTH",
"156 79 OFFCURVE",
"125 115 OFFCURVE",
"125 173 CURVE SMOOTH",
"125 339 LINE SMOOTH",
"125 395 OFFCURVE",
"156 431 OFFCURVE",
"203 431 CURVE SMOOTH",
"251 431 OFFCURVE",
"281 395 OFFCURVE",
"281 339 CURVE SMOOTH",
"281 298 LINE",
"86 298 LINE",
"86 215 LINE",
"381 215 LINE",
"381 337 LINE SMOOTH",
"381 449 OFFCURVE",
"314 517 OFFCURVE",
"203 517 CURVE SMOOTH",
"94 517 OFFCURVE",
"26 449 OFFCURVE",
"26 338 CURVE SMOOTH",
"26 171 LINE SMOOTH",
"26 61 OFFCURVE",
"93 -8 OFFCURVE",
"204 -8 CURVE SMOOTH"
);
}
);
width = 409;
},
{
anchors = (
{
name = top;
position = "{235, 517}";
}
);
associatedMasterId = "4E2227F3-52E4-4048-A8EE-327B486EF0A4";
layerId = "A47C68F1-3740-4053-814E-50DA5F989A02";
name = "100,5} Feb 24 17, 00:22";
paths = (
{
closed = 1;
nodes = (
"345 -8 OFFCURVE",
"415 47 OFFCURVE",
"436 143 CURVE",
"338 152 LINE",
"324 106 OFFCURVE",
"289 79 OFFCURVE",
"240 79 CURVE SMOOTH",
"169 79 OFFCURVE",
"131 134 OFFCURVE",
"131 230 CURVE SMOOTH",
"131 282 LINE SMOOTH",
"131 377 OFFCURVE",
"169 433 OFFCURVE",
"239 433 CURVE SMOOTH",
"309 433 OFFCURVE",
"348 378 OFFCURVE",
"348 284 CURVE",
"348 296 LINE",
"109 296 LINE",
"109 211 LINE",
"448 211 LINE",
"448 281 LINE SMOOTH",
"448 432 OFFCURVE",
"371 519 OFFCURVE",
"239 519 CURVE SMOOTH",
"107 519 OFFCURVE",
"31 432 OFFCURVE",
"31 281 CURVE SMOOTH",
"31 231 LINE SMOOTH",
"31 79 OFFCURVE",
"107 -8 OFFCURVE",
"240 -8 CURVE SMOOTH"
);
}
);
width = 479;
},
{
anchors = (
{
name = top;
position = "{243, 522}";
}
);
associatedMasterId = "4E2227F3-52E4-4048-A8EE-327B486EF0A4";
layerId = "5954086A-CF98-4407-B6DE-F8A05521AEBF";
name = "140,5} Feb 24 17, 00:22";
paths = (
{
closed = 1;
nodes = (
"365 -8 OFFCURVE",
"442 52 OFFCURVE",
"466 157 CURVE",
"327 171 LINE",
"315 134 OFFCURVE",
"288 113 OFFCURVE",
"249 113 CURVE SMOOTH",
"190 113 OFFCURVE",
"161 161 OFFCURVE",
"161 245 CURVE SMOOTH",
"161 273 LINE SMOOTH",
"161 357 OFFCURVE",
"190 405 OFFCURVE",
"249 405 CURVE SMOOTH",
"306 405 OFFCURVE",
"336 358 OFFCURVE",
"336 277 CURVE",
"336 308 LINE",
"133 308 LINE",
"133 213 LINE",
"476 213 LINE",
"476 273 LINE SMOOTH",
"476 433 OFFCURVE",
"393 525 OFFCURVE",
"249 525 CURVE SMOOTH",
"104 525 OFFCURVE",
"21 433 OFFCURVE",
"21 273 CURVE SMOOTH",
"21 246 LINE SMOOTH",
"21 84 OFFCURVE",
"104 -8 OFFCURVE",
"249 -8 CURVE SMOOTH"
);
}
);
width = 498;
},
{
anchors = (
{
name = top;
position = "{216, 525}";
}
);
associatedMasterId = "4E2227F3-52E4-4048-A8EE-327B486EF0A4";
layerId = "6A71C6C0-6498-4E03-A0EC-57F8322562B8";
name = "{166,3}";
paths = (
{
closed = 1;
nodes = (
"347 -8 OFFCURVE",
"411 57 OFFCURVE",
"414 171 CURVE",
"252 181 LINE",
"251 159 OFFCURVE",
"240 134 OFFCURVE",
"216 134 CURVE SMOOTH",
"195 134 OFFCURVE",
"181 152 OFFCURVE",
"181 178 CURVE SMOOTH",
"181 205 OFFCURVE",
"181 232 OFFCURVE",
"181 259 CURVE SMOOTH",
"181 285 OFFCURVE",
"181 312 OFFCURVE",
"181 339 CURVE SMOOTH",
"181 365 OFFCURVE",
"195 383 OFFCURVE",
"216 383 CURVE SMOOTH",
"236 383 OFFCURVE",
"250 365 OFFCURVE",
"250 339 CURVE SMOOTH",
"250 317 OFFCURVE",
"250 297 OFFCURVE",
"250 277 CURVE",
"306 310 LINE",
"137 310 LINE",
"137 210 LINE",
"416 210 LINE",
"416 223 OFFCURVE",
"416 296 OFFCURVE",
"416 352 CURVE SMOOTH",
"416 455 OFFCURVE",
"343 525 OFFCURVE",
"216 525 CURVE SMOOTH",
"89 525 OFFCURVE",
"15 455 OFFCURVE",
"15 352 CURVE SMOOTH",
"15 327 OFFCURVE",
"15 284 OFFCURVE",
"15 259 CURVE SMOOTH",
"15 228 OFFCURVE",
"15 196 OFFCURVE",
"15 165 CURVE SMOOTH",
"15 56 OFFCURVE",
"89 -8 OFFCURVE",
"216 -8 CURVE SMOOTH"
);
}
);
width = 431;
visible = 1;
},
{
anchors = (
{
name = top;
position = "{260, 525}";
}
);
associatedMasterId = "4E2227F3-52E4-4048-A8EE-327B486EF0A4";
hints = (
{
origin = "{0, 40}";
target = "{0, 12}";
},
{
origin = "{0, 24}";
target = "{0, 28}";
},
{
horizontal = 1;
origin = "{0, 28}";
target = "{0, 24}";
},
{
horizontal = 1;
origin = "{0, 34}";
target = "{0, 18}";
},
{
horizontal = 1;
origin = "{0, 46}";
target = "{0, 6}";
},
{
origin = "{0, 25}";
target = "{0, 2}";
}
);
layerId = "E8CA071A-13DC-4AE8-9510-CE5451652C21";
name = "{166,5}";
paths = (
{
closed = 1;
nodes = (
"359 -8 OFFCURVE",
"436 18 OFFCURVE",
"477 61 CURVE",
"422 176 LINE",
"378 141 OFFCURVE",
"342 134 OFFCURVE",
"309 134 CURVE SMOOTH",
"225 134 OFFCURVE",
"204 159 OFFCURVE",
"193 185 CURVE SMOOTH",
"185 203 OFFCURVE",
"184 232 OFFCURVE",
"184 260 CURVE SMOOTH",
"184 289 OFFCURVE",
"187 314 OFFCURVE",
"193 332 CURVE SMOOTH",
"203 362 OFFCURVE",
"230 383 OFFCURVE",
"262 383 CURVE SMOOTH",
"295 383 OFFCURVE",
"320 362 OFFCURVE",
"330 332 CURVE SMOOTH",
"337 314 OFFCURVE",
"339 289 OFFCURVE",
"339 261 CURVE",
"402 310 LINE",
"136 310 LINE",
"136 202 LINE",
"506 202 LINE",
"506 288 OFFCURVE",
"499 344 OFFCURVE",
"489 374 CURVE SMOOTH",
"458 461 OFFCURVE",
"370 525 OFFCURVE",
"260 525 CURVE SMOOTH",
"156 525 OFFCURVE",
"70 469 OFFCURVE",
"35 375 CURVE SMOOTH",
"22 340 OFFCURVE",
"17 301 OFFCURVE",
"17 261 CURVE SMOOTH",
"17 216 OFFCURVE",
"24 178 OFFCURVE",
"35 146 CURVE SMOOTH",
"71 48 OFFCURVE",
"151 -8 OFFCURVE",
"275 -8 CURVE SMOOTH"
);
}
);
width = 523;
visible = 1;
},
{
anchors = (
{
name = top;
position = "{260, 528}";
}
);
associatedMasterId = "FFFA8D72-12AC-4CE0-B2CA-57A29829F4DA";
layerId = "76D52448-D1B4-4691-A635-AFF5EA335E05";
name = "Feb 24 17, 16:07";
paths = (
{
closed = 1;
nodes = (
"382 -8 OFFCURVE",
"466 49 OFFCURVE",
"501 172 CURVE",
"317 192 LINE",
"306 167 OFFCURVE",
"291 153 OFFCURVE",
"261 153 CURVE SMOOTH",
"235 153 OFFCURVE",
"217 165 OFFCURVE",
"209 185 CURVE SMOOTH",
"201 205 OFFCURVE",
"198 232 OFFCURVE",
"198 262 CURVE SMOOTH",
"198 305 OFFCURVE",
"200 318 OFFCURVE",
"209 336 CURVE SMOOTH",
"219 355 OFFCURVE",
"235 367 OFFCURVE",
"260 367 CURVE SMOOTH",
"285 367 OFFCURVE",
"301 355 OFFCURVE",
"311 336 CURVE SMOOTH",
"317 324 OFFCURVE",
"320 312 OFFCURVE",
"321 305 CURVE",
"194 305 LINE",
"194 221 LINE",
"510 221 LINE",
"510 279 OFFCURVE",
"510 327 OFFCURVE",
"490 381 CURVE SMOOTH",
"454 476 OFFCURVE",
"372 528 OFFCURVE",
"260 528 CURVE SMOOTH",
"148 528 OFFCURVE",
"66 476 OFFCURVE",
"30 381 CURVE SMOOTH",
"17 346 OFFCURVE",
"10 307 OFFCURVE",
"10 263 CURVE SMOOTH",
"10 219 OFFCURVE",
"17 179 OFFCURVE",
"30 144 CURVE SMOOTH",
"66 49 OFFCURVE",
"146 -8 OFFCURVE",
"264 -8 CURVE SMOOTH"
);
}
);
width = 520;
},
{
anchors = (
{
name = top;
position = "{260, 528}";
}
);
associatedMasterId = "FFFA8D72-12AC-4CE0-B2CA-57A29829F4DA";
layerId = "FB4BB15E-EC4F-4C4F-8BD5-8A571EB496CE";
name = "Feb 24 17, 16:07";
paths = (
{
closed = 1;
nodes = (
"382 -8 OFFCURVE",
"466 49 OFFCURVE",
"501 172 CURVE",
"317 192 LINE",
"306 167 OFFCURVE",
"291 153 OFFCURVE",
"261 153 CURVE SMOOTH",
"235 153 OFFCURVE",
"217 165 OFFCURVE",
"209 185 CURVE SMOOTH",
"201 205 OFFCURVE",
"198 232 OFFCURVE",
"198 262 CURVE SMOOTH",
"198 305 OFFCURVE",
"200 318 OFFCURVE",
"209 336 CURVE SMOOTH",
"219 355 OFFCURVE",
"235 367 OFFCURVE",
"260 367 CURVE SMOOTH",
"285 367 OFFCURVE",
"301 355 OFFCURVE",
"311 336 CURVE SMOOTH",
"317 324 OFFCURVE",
"320 312 OFFCURVE",
"321 305 CURVE",
"194 305 LINE",
"194 221 LINE",
"510 221 LINE",
"510 279 OFFCURVE",
"510 327 OFFCURVE",
"490 381 CURVE SMOOTH",
"454 476 OFFCURVE",
"372 528 OFFCURVE",
"260 528 CURVE SMOOTH",
"148 528 OFFCURVE",
"66 476 OFFCURVE",
"30 381 CURVE SMOOTH",
"17 346 OFFCURVE",
"10 307 OFFCURVE",
"10 263 CURVE SMOOTH",
"10 219 OFFCURVE",
"17 179 OFFCURVE",
"30 144 CURVE SMOOTH",
"66 49 OFFCURVE",
"146 -8 OFFCURVE",
"264 -8 CURVE SMOOTH"
);
}
);
width = 520;
},
{
anchors = (
{
name = top;
position = "{260, 528}";
}
);
associatedMasterId = "FFFA8D72-12AC-4CE0-B2CA-57A29829F4DA";
layerId = "508D10E2-9AA1-4CA2-8633-0B44D5E80ED3";
name = "Feb 24 17, 16:07";
paths = (
{
closed = 1;
nodes = (
"382 -8 OFFCURVE",
"466 49 OFFCURVE",
"501 172 CURVE",
"317 192 LINE",
"306 167 OFFCURVE",
"291 153 OFFCURVE",
"261 153 CURVE SMOOTH",
"235 153 OFFCURVE",
"217 165 OFFCURVE",
"209 185 CURVE SMOOTH",
"201 205 OFFCURVE",
"198 232 OFFCURVE",
"198 262 CURVE SMOOTH",
"198 305 OFFCURVE",
"200 318 OFFCURVE",
"209 336 CURVE SMOOTH",
"219 355 OFFCURVE",
"235 367 OFFCURVE",
"260 367 CURVE SMOOTH",
"285 367 OFFCURVE",
"301 355 OFFCURVE",
"311 336 CURVE SMOOTH",
"317 324 OFFCURVE",
"320 312 OFFCURVE",
"321 305 CURVE",
"194 305 LINE",
"194 221 LINE",
"510 221 LINE",
"510 279 OFFCURVE",
"510 327 OFFCURVE",
"490 381 CURVE SMOOTH",
"454 476 OFFCURVE",
"372 528 OFFCURVE",
"260 528 CURVE SMOOTH",
"148 528 OFFCURVE",
"66 476 OFFCURVE",
"30 381 CURVE SMOOTH",
"17 346 OFFCURVE",
"10 307 OFFCURVE",
"10 263 CURVE SMOOTH",
"10 219 OFFCURVE",
"17 179 OFFCURVE",
"30 144 CURVE SMOOTH",
"66 49 OFFCURVE",
"146 -8 OFFCURVE",
"264 -8 CURVE SMOOTH"
);
}
);
width = 520;
},
{
anchors = (
{
name = top;
position = "{260, 528}";
}
);
associatedMasterId = "FFFA8D72-12AC-4CE0-B2CA-57A29829F4DA";
layerId = "597A1CD8-EC27-4335-B9E3-3E535B12BDCF";
name = "Feb 24 17, 16:07";
paths = (
{
closed = 1;
nodes = (
"382 -8 OFFCURVE",
"466 49 OFFCURVE",
"501 172 CURVE",
"317 192 LINE",
"306 167 OFFCURVE",
"291 153 OFFCURVE",
"261 153 CURVE SMOOTH",
"235 153 OFFCURVE",
"217 165 OFFCURVE",
"209 185 CURVE SMOOTH",
"201 205 OFFCURVE",
"198 232 OFFCURVE",
"198 262 CURVE SMOOTH",
"198 305 OFFCURVE",
"200 318 OFFCURVE",
"209 336 CURVE SMOOTH",
"219 355 OFFCURVE",
"235 367 OFFCURVE",
"260 367 CURVE SMOOTH",
"285 367 OFFCURVE",
"301 355 OFFCURVE",
"311 336 CURVE SMOOTH",
"317 324 OFFCURVE",
"320 312 OFFCURVE",
"321 305 CURVE",
"194 305 LINE",
"194 221 LINE",
"510 221 LINE",
"510 279 OFFCURVE",
"510 327 OFFCURVE",
"490 381 CURVE SMOOTH",
"454 476 OFFCURVE",
"372 528 OFFCURVE",
"260 528 CURVE SMOOTH",
"148 528 OFFCURVE",
"66 476 OFFCURVE",
"30 381 CURVE SMOOTH",
"17 346 OFFCURVE",
"10 307 OFFCURVE",
"10 263 CURVE SMOOTH",
"10 219 OFFCURVE",
"17 179 OFFCURVE",
"30 144 CURVE SMOOTH",
"66 49 OFFCURVE",
"146 -8 OFFCURVE",
"264 -8 CURVE SMOOTH"
);
}
);
width = 520;
},
{
anchors = (
{
name = top;
position = "{223, 532}";
}
);
associatedMasterId = "4E2227F3-52E4-4048-A8EE-327B486EF0A4";
layerId = "A2BBABA4-A182-4348-8C30-8AD760BED60C";
name = "Mar 6 17, 05:03";
paths = (
{
closed = 1;
nodes = (
"357 -8 OFFCURVE",
"435 54 OFFCURVE",
"435 175 CURVE",
"247 192 LINE",
"246 172 OFFCURVE",
"244 153 OFFCURVE",
"223 153 CURVE SMOOTH",
"215 153 OFFCURVE",
"207 157 OFFCURVE",
"204 163 CURVE",
"198 174 OFFCURVE",
"198 325 OFFCURVE",
"198 260 CURVE SMOOTH",
"198 236 OFFCURVE",
"197 348 OFFCURVE",
"204 360 CURVE",
"208 366 OFFCURVE",
"214 371 OFFCURVE",
"223 371 CURVE SMOOTH",
"231 371 OFFCURVE",
"239 366 OFFCURVE",
"242 360 CURVE",
"249 348 OFFCURVE",
"247 332 OFFCURVE",
"247 260 CURVE",
"323 303 LINE",
"162 303 LINE",
"162 215 LINE",
"435 215 LINE",
"435 270 OFFCURVE",
"435 294 OFFCURVE",
"435 350 CURVE SMOOTH",
"435 456 OFFCURVE",
"359 532 OFFCURVE",
"223 532 CURVE SMOOTH",
"87 532 OFFCURVE",
"10 456 OFFCURVE",
"10 350 CURVE SMOOTH",
"10 327 OFFCURVE",
"10 283 OFFCURVE",
"10 260 CURVE SMOOTH",
"10 230 OFFCURVE",
"10 200 OFFCURVE",
"10 170 CURVE SMOOTH",
"10 57 OFFCURVE",
"87 -8 OFFCURVE",
"223 -8 CURVE SMOOTH"
);
}
);
width = 445;
visible = 1;
},
{
anchors = (
{
name = top;
position = "{239, 517}";
}
);
associatedMasterId = "4E2227F3-52E4-4048-A8EE-327B486EF0A4";
hints = (
{
origin = "{0, 40}";
target = "{0, 12}";
},
{
origin = "{0, 24}";
target = "{0, 28}";
},
{
horizontal = 1;
origin = "{0, 28}";
target = "{0, 24}";
},
{
horizontal = 1;
origin = "{0, 34}";
target = "{0, 18}";
},
{
horizontal = 1;
origin = "{0, 46}";
target = "{0, 6}";
},
{
origin = "{0, 25}";
target = "{0, 28}";
}
);
layerId = "2A2B9E74-0281-441B-9A83-648CC11D66AE";
name = "{100,5}";
paths = (
{
closed = 1;
nodes = (
"336 -8 OFFCURVE",
"410 33 OFFCURVE",
"443 103 CURVE",
"370 151 LINE",
"351 105 OFFCURVE",
"308 78 OFFCURVE",
"254 78 CURVE SMOOTH",
"192 78 OFFCURVE",
"148 109 OFFCURVE",
"135 163 CURVE SMOOTH",
"128 189 OFFCURVE",
"124 223 OFFCURVE",
"124 255 CURVE SMOOTH",
"124 285 OFFCURVE",
"128 319 OFFCURVE",
"135 347 CURVE SMOOTH",
"147 400 OFFCURVE",
"186 431 OFFCURVE",
"240 431 CURVE SMOOTH",
"294 431 OFFCURVE",
"333 400 OFFCURVE",
"346 347 CURVE SMOOTH",
"350 333 OFFCURVE",
"352 300 OFFCURVE",
"352 260 CURVE",
"391 297 LINE",
"98 297 LINE",
"98 212 LINE",
"453 212 LINE",
"453 284 OFFCURVE",
"449 349 OFFCURVE",
"441 375 CURVE SMOOTH",
"414 464 OFFCURVE",
"339 517 OFFCURVE",
"239 517 CURVE SMOOTH",
"141 517 OFFCURVE",
"68 465 OFFCURVE",
"41 376 CURVE SMOOTH",
"30 343 OFFCURVE",
"24 298 OFFCURVE",
"24 256 CURVE SMOOTH",
"24 215 OFFCURVE",
"30 170 OFFCURVE",
"41 135 CURVE SMOOTH",
"69 45 OFFCURVE",
"144 -8 OFFCURVE",
"245 -8 CURVE SMOOTH"
);
}
);
width = 477;
visible = 1;
},
{
anchors = (
{
name = top;
position = "{194, 517}";
}
);
associatedMasterId = "4E2227F3-52E4-4048-A8EE-327B486EF0A4";
layerId = "08201EB5-B49F-440A-802B-CA47CCD12539";
name = "{100,3}";
paths = (
{
closed = 1;
nodes = (
"298 -8 OFFCURVE",
"356 49 OFFCURVE",
"362 142 CURVE",
"265 147 LINE",
"260 109 OFFCURVE",
"234 78 OFFCURVE",
"194 78 CURVE SMOOTH",
"153 78 OFFCURVE",
"124 111 OFFCURVE",
"124 158 CURVE SMOOTH",
"124 190 OFFCURVE",
"124 223 OFFCURVE",
"124 255 CURVE SMOOTH",
"124 286 OFFCURVE",
"124 319 OFFCURVE",
"124 351 CURVE SMOOTH",
"124 398 OFFCURVE",
"153 431 OFFCURVE",
"194 431 CURVE SMOOTH",
"236 431 OFFCURVE",
"265 398 OFFCURVE",
"265 351 CURVE SMOOTH",
"265 322 OFFCURVE",
"265 293 OFFCURVE",
"265 270 CURVE",
"299 296 LINE",
"96 296 LINE",
"96 211 LINE",
"364 211 LINE",
"364 236 OFFCURVE",
"364 310 OFFCURVE",
"364 358 CURVE SMOOTH",
"364 452 OFFCURVE",
"300 517 OFFCURVE",
"194 517 CURVE SMOOTH",
"89 517 OFFCURVE",
"24 452 OFFCURVE",
"24 358 CURVE SMOOTH",
"24 327 OFFCURVE",
"24 286 OFFCURVE",
"24 255 CURVE SMOOTH",
"24 221 OFFCURVE",
"24 185 OFFCURVE",
"24 151 CURVE SMOOTH",
"24 54 OFFCURVE",
"89 -8 OFFCURVE",
"194 -8 CURVE SMOOTH"
);
}
);
width = 389;
},
{
anchors = (
{
name = top;
position = "{238, 525}";
}
);
associatedMasterId = "DCBE1F7B-116A-43E0-B7B4-8657BA77D8B5";
hints = (
{
origin = "{0, 40}";
target = "{0, 12}";
},
{
origin = "{0, 24}";
target = "{0, 28}";
},
{
horizontal = 1;
origin = "{0, 28}";
target = "{0, 24}";
},
{
horizontal = 1;
origin = "{0, 34}";
target = "{0, 18}";
},
{
horizontal = 1;
origin = "{0, 46}";
target = "{0, 6}";
},
{
origin = "{0, 25}";
target = "{0, 2}";
}
);
layerId = "DFA1BEED-08E5-4328-AC15-805F6F7DFFB0";
name = "{166,4}";
paths = (
{
closed = 1;
nodes = (
"356 -8 OFFCURVE",
"414 32 OFFCURVE",
"451 116 CURVE",
"324 179 LINE",
"305 143 OFFCURVE",
"284 134 OFFCURVE",
"256 134 CURVE SMOOTH",
"213 134 OFFCURVE",
"193 156 OFFCURVE",
"187 182 CURVE SMOOTH",
"183 204 OFFCURVE",
"183 232 OFFCURVE",
"183 260 CURVE SMOOTH",
"183 287 OFFCURVE",
"184 313 OFFCURVE",
"187 336 CURVE SMOOTH",
"192 364 OFFCURVE",
"213 383 OFFCURVE",
"239 383 CURVE SMOOTH",
"266 383 OFFCURVE",
"285 364 OFFCURVE",
"290 336 CURVE SMOOTH",
"294 316 OFFCURVE",
"295 293 OFFCURVE",
"295 269 CURVE",
"354 310 LINE",
"137 310 LINE",
"137 206 LINE",
"461 206 LINE",
"461 256 OFFCURVE",
"458 320 OFFCURVE",
"453 363 CURVE SMOOTH",
"437 458 OFFCURVE",
"357 525 OFFCURVE",
"238 525 CURVE SMOOTH",
"123 525 OFFCURVE",
"43 462 OFFCURVE",
"25 364 CURVE SMOOTH",
"19 334 OFFCURVE",
"16 293 OFFCURVE",
"16 260 CURVE SMOOTH",
"16 222 OFFCURVE",
"20 187 OFFCURVE",
"25 156 CURVE SMOOTH",
"43 52 OFFCURVE",
"118 -8 OFFCURVE",
"249 -8 CURVE SMOOTH"
);
}
);
width = 477;
}
);
leftKerningGroup = o;
rightKerningGroup = e;
unicode = 0065;
},
{
color = 3;
glyphname = f;
lastChange = "2017-03-10 11:08:17 +0000";
layers = (
{
hints = (
{
horizontal = 1;
origin = "{1, 1}";
target = "{1, 0}";
},
{
horizontal = 1;
origin = "{0, 5}";
target = "{0, 6}";
},
{
origin = "{0, 10}";
target = "{0, 1}";
}
);
layerId = "262880E7-CFE1-4BDA-902E-E24798F3240A";
paths = (
{
closed = 1;
nodes = (
"143 0 LINE",
"143 540 LINE SMOOTH",
"143 627 OFFCURVE",
"161 679 OFFCURVE",
"254 679 CURVE SMOOTH",
"285 679 LINE",
"285 700 LINE",
"254 700 LINE SMOOTH",
"148 700 OFFCURVE",
"121 640 OFFCURVE",
"121 540 CURVE SMOOTH",
"121 0 LINE"
);
},
{
closed = 1;
nodes = (
"280 479 LINE",
"280 500 LINE",
"44 500 LINE",
"44 479 LINE"
);
}
);
width = 313;
},
{
layerId = "4E2227F3-52E4-4048-A8EE-327B486EF0A4";
paths = (
{
closed = 1;
nodes = (
"237 0 LINE",
"237 539 LINE SMOOTH",
"237 557 OFFCURVE",
"250 572 OFFCURVE",
"274 575 CURVE",
"281 575 LINE",
"281 700 LINE",
"274 700 LINE",
"132 707 OFFCURVE",
"49 683 OFFCURVE",
"49 556 CURVE SMOOTH",
"49 0 LINE"
);
},
{
closed = 1;
nodes = (
"295 390 LINE",
"295 520 LINE",
"8 520 LINE",
"8 390 LINE"
);
}
);
width = 301;
},
{
layerId = "FFFA8D72-12AC-4CE0-B2CA-57A29829F4DA";
paths = (
{
closed = 1;
nodes = (
"271 0 LINE",
"271 539 LINE SMOOTH",
"271 562 OFFCURVE",
"281 572 OFFCURVE",
"308 575 CURVE",
"365 575 LINE",
"365 700 LINE",
"308 700 LINE",
"146 708 OFFCURVE",
"83 668 OFFCURVE",
"83 556 CURVE SMOOTH",
"83 0 LINE"
);
},
{
closed = 1;
nodes = (
"379 370 LINE",
"379 520 LINE",
"12 520 LINE",
"12 370 LINE"
);
}
);
width = 388;
},
{
layerId = "DCBE1F7B-116A-43E0-B7B4-8657BA77D8B5";
paths = (
{
closed = 1;
nodes = (
"118 0 LINE",
"118 550 LINE SMOOTH",
"118 637 OFFCURVE",
"131 689 OFFCURVE",
"201 689 CURVE SMOOTH",
"226 689 LINE",
"226 710 LINE",
"200 710 LINE SMOOTH",
"118 710 OFFCURVE",
"96 650 OFFCURVE",
"96 550 CURVE SMOOTH",
"96 0 LINE"
);
},
{
closed = 1;
nodes = (
"222 479 LINE",
"222 500 LINE",
"36 500 LINE",
"36 479 LINE"
);
}
);
width = 242;
},
{
associatedMasterId = "FFFA8D72-12AC-4CE0-B2CA-57A29829F4DA";
layerId = "2C93A357-82AB-483E-BCC8-F28359C8C182";
name = "{100,5}";
paths = (
{
closed = 1;
nodes = (
"210 0 LINE",
"210 524 LINE",
"210 593 OFFCURVE",
"229 613 OFFCURVE",
"294 613 CURVE SMOOTH",
"328 613 LINE",
"328 700 LINE",
"284 700 LINE SMOOTH",
"150 700 OFFCURVE",
"110 661 OFFCURVE",
"110 530 CURVE",
"110 0 LINE"
);
},
{
closed = 1;
nodes = (
"328 418 LINE",
"328 510 LINE",
"29 510 LINE",
"29 418 LINE"
);
}
);
width = 350;
}
);
leftKerningGroup = t;
unicode = 0066;
},
{
glyphname = g;
lastChange = "2017-03-08 11:35:53 +0000";
layers = (
{
components = (
{
name = b.bowl;
transform = "{-1, 0, 0, 1, 397, 0}";
}
);
hints = (
{
origin = "{0, 4}";
target = "{0, 3}";
},
{
horizontal = 1;
origin = "{0, 9}";
target = "{0, 8}";
}
);
layerId = "262880E7-CFE1-4BDA-902E-E24798F3240A";
paths = (
{
closed = 1;
nodes = (
"327 -206 OFFCURVE",
"400 -132 OFFCURVE",
"400 0 CURVE SMOOTH",
"400 500 LINE",
"378 500 LINE",
"378 0 LINE SMOOTH",
"378 -118 OFFCURVE",
"313 -184 OFFCURVE",
"202 -179 CURVE",
"202 -200 LINE"
);
}
);
width = 488;
},
{
components = (
{
name = b.bowl;
transform = "{-1, 0, 0, 1, 277, 0}";
}
);
layerId = "4E2227F3-52E4-4048-A8EE-327B486EF0A4";
paths = (
{
closed = 1;
nodes = (
"377 -233 OFFCURVE",
"430 -115 OFFCURVE",
"430 34 CURVE SMOOTH",
"430 520 LINE",
"242 520 LINE",
"242 54 LINE SMOOTH",
"242 -14 OFFCURVE",
"235 -56 OFFCURVE",
"90 -45 CURVE",
"90 -207 LINE"
);
}
);
width = 446;
},
{
components = (
{
name = b.bowl;
transform = "{-1, 0, 0, 1, 379, 0}";
}
);
layerId = "FFFA8D72-12AC-4CE0-B2CA-57A29829F4DA";
paths = (
{
closed = 1;
nodes = (
"372 -231 OFFCURVE",
"508 -152 OFFCURVE",
"508 34 CURVE SMOOTH",
"508 520 LINE",
"320 520 LINE",
"320 21 LINE SMOOTH",
"320 -41 OFFCURVE",
"248 -62 OFFCURVE",
"108 -44 CURVE",
"108 -200 LINE"
);
}
);
width = 532;
},
{
components = (
{
name = b.bowl;
transform = "{-1, 0, 0, 1, 305, 0}";
}
);
layerId = "DCBE1F7B-116A-43E0-B7B4-8657BA77D8B5";
paths = (
{
closed = 1;
nodes = (
"257 -204 OFFCURVE",
"312 -130 OFFCURVE",
"312 0 CURVE SMOOTH",
"312 500 LINE",
"289 500 LINE",
"289 0 LINE SMOOTH",
"289 -117 OFFCURVE",
"243 -183 OFFCURVE",
"164 -179 CURVE",
"164 -200 LINE"
);
}
);
width = 384;
}
);
leftKerningGroup = d;
rightKerningGroup = g;
unicode = 0067;
},
{
glyphname = h;
lastChange = "2017-03-08 11:35:53 +0000";
layers = (
{
components = (
{
name = n.curve;
transform = "{1, 0, 0, 1, 92, 0}";
}
);
hints = (
{
origin = "{0, 2}";
target = "{0, 1}";
}
);
layerId = "262880E7-CFE1-4BDA-902E-E24798F3240A";
paths = (
{
closed = 1;
nodes = (
"110 0 LINE",
"110 700 LINE",
"88 700 LINE",
"88 0 LINE"
);
}
);
width = 503;
},
{
components = (
{
name = n.curve;
transform = "{1, 0, 0, 1, 168, 0}";
}
);
layerId = "4E2227F3-52E4-4048-A8EE-327B486EF0A4";
paths = (
{
closed = 1;
nodes = (
"204 0 LINE",
"204 700 LINE",
"16 700 LINE",
"16 0 LINE"
);
}
);
width = 450;
},
{
components = (
{
name = n.curve;
transform = "{1, 0, 0, 1, 173, 0}";
}
);
layerId = "FFFA8D72-12AC-4CE0-B2CA-57A29829F4DA";
paths = (
{
closed = 1;
nodes = (
"212 0 LINE",
"212 700 LINE",
"24 700 LINE",
"24 0 LINE"
);
}
);
width = 534;
},
{
components = (
{
name = n.curve;
transform = "{1, 0, 0, 1, 79, 0}";
}
);
layerId = "DCBE1F7B-116A-43E0-B7B4-8657BA77D8B5";
paths = (
{
closed = 1;
nodes = (
"94 0 LINE",
"94 700 LINE",
"72 700 LINE",
"72 0 LINE"
);
}
);
width = 396;
}
);
leftKerningGroup = b;
rightKerningGroup = n;
unicode = 0068;
},
{
glyphname = i;
lastChange = "2017-03-08 11:35:53 +0000";
layers = (
{
hints = (
{
origin = "{0, 2}";
target = "{0, 1}";
}
);
layerId = "262880E7-CFE1-4BDA-902E-E24798F3240A";
paths = (
{
closed = 1;
nodes = (
"131 0 LINE",
"131 500 LINE",
"109 500 LINE",
"109 0 LINE"
);
},
{
closed = 1;
nodes = (
"137 620 OFFCURVE",
"150 633 OFFCURVE",
"150 650 CURVE SMOOTH",
"150 666 OFFCURVE",
"137 679 OFFCURVE",
"120 679 CURVE SMOOTH",
"102 679 OFFCURVE",
"88 666 OFFCURVE",
"88 650 CURVE SMOOTH",
"88 633 OFFCURVE",
"102 620 OFFCURVE",
"120 620 CURVE SMOOTH"
);
}
);
width = 238;
},
{
layerId = "4E2227F3-52E4-4048-A8EE-327B486EF0A4";
paths = (
{
closed = 1;
nodes = (
"214 0 LINE",
"214 520 LINE",
"26 520 LINE",
"26 0 LINE"
);
},
{
closed = 1;
nodes = (
"183 542 OFFCURVE",
"224 584 OFFCURVE",
"224 647 CURVE SMOOTH",
"224 710 OFFCURVE",
"183 752 OFFCURVE",
"120 752 CURVE SMOOTH",
"58 752 OFFCURVE",
"16 710 OFFCURVE",
"16 647 CURVE SMOOTH",
"16 584 OFFCURVE",
"58 542 OFFCURVE",
"120 542 CURVE SMOOTH"
);
}
);
width = 240;
},
{
layerId = "FFFA8D72-12AC-4CE0-B2CA-57A29829F4DA";
paths = (
{
closed = 1;
nodes = (
"226 0 LINE",
"226 520 LINE",
"38 520 LINE",
"38 0 LINE"
);
},
{
closed = 1;
nodes = (
"197 536 OFFCURVE",
"240 578 OFFCURVE",
"240 641 CURVE SMOOTH",
"240 704 OFFCURVE",
"197 746 OFFCURVE",
"132 746 CURVE SMOOTH",
"68 746 OFFCURVE",
"24 704 OFFCURVE",
"24 641 CURVE SMOOTH",
"24 578 OFFCURVE",
"68 536 OFFCURVE",
"132 536 CURVE SMOOTH"
);
}
);
width = 264;
},
{
layerId = "DCBE1F7B-116A-43E0-B7B4-8657BA77D8B5";
paths = (
{
closed = 1;
nodes = (
"110 0 LINE",
"110 500 LINE",
"88 500 LINE",
"88 0 LINE"
);
},
{
closed = 1;
nodes = (
"113 620 OFFCURVE",
"124 633 OFFCURVE",
"124 650 CURVE SMOOTH",
"124 666 OFFCURVE",
"113 679 OFFCURVE",
"99 679 CURVE SMOOTH",
"84 679 OFFCURVE",
"72 666 OFFCURVE",
"72 650 CURVE SMOOTH",
"72 633 OFFCURVE",
"84 620 OFFCURVE",
"99 620 CURVE SMOOTH"
);
}
);
width = 196;
}
);
leftKerningGroup = i;
unicode = 0069;
},
{
glyphname = idotless;
lastChange = "2017-03-08 11:32:06 +0000";
layers = (
{
anchors = (
{
name = top;
position = "{104, 509}";
}
);
hints = (
{
origin = "{0, 2}";
target = "{0, 1}";
}
);
layerId = "262880E7-CFE1-4BDA-902E-E24798F3240A";
paths = (
{
closed = 1;
nodes = (
"115 0 LINE",
"115 500 LINE",
"93 500 LINE",
"93 0 LINE"
);
}
);
width = 211;
},
{
anchors = (
{
name = top;
position = "{119, 532}";
}
);
layerId = "FFFA8D72-12AC-4CE0-B2CA-57A29829F4DA";
paths = (
{
closed = 1;
nodes = (
"217 0 LINE",
"217 520 LINE",
"29 520 LINE",
"29 0 LINE"
);
}
);
width = 249;
},
{
anchors = (
{
name = top;
position = "{88, 509}";
}
);
layerId = "DCBE1F7B-116A-43E0-B7B4-8657BA77D8B5";
paths = (
{
closed = 1;
nodes = (
"99 0 LINE",
"99 500 LINE",
"77 500 LINE",
"77 0 LINE"
);
}
);
width = 179;
},
{
anchors = (
{
name = top;
position = "{115, 533}";
}
);
layerId = "4E2227F3-52E4-4048-A8EE-327B486EF0A4";
paths = (
{
closed = 1;
nodes = (
"209 0 LINE",
"209 520 LINE",
"21 520 LINE",
"21 0 LINE"
);
}
);
width = 233;
}
);
leftMetricsKey = "=i+5";
rightMetricsKey = "=i+8";
unicode = 0131;
},
{
glyphname = j;
lastChange = "2017-03-08 11:35:53 +0000";
layers = (
{
hints = (
{
origin = "{0, 4}";
target = "{0, 3}";
},
{
horizontal = 1;
origin = "{0, 9}";
target = "{0, 8}";
}
);
layerId = "262880E7-CFE1-4BDA-902E-E24798F3240A";
paths = (
{
closed = 1;
nodes = (
"80 -211 OFFCURVE",
"132 -159 OFFCURVE",
"132 -74 CURVE SMOOTH",
"132 500 LINE",
"110 500 LINE",
"110 -74 LINE SMOOTH",
"110 -146 OFFCURVE",
"67 -190 OFFCURVE",
"-5 -190 CURVE",
"-5 -211 LINE"
);
},
{
closed = 1;
nodes = (
"141 620 OFFCURVE",
"153 631 OFFCURVE",
"153 650 CURVE SMOOTH",
"153 669 OFFCURVE",
"141 679 OFFCURVE",
"121 679 CURVE SMOOTH",
"103 679 OFFCURVE",
"90 669 OFFCURVE",
"90 650 CURVE SMOOTH",
"90 631 OFFCURVE",
"103 620 OFFCURVE",
"121 620 CURVE SMOOTH"
);
}
);
width = 209;
},
{
layerId = "4E2227F3-52E4-4048-A8EE-327B486EF0A4";
paths = (
{
closed = 1;
nodes = (
"203 -210 OFFCURVE",
"208 -120 OFFCURVE",
"208 29 CURVE SMOOTH",
"208 520 LINE",
"20 520 LINE",
"20 29 LINE SMOOTH",
"20 -19 OFFCURVE",
"5 -49 OFFCURVE",
"-76 -41 CURVE",
"-76 -201 LINE"
);
},
{
closed = 1;
nodes = (
"175 542 OFFCURVE",
"218 589 OFFCURVE",
"218 647 CURVE SMOOTH",
"218 705 OFFCURVE",
"166 752 OFFCURVE",
"114 752 CURVE SMOOTH",
"61 752 OFFCURVE",
"10 705 OFFCURVE",
"10 647 CURVE SMOOTH",
"10 589 OFFCURVE",
"52 542 OFFCURVE",
"114 542 CURVE SMOOTH"
);
}
);
width = 222;
},
{
layerId = "FFFA8D72-12AC-4CE0-B2CA-57A29829F4DA";
paths = (
{
closed = 1;
nodes = (
"157 -209 OFFCURVE",
"218 -163 OFFCURVE",
"218 29 CURVE SMOOTH",
"218 520 LINE",
"30 520 LINE",
"30 26 LINE SMOOTH",
"30 -38 OFFCURVE",
"6 -52 OFFCURVE",
"-89 -44 CURVE",
"-89 -201 LINE"
);
},
{
closed = 1;
nodes = (
"187 536 OFFCURVE",
"232 583 OFFCURVE",
"232 641 CURVE SMOOTH",
"232 699 OFFCURVE",
"179 746 OFFCURVE",
"124 746 CURVE SMOOTH",
"68 746 OFFCURVE",
"16 699 OFFCURVE",
"16 641 CURVE SMOOTH",
"16 583 OFFCURVE",
"59 536 OFFCURVE",
"124 536 CURVE SMOOTH"
);
}
);
width = 239;
},
{
layerId = "DCBE1F7B-116A-43E0-B7B4-8657BA77D8B5";
paths = (
{
closed = 1;
nodes = (
"73 -211 OFFCURVE",
"112 -159 OFFCURVE",
"112 -74 CURVE SMOOTH",
"112 500 LINE",
"90 500 LINE",
"90 -74 LINE SMOOTH",
"90 -146 OFFCURVE",
"58 -190 OFFCURVE",
"2 -190 CURVE",
"2 -211 LINE"
);
},
{
closed = 1;
nodes = (
"117 620 OFFCURVE",
"128 631 OFFCURVE",
"128 650 CURVE SMOOTH",
"128 669 OFFCURVE",
"117 679 OFFCURVE",
"101 679 CURVE SMOOTH",
"86 679 OFFCURVE",
"75 669 OFFCURVE",
"75 650 CURVE SMOOTH",
"75 631 OFFCURVE",
"86 620 OFFCURVE",
"101 620 CURVE SMOOTH"
);
}
);
width = 175;
}
);
leftKerningGroup = j;
unicode = 006A;
},
{
glyphname = k;
lastChange = "2017-03-08 11:35:53 +0000";
layers = (
{
guideLines = (
{
angle = 180;
position = "{272, 0}";
showMeasurement = 1;
}
);
hints = (
{
origin = "{0, 11}";
target = "{0, 0}";
},
{
origin = "{0, 3}";
target = "{0, 4}";
},
{
origin = "{0, 7}";
target = "{0, 6}";
}
);
layerId = "262880E7-CFE1-4BDA-902E-E24798F3240A";
paths = (
{
closed = 1;
nodes = (
"110 0 LINE",
"110 200 LINE",
"255 347 LINE",
"404 0 LINE",
"428 0 LINE",
"271 363 LINE",
"408 500 LINE",
"380 502 LINE",
"110 228 LINE",
"110 700 LINE",
"88 700 LINE",
"88 0 LINE"
);
}
);
width = 461;
},
{
layerId = "4E2227F3-52E4-4048-A8EE-327B486EF0A4";
paths = (
{
closed = 1;
nodes = (
"204 0 LINE",
"204 136 LINE",
"216 165 LINE",
"269 0 LINE",
"463 0 LINE",
"332 315 LINE",
"457 520 LINE",
"262 520 LINE",
"204 390 LINE",
"204 700 LINE",
"16 700 LINE",
"16 0 LINE"
);
}
);
width = 469;
},
{
layerId = "FFFA8D72-12AC-4CE0-B2CA-57A29829F4DA";
paths = (
{
closed = 1;
nodes = (
"212 0 LINE",
"212 149 LINE",
"252 205 LINE",
"340 0 LINE",
"534 0 LINE",
"380 325 LINE",
"524 520 LINE",
"310 520 LINE",
"212 378 LINE",
"212 700 LINE",
"24 700 LINE",
"24 0 LINE"
);
}
);
width = 543;
},
{
guideLines = (
{
angle = 180;
position = "{278, 0}";
showMeasurement = 1;
}
);
layerId = "DCBE1F7B-116A-43E0-B7B4-8657BA77D8B5";
paths = (
{
closed = 1;
nodes = (
"94 0 LINE",
"94 200 LINE",
"202 345 LINE",
"313 0 LINE",
"337 0 LINE",
"217 363 LINE",
"321 500 LINE",
"295 500 LINE",
"94 232 LINE",
"94 700 LINE",
"72 700 LINE",
"72 0 LINE"
);
}
);
width = 364;
}
);
leftKerningGroup = b;
rightKerningGroup = k;
unicode = 006B;
},
{
glyphname = l;
lastChange = "2017-03-08 11:35:53 +0000";
layers = (
{
hints = (
{
origin = "{0, 3}";
target = "{0, 0}";
}
);
layerId = "262880E7-CFE1-4BDA-902E-E24798F3240A";
paths = (
{
closed = 1;
nodes = (
"110 0 LINE",
"110 700 LINE",
"88 700 LINE",
"88 0 LINE"
);
}
);
width = 198;
},
{
layerId = "4E2227F3-52E4-4048-A8EE-327B486EF0A4";
paths = (
{
closed = 1;
nodes = (
"204 0 LINE",
"204 700 LINE",
"16 700 LINE",
"16 0 LINE"
);
}
);
width = 220;
},
{
layerId = "FFFA8D72-12AC-4CE0-B2CA-57A29829F4DA";
paths = (
{
closed = 1;
nodes = (
"212 0 LINE",
"212 700 LINE",
"24 700 LINE",
"24 0 LINE"
);
}
);
width = 236;
},
{
layerId = "DCBE1F7B-116A-43E0-B7B4-8657BA77D8B5";
paths = (
{
closed = 1;
nodes = (
"94 0 LINE",
"94 700 LINE",
"72 700 LINE",
"72 0 LINE"
);
}
);
width = 166;
}
);
leftKerningGroup = l;
rightKerningGroup = l;
unicode = 006C;
},
{
glyphname = m;
lastChange = "2017-03-08 11:35:53 +0000";
layers = (
{
hints = (
{
origin = "{0, 3}";
target = "{0, 0}";
},
{
origin = "{1, 15}";
target = "{1, 0}";
},
{
origin = "{2, 15}";
target = "{2, 0}";
},
{
horizontal = 1;
origin = "{1, 4}";
target = "{1, 11}";
}
);
layerId = "262880E7-CFE1-4BDA-902E-E24798F3240A";
paths = (
{
closed = 1;
nodes = (
"110 0 LINE",
"110 500 LINE",
"88 500 LINE",
"88 0 LINE"
);
},
{
closed = 1;
nodes = (
"412 0 LINE",
"412 347 LINE SMOOTH",
"412 446 OFFCURVE",
"348 507 OFFCURVE",
"256 507 CURVE SMOOTH",
"157 507 OFFCURVE",
"93 448 OFFCURVE",
"93 346 CURVE",
"110 346 LINE",
"110 433 OFFCURVE",
"166 486 OFFCURVE",
"254 486 CURVE SMOOTH",
"334 486 OFFCURVE",
"390 432 OFFCURVE",
"390 344 CURVE SMOOTH",
"390 0 LINE"
);
},
{
closed = 1;
nodes = (
"715 0 LINE",
"715 347 LINE SMOOTH",
"715 446 OFFCURVE",
"650 507 OFFCURVE",
"558 507 CURVE SMOOTH",
"460 507 OFFCURVE",
"395 448 OFFCURVE",
"395 346 CURVE",
"412 346 LINE",
"412 433 OFFCURVE",
"469 486 OFFCURVE",
"556 486 CURVE SMOOTH",
"636 486 OFFCURVE",
"693 432 OFFCURVE",
"693 344 CURVE SMOOTH",
"693 0 LINE"
);
}
);
width = 792;
},
{
layerId = "4E2227F3-52E4-4048-A8EE-327B486EF0A4";
paths = (
{
closed = 1;
nodes = (
"204 0 LINE",
"204 520 LINE",
"16 520 LINE",
"16 0 LINE"
);
},
{
closed = 1;
nodes = (
"436 0 LINE",
"436 348 LINE SMOOTH",
"436 459 OFFCURVE",
"395 528 OFFCURVE",
"294 528 CURVE SMOOTH",
"257 528 OFFCURVE",
"157 515 OFFCURVE",
"158 335 CURVE",
"204 335 LINE",
"204 356 OFFCURVE",
"212 367 OFFCURVE",
"227 367 CURVE SMOOTH",
"241 367 OFFCURVE",
"248 356 OFFCURVE",
"248 335 CURVE SMOOTH",
"248 0 LINE"
);
},
{
closed = 1;
nodes = (
"668 0 LINE",
"668 348 LINE SMOOTH",
"668 459 OFFCURVE",
"627 528 OFFCURVE",
"526 528 CURVE SMOOTH",
"485 528 OFFCURVE",
"385 515 OFFCURVE",
"386 335 CURVE",
"436 335 LINE",
"436 356 OFFCURVE",
"444 367 OFFCURVE",
"459 367 CURVE SMOOTH",
"473 367 OFFCURVE",
"480 356 OFFCURVE",
"480 335 CURVE SMOOTH",
"480 0 LINE"
);
}
);
width = 682;
},
{
layerId = "FFFA8D72-12AC-4CE0-B2CA-57A29829F4DA";
paths = (
{
closed = 1;
nodes = (
"212 0 LINE",
"212 520 LINE",
"24 520 LINE",
"24 0 LINE"
);
},
{
closed = 1;
nodes = (
"505 0 LINE",
"505 341 LINE SMOOTH",
"505 460 OFFCURVE",
"444 528 OFFCURVE",
"338 528 CURVE SMOOTH",
"243 528 OFFCURVE",
"175 460 OFFCURVE",
"175 300 CURVE",
"212 300 LINE",
"212 340 OFFCURVE",
"233 367 OFFCURVE",
"265 367 CURVE SMOOTH",
"296 367 OFFCURVE",
"317 340 OFFCURVE",
"317 300 CURVE SMOOTH",
"317 0 LINE"
);
},
{
closed = 1;
nodes = (
"799 0 LINE",
"799 341 LINE SMOOTH",
"799 460 OFFCURVE",
"737 528 OFFCURVE",
"632 528 CURVE SMOOTH",
"537 528 OFFCURVE",
"449 460 OFFCURVE",
"449 300 CURVE",
"505 300 LINE",
"505 340 OFFCURVE",
"527 367 OFFCURVE",
"559 367 CURVE SMOOTH",
"590 367 OFFCURVE",
"611 340 OFFCURVE",
"611 300 CURVE SMOOTH",
"611 0 LINE"
);
}
);
width = 820;
},
{
layerId = "DCBE1F7B-116A-43E0-B7B4-8657BA77D8B5";
paths = (
{
closed = 1;
nodes = (
"94 0 LINE",
"94 500 LINE",
"72 500 LINE",
"72 0 LINE"
);
},
{
closed = 1;
nodes = (
"324 0 LINE",
"324 347 LINE SMOOTH",
"324 446 OFFCURVE",
"276 507 OFFCURVE",
"205 507 CURVE SMOOTH",
"131 507 OFFCURVE",
"78 448 OFFCURVE",
"78 346 CURVE",
"94 346 LINE",
"94 433 OFFCURVE",
"136 486 OFFCURVE",
"201 486 CURVE SMOOTH",
"260 486 OFFCURVE",
"302 432 OFFCURVE",
"302 344 CURVE SMOOTH",
"302 0 LINE"
);
},
{
closed = 1;
nodes = (
"554 0 LINE",
"554 347 LINE SMOOTH",
"554 446 OFFCURVE",
"505 507 OFFCURVE",
"435 507 CURVE SMOOTH",
"361 507 OFFCURVE",
"307 451 OFFCURVE",
"307 346 CURVE",
"324 346 LINE",
"324 433 OFFCURVE",
"366 486 OFFCURVE",
"430 486 CURVE SMOOTH",
"490 486 OFFCURVE",
"532 432 OFFCURVE",
"532 344 CURVE SMOOTH",
"532 0 LINE"
);
}
);
width = 617;
}
);
leftKerningGroup = n;
rightKerningGroup = h;
unicode = 006D;
},
{
glyphname = n;
lastChange = "2017-03-08 11:35:53 +0000";
layers = (
{
anchors = (
{
name = top;
position = "{252, 500}";
}
);
components = (
{
name = n.curve;
transform = "{1, 0, 0, 1, 92, 0}";
}
);
hints = (
{
origin = "{0, 2}";
target = "{0, 2}";
}
);
layerId = "262880E7-CFE1-4BDA-902E-E24798F3240A";
paths = (
{
closed = 1;
nodes = (
"110 0 LINE",
"110 500 LINE",
"88 500 LINE",
"88 0 LINE"
);
}
);
width = 503;
},
{
anchors = (
{
name = top;
position = "{232, 520}";
}
);
components = (
{
name = n.curve;
transform = "{1, 0, 0, 1, 168, 0}";
}
);
layerId = "4E2227F3-52E4-4048-A8EE-327B486EF0A4";
paths = (
{
closed = 1;
nodes = (
"204 0 LINE",
"204 520 LINE",
"16 520 LINE",
"16 0 LINE"
);
}
);
width = 450;
},
{
anchors = (
{
name = top;
position = "{280, 520}";
}
);
components = (
{
name = n.curve;
transform = "{1, 0, 0, 1, 173, 0}";
}
);
layerId = "FFFA8D72-12AC-4CE0-B2CA-57A29829F4DA";
paths = (
{
closed = 1;
nodes = (
"212 0 LINE",
"212 520 LINE",
"24 520 LINE",
"24 0 LINE"
);
}
);
width = 534;
},
{
anchors = (
{
name = top;
position = "{204, 507}";
}
);
components = (
{
name = n.curve;
transform = "{1, 0, 0, 1, 79, 0}";
}
);
layerId = "DCBE1F7B-116A-43E0-B7B4-8657BA77D8B5";
paths = (
{
closed = 1;
nodes = (
"94 0 LINE",
"94 500 LINE",
"72 500 LINE",
"72 0 LINE"
);
}
);
width = 396;
},
{
anchors = (
{
name = top;
position = "{265, 509}";
}
);
associatedMasterId = "262880E7-CFE1-4BDA-902E-E24798F3240A";
components = (
{
name = n.curve;
transform = "{1, 0, 0, 1, 130, 0}";
}
);
hints = (
{
origin = "{0, 2}";
target = "{0, 2}";
}
);
layerId = "53896A5E-1183-4A5E-9C25-62CDD8D27FBC";
name = "{100,5}";
paths = (
{
closed = 1;
nodes = (
"158 0 LINE",
"158 509 LINE",
"58 509 LINE",
"58 0 LINE"
);
}
);
width = 517;
}
);
leftKerningGroup = n;
rightKerningGroup = n;
unicode = 006E;
},
{
glyphname = o;
lastChange = "2017-03-10 12:50:04 +0000";
layers = (
{
anchors = (
{
name = top;
position = "{229, 508}";
}
);
guideLines = (
{
position = "{231, 135}";
}
);
hints = (
{
horizontal = 1;
origin = "{0, 11}";
target = "{1, 11}";
},
{
origin = "{0, 17}";
target = "{1, 5}";
},
{
origin = "{1, 17}";
target = "{0, 5}";
},
{
horizontal = 1;
origin = "{0, 23}";
target = "{1, 23}";
}
);
layerId = "262880E7-CFE1-4BDA-902E-E24798F3240A";
paths = (
{
closed = 1;
nodes = (
"317 -8 OFFCURVE",
"381 46 OFFCURVE",
"398 123 CURVE SMOOTH",
"405 155 OFFCURVE",
"404 191 OFFCURVE",
"404 250 CURVE SMOOTH",
"404 305 OFFCURVE",
"405 344 OFFCURVE",
"398 377 CURVE SMOOTH",
"381 454 OFFCURVE",
"317 508 OFFCURVE",
"229 508 CURVE SMOOTH",
"141 508 OFFCURVE",
"78 454 OFFCURVE",
"61 377 CURVE SMOOTH",
"54 345 OFFCURVE",
"55 310 OFFCURVE",
"55 251 CURVE SMOOTH",
"55 195 OFFCURVE",
"54 156 OFFCURVE",
"61 123 CURVE SMOOTH",
"78 46 OFFCURVE",
"141 -8 OFFCURVE",
"229 -8 CURVE SMOOTH"
);
},
{
closed = 1;
nodes = (
"149 13 OFFCURVE",
"94 63 OFFCURVE",
"81 135 CURVE SMOOTH",
"77 156 OFFCURVE",
"77 193 OFFCURVE",
"77 250 CURVE SMOOTH",
"77 302 OFFCURVE",
"77 343 OFFCURVE",
"81 365 CURVE SMOOTH",
"94 436 OFFCURVE",
"149 487 OFFCURVE",
"229 487 CURVE SMOOTH",
"309 487 OFFCURVE",
"365 436 OFFCURVE",
"378 365 CURVE SMOOTH",
"382 344 OFFCURVE",
"382 307 OFFCURVE",
"382 250 CURVE SMOOTH",
"382 198 OFFCURVE",
"382 157 OFFCURVE",
"378 135 CURVE SMOOTH",
"365 64 OFFCURVE",
"309 13 OFFCURVE",
"229 13 CURVE SMOOTH"
);
}
);
width = 459;
},
{
anchors = (
{
name = top;
position = "{223, 528}";
}
);
guideLines = (
{
angle = 39.959;
position = "{289, 232}";
showMeasurement = 1;
},
{
angle = -39.959;
position = "{156, 232}";
showMeasurement = 1;
},
{
angle = 39.959;
position = "{289, 404}";
showMeasurement = 1;
},
{
angle = -180;
position = "{224, 260}";
showMeasurement = 1;
},
{
angle = -39.959;
position = "{155, 404}";
showMeasurement = 1;
},
{
position = "{261, 170}";
},
{
position = "{260, 350}";
},
{
position = "{262, 260}";
}
);
layerId = "4E2227F3-52E4-4048-A8EE-327B486EF0A4";
paths = (
{
closed = 1;
nodes = (
"359 -8 OFFCURVE",
"435 57 OFFCURVE",
"435 170 CURVE SMOOTH",
"435 193 OFFCURVE",
"435 237 OFFCURVE",
"435 260 CURVE SMOOTH",
"435 283 OFFCURVE",
"435 327 OFFCURVE",
"435 350 CURVE SMOOTH",
"435 456 OFFCURVE",
"359 528 OFFCURVE",
"223 528 CURVE SMOOTH",
"87 528 OFFCURVE",
"10 456 OFFCURVE",
"10 350 CURVE SMOOTH",
"10 327 OFFCURVE",
"10 283 OFFCURVE",
"10 260 CURVE SMOOTH",
"10 237 OFFCURVE",
"10 193 OFFCURVE",
"10 170 CURVE SMOOTH",
"10 57 OFFCURVE",
"87 -8 OFFCURVE",
"223 -8 CURVE SMOOTH"
);
},
{
closed = 1;
nodes = (
"208 153 OFFCURVE",
"198 166 OFFCURVE",
"198 185 CURVE SMOOTH",
"198 210 OFFCURVE",
"198 235 OFFCURVE",
"198 260 CURVE",
"198 285 OFFCURVE",
"198 310 OFFCURVE",
"198 335 CURVE SMOOTH",
"198 354 OFFCURVE",
"208 367 OFFCURVE",
"223 367 CURVE SMOOTH",
"237 367 OFFCURVE",
"247 354 OFFCURVE",
"247 335 CURVE SMOOTH",
"247 310 OFFCURVE",
"247 285 OFFCURVE",
"247 260 CURVE SMOOTH",
"247 235 OFFCURVE",
"247 210 OFFCURVE",
"247 185 CURVE SMOOTH",
"247 166 OFFCURVE",
"237 153 OFFCURVE",
"223 153 CURVE SMOOTH"
);
}
);
width = 445;
},
{
anchors = (
{
name = top;
position = "{272, 528}";
}
);
guideLines = (
{
position = "{274, 149}";
},
{
position = "{272, 327}";
},
{
position = "{274, 263}";
},
{
position = "{265, 376}";
},
{
position = "{272, 193}";
}
);
layerId = "FFFA8D72-12AC-4CE0-B2CA-57A29829F4DA";
paths = (
{
closed = 1;
nodes = (
"385 -8 OFFCURVE",
"473 55 OFFCURVE",
"509 149 CURVE SMOOTH",
"521 180 OFFCURVE",
"529 218 OFFCURVE",
"529 263 CURVE SMOOTH",
"529 304 OFFCURVE",
"522 343 OFFCURVE",
"509 376 CURVE SMOOTH",
"469 477 OFFCURVE",
"378 528 OFFCURVE",
"273 528 CURVE SMOOTH",
"161 528 OFFCURVE",
"72 470 OFFCURVE",
"35 376 CURVE SMOOTH",
"22 343 OFFCURVE",
"15 304 OFFCURVE",
"15 262 CURVE SMOOTH",
"15 223 OFFCURVE",
"21 185 OFFCURVE",
"35 149 CURVE SMOOTH",
"73 52 OFFCURVE",
"161 -8 OFFCURVE",
"272 -8 CURVE SMOOTH"
);
},
{
closed = 1;
nodes = (
"247 153 OFFCURVE",
"224 169 OFFCURVE",
"215 193 CURVE SMOOTH",
"208 211 OFFCURVE",
"205 234 OFFCURVE",
"205 262 CURVE SMOOTH",
"205 288 OFFCURVE",
"208 310 OFFCURVE",
"215 327 CURVE SMOOTH",
"225 351 OFFCURVE",
"248 367 OFFCURVE",
"272 367 CURVE SMOOTH",
"296 367 OFFCURVE",
"319 351 OFFCURVE",
"329 327 CURVE SMOOTH",
"336 310 OFFCURVE",
"339 288 OFFCURVE",
"339 262 CURVE SMOOTH",
"339 234 OFFCURVE",
"335 210 OFFCURVE",
"329 193 CURVE SMOOTH",
"321 169 OFFCURVE",
"298 153 OFFCURVE",
"272 153 CURVE SMOOTH"
);
}
);
width = 544;
},
{
anchors = (
{
name = top;
position = "{179, 508}";
}
);
guideLines = (
{
angle = 66;
position = "{180, 250}";
showMeasurement = 1;
},
{
angle = 112;
position = "{179, 250}";
showMeasurement = 1;
},
{
angle = -180;
position = "{179, 250}";
showMeasurement = 1;
}
);
layerId = "DCBE1F7B-116A-43E0-B7B4-8657BA77D8B5";
paths = (
{
closed = 1;
nodes = (
"259 -8 OFFCURVE",
"314 52 OFFCURVE",
"314 135 CURVE SMOOTH",
"314 173 OFFCURVE",
"314 212 OFFCURVE",
"314 250 CURVE SMOOTH",
"314 288 OFFCURVE",
"314 327 OFFCURVE",
"314 365 CURVE SMOOTH",
"314 448 OFFCURVE",
"259 508 OFFCURVE",
"179 508 CURVE SMOOTH",
"100 508 OFFCURVE",
"45 448 OFFCURVE",
"45 365 CURVE SMOOTH",
"45 327 OFFCURVE",
"45 288 OFFCURVE",
"45 250 CURVE SMOOTH",
"45 212 OFFCURVE",
"45 173 OFFCURVE",
"45 135 CURVE SMOOTH",
"45 52 OFFCURVE",
"100 -8 OFFCURVE",
"179 -8 CURVE SMOOTH"
);
},
{
closed = 1;
nodes = (
"113 13 OFFCURVE",
"67 63 OFFCURVE",
"67 135 CURVE SMOOTH",
"67 173 OFFCURVE",
"67 212 OFFCURVE",
"67 250 CURVE SMOOTH",
"67 288 OFFCURVE",
"67 327 OFFCURVE",
"67 365 CURVE SMOOTH",
"67 437 OFFCURVE",
"113 487 OFFCURVE",
"179 487 CURVE SMOOTH",
"246 487 OFFCURVE",
"292 437 OFFCURVE",
"292 365 CURVE SMOOTH",
"292 327 OFFCURVE",
"292 288 OFFCURVE",
"292 250 CURVE SMOOTH",
"292 212 OFFCURVE",
"292 173 OFFCURVE",
"292 135 CURVE SMOOTH",
"292 63 OFFCURVE",
"246 13 OFFCURVE",
"179 13 CURVE SMOOTH"
);
}
);
width = 359;
},
{
anchors = (
{
name = top;
position = "{252, 532}";
}
);
associatedMasterId = "FFFA8D72-12AC-4CE0-B2CA-57A29829F4DA";
layerId = "E170A48F-3AE5-4D63-9FF6-9C732EC5D514";
name = "Feb 19 17, 03:14";
paths = (
{
closed = 1;
nodes = (
"416 -8 OFFCURVE",
"514 98 OFFCURVE",
"514 263 CURVE SMOOTH",
"514 424 OFFCURVE",
"421 528 OFFCURVE",
"262 528 CURVE SMOOTH",
"106 528 OFFCURVE",
"10 427 OFFCURVE",
"10 263 CURVE SMOOTH",
"10 101 OFFCURVE",
"105 -8 OFFCURVE",
"262 -8 CURVE SMOOTH"
);
}
);
width = 510;
},
{
anchors = (
{
name = top;
position = "{252, 532}";
}
);
associatedMasterId = "FFFA8D72-12AC-4CE0-B2CA-57A29829F4DA";
layerId = "729CD020-0260-4A10-AF2C-A7559C6B0093";
name = "Feb 19 17, 03:05";
paths = (
{
closed = 1;
nodes = (
"403 -7 OFFCURVE",
"500 93 OFFCURVE",
"500 243 CURVE SMOOTH",
"500 262 LINE",
"500 281 LINE SMOOTH",
"500 432 OFFCURVE",
"401 532 OFFCURVE",
"252 532 CURVE SMOOTH",
"107 532 OFFCURVE",
"10 432 OFFCURVE",
"10 281 CURVE SMOOTH",
"10 275 OFFCURVE",
"10 268 OFFCURVE",
"10 262 CURVE SMOOTH",
"10 255 OFFCURVE",
"10 250 OFFCURVE",
"10 243 CURVE",
"10 92 OFFCURVE",
"109 -7 OFFCURVE",
"258 -7 CURVE SMOOTH"
);
},
{
closed = 1;
nodes = (
"221 154 OFFCURVE",
"198 186 OFFCURVE",
"198 235 CURVE SMOOTH",
"198 290 LINE SMOOTH",
"198 339 OFFCURVE",
"221 371 OFFCURVE",
"255 371 CURVE SMOOTH",
"289 371 OFFCURVE",
"312 339 OFFCURVE",
"312 290 CURVE SMOOTH",
"312 235 LINE SMOOTH",
"312 186 OFFCURVE",
"289 154 OFFCURVE",
"255 154 CURVE SMOOTH"
);
}
);
width = 510;
},
{
anchors = (
{
name = top;
position = "{224, 508}";
}
);
associatedMasterId = "262880E7-CFE1-4BDA-902E-E24798F3240A";
guideLines = (
{
angle = 60;
position = "{224, 250}";
showMeasurement = 1;
},
{
angle = -180;
position = "{224, 250}";
showMeasurement = 1;
},
{
angle = -60;
position = "{224, 250}";
showMeasurement = 1;
}
);
layerId = "B0138EC5-030B-498C-B0B8-CB1265BD0ED1";
name = "old light";
paths = (
{
closed = 1;
nodes = (
"327 -8 OFFCURVE",
"397 67 OFFCURVE",
"397 168 CURVE SMOOTH",
"397 332 LINE SMOOTH",
"397 433 OFFCURVE",
"327 508 OFFCURVE",
"223 508 CURVE SMOOTH",
"119 508 OFFCURVE",
"50 433 OFFCURVE",
"50 332 CURVE SMOOTH",
"50 168 LINE SMOOTH",
"50 67 OFFCURVE",
"119 -8 OFFCURVE",
"223 -8 CURVE SMOOTH"
);
},
{
closed = 1;
nodes = (
"132 13 OFFCURVE",
"72 79 OFFCURVE",
"72 167 CURVE SMOOTH",
"72 333 LINE SMOOTH",
"72 421 OFFCURVE",
"132 487 OFFCURVE",
"223 487 CURVE SMOOTH",
"314 487 OFFCURVE",
"375 421 OFFCURVE",
"375 333 CURVE SMOOTH",
"375 167 LINE SMOOTH",
"375 79 OFFCURVE",
"314 13 OFFCURVE",
"223 13 CURVE SMOOTH"
);
}
);
width = 449;
},
{
anchors = (
{
name = top;
position = "{224, 508}";
}
);
associatedMasterId = "262880E7-CFE1-4BDA-902E-E24798F3240A";
guideLines = (
{
angle = 60;
position = "{224, 250}";
showMeasurement = 1;
},
{
angle = -180;
position = "{224, 250}";
showMeasurement = 1;
},
{
angle = -60;
position = "{224, 250}";
showMeasurement = 1;
}
);
layerId = "1ABF4078-FE11-4FD4-BA40-BAADFE713524";
name = "cond light";
paths = (
{
closed = 1;
nodes = (
"254 -8 OFFCURVE",
"309 51 OFFCURVE",
"309 136 CURVE SMOOTH",
"309 364 LINE SMOOTH",
"309 449 OFFCURVE",
"254 508 OFFCURVE",
"174 508 CURVE SMOOTH",
"95 508 OFFCURVE",
"40 449 OFFCURVE",
"40 364 CURVE SMOOTH",
"40 136 LINE SMOOTH",
"40 51 OFFCURVE",
"95 -8 OFFCURVE",
"174 -8 CURVE SMOOTH"
);
},
{
closed = 1;
nodes = (
"108 13 OFFCURVE",
"62 63 OFFCURVE",
"62 135 CURVE SMOOTH",
"62 365 LINE SMOOTH",
"62 437 OFFCURVE",
"108 487 OFFCURVE",
"174 487 CURVE SMOOTH",
"241 487 OFFCURVE",
"287 437 OFFCURVE",
"287 365 CURVE SMOOTH",
"287 135 LINE SMOOTH",
"287 63 OFFCURVE",
"241 13 OFFCURVE",
"174 13 CURVE SMOOTH"
);
}
);
width = 349;
},
{
anchors = (
{
name = top;
position = "{223, 532}";
}
);
associatedMasterId = "4E2227F3-52E4-4048-A8EE-327B486EF0A4";
guideLines = (
{
angle = 39.959;
position = "{289, 232}";
showMeasurement = 1;
},
{
angle = -39.959;
position = "{156, 232}";
showMeasurement = 1;
},
{
angle = 39.959;
position = "{289, 404}";
showMeasurement = 1;
},
{
angle = -180;
position = "{224, 260}";
showMeasurement = 1;
},
{
angle = -39.959;
position = "{155, 404}";
showMeasurement = 1;
}
);
layerId = "A2592930-FB52-446A-8915-5702D869B7BD";
name = oldbc;
paths = (
{
closed = 1;
nodes = (
"359 -7 OFFCURVE",
"435 67 OFFCURVE",
"435 190 CURVE SMOOTH",
"435 330 LINE SMOOTH",
"435 456 OFFCURVE",
"359 532 OFFCURVE",
"223 532 CURVE SMOOTH",
"87 532 OFFCURVE",
"10 456 OFFCURVE",
"10 330 CURVE SMOOTH",
"10 190 LINE SMOOTH",
"10 67 OFFCURVE",
"87 -7 OFFCURVE",
"223 -7 CURVE SMOOTH"
);
},
{
closed = 1;
nodes = (
"206 154 OFFCURVE",
"198 165 OFFCURVE",
"198 186 CURVE SMOOTH",
"198 339 LINE SMOOTH",
"198 360 OFFCURVE",
"206 371 OFFCURVE",
"223 371 CURVE SMOOTH",
"239 371 OFFCURVE",
"247 360 OFFCURVE",
"247 339 CURVE SMOOTH",
"247 186 LINE SMOOTH",
"247 165 OFFCURVE",
"239 154 OFFCURVE",
"223 154 CURVE SMOOTH"
);
}
);
width = 445;
},
{
anchors = (
{
name = top;
position = "{251, 528}";
}
);
associatedMasterId = "FFFA8D72-12AC-4CE0-B2CA-57A29829F4DA";
guideLines = (
{
angle = -180;
position = "{174, 260}";
showMeasurement = 1;
},
{
angle = -59.0044;
position = "{218, 260}";
showMeasurement = 1;
},
{
angle = 59.004;
position = "{290, 260}";
showMeasurement = 1;
},
{
angle = 59.004;
position = "{290, 260}";
showMeasurement = 1;
},
{
angle = 59.004;
position = "{290, 380}";
showMeasurement = 1;
},
{
angle = -59.004;
position = "{220, 380}";
showMeasurement = 1;
}
);
layerId = "3864C296-439A-4200-9E6D-A7A6FACAB388";
name = oldbold;
paths = (
{
closed = 1;
nodes = (
"402 -7 OFFCURVE",
"500 93 OFFCURVE",
"500 244 CURVE SMOOTH",
"500 281 LINE SMOOTH",
"500 432 OFFCURVE",
"402 532 OFFCURVE",
"255 532 CURVE SMOOTH",
"108 532 OFFCURVE",
"10 432 OFFCURVE",
"10 281 CURVE SMOOTH",
"10 244 LINE SMOOTH",
"10 93 OFFCURVE",
"108 -7 OFFCURVE",
"255 -7 CURVE SMOOTH"
);
},
{
closed = 1;
nodes = (
"221 154 OFFCURVE",
"198 186 OFFCURVE",
"198 235 CURVE SMOOTH",
"198 290 LINE SMOOTH",
"198 339 OFFCURVE",
"221 371 OFFCURVE",
"255 371 CURVE SMOOTH",
"289 371 OFFCURVE",
"312 339 OFFCURVE",
"312 290 CURVE SMOOTH",
"312 235 LINE SMOOTH",
"312 186 OFFCURVE",
"289 154 OFFCURVE",
"255 154 CURVE SMOOTH"
);
}
);
width = 510;
},
{
anchors = (
{
name = top;
position = "{251, 528}";
}
);
associatedMasterId = "FFFA8D72-12AC-4CE0-B2CA-57A29829F4DA";
guideLines = (
{
angle = -29.004;
position = "{218, 260}";
showMeasurement = 1;
},
{
angle = 59.004;
position = "{290, 260}";
showMeasurement = 1;
},
{
angle = 59.004;
position = "{290, 260}";
showMeasurement = 1;
},
{
angle = 59.004;
position = "{290, 380}";
showMeasurement = 1;
},
{
angle = -59.004;
position = "{220, 380}";
showMeasurement = 1;
}
);
layerId = "DE3342F3-73B1-435C-BEC9-D64414508369";
name = "Feb 19 17, 05:54";
paths = (
{
closed = 1;
nodes = (
"402 -7 OFFCURVE",
"500 93 OFFCURVE",
"500 244 CURVE SMOOTH",
"500 281 LINE SMOOTH",
"500 432 OFFCURVE",
"402 532 OFFCURVE",
"255 532 CURVE SMOOTH",
"108 532 OFFCURVE",
"10 432 OFFCURVE",
"10 281 CURVE SMOOTH",
"10 244 LINE SMOOTH",
"10 93 OFFCURVE",
"108 -7 OFFCURVE",
"255 -7 CURVE SMOOTH"
);
},
{
closed = 1;
nodes = (
"221 154 OFFCURVE",
"198 186 OFFCURVE",
"198 235 CURVE SMOOTH",
"198 290 LINE SMOOTH",
"198 339 OFFCURVE",
"221 371 OFFCURVE",
"255 371 CURVE SMOOTH",
"289 371 OFFCURVE",
"312 339 OFFCURVE",
"312 290 CURVE SMOOTH",
"312 235 LINE SMOOTH",
"312 186 OFFCURVE",
"289 154 OFFCURVE",
"255 154 CURVE SMOOTH"
);
}
);
width = 510;
},
{
anchors = (
{
name = top;
position = "{251, 528}";
}
);
associatedMasterId = "FFFA8D72-12AC-4CE0-B2CA-57A29829F4DA";
guideLines = (
{
angle = -29.004;
position = "{218, 260}";
showMeasurement = 1;
},
{
angle = 59.004;
position = "{290, 260}";
showMeasurement = 1;
},
{
angle = 59.004;
position = "{290, 260}";
showMeasurement = 1;
},
{
angle = 59.004;
position = "{290, 380}";
showMeasurement = 1;
},
{
angle = -59.004;
position = "{220, 380}";
showMeasurement = 1;
}
);
layerId = "D68179E8-F548-401F-8247-1E270525670B";
name = "Feb 19 17, 05:55";
paths = (
{
closed = 1;
nodes = (
"292 -8 OFFCURVE",
"332 -1 OFFCURVE",
"366 14 CURVE SMOOTH",
"545 94 OFFCURVE",
"550 420 OFFCURVE",
"366 505 CURVE SMOOTH",
"333 520 OFFCURVE",
"294 528 OFFCURVE",
"251 528 CURVE SMOOTH",
"213 528 OFFCURVE",
"176 522 OFFCURVE",
"144 508 CURVE SMOOTH",
"-40 428 OFFCURVE",
"-38 91 OFFCURVE",
"142 12 CURVE SMOOTH",
"174 -2 OFFCURVE",
"211 -8 OFFCURVE",
"250 -8 CURVE SMOOTH"
);
},
{
closed = 1;
nodes = (
"236 153 OFFCURVE",
"220 158 OFFCURVE",
"209 182 CURVE SMOOTH",
"192 220 OFFCURVE",
"191 300 OFFCURVE",
"210 339 CURVE SMOOTH",
"218 355 OFFCURVE",
"231 367 OFFCURVE",
"253 367 CURVE SMOOTH",
"268 367 OFFCURVE",
"281 361 OFFCURVE",
"292 339 CURVE SMOOTH",
"314 296 OFFCURVE",
"317 223 OFFCURVE",
"297 182 CURVE SMOOTH",
"288 163 OFFCURVE",
"274 153 OFFCURVE",
"252 153 CURVE SMOOTH"
);
}
);
width = 510;
},
{
anchors = (
{
name = top;
position = "{223, 532}";
}
);
associatedMasterId = "4E2227F3-52E4-4048-A8EE-327B486EF0A4";
guideLines = (
{
angle = 39.959;
position = "{289, 232}";
showMeasurement = 1;
},
{
angle = -39.959;
position = "{156, 232}";
showMeasurement = 1;
},
{
angle = 39.959;
position = "{289, 404}";
showMeasurement = 1;
},
{
angle = -180;
position = "{224, 260}";
showMeasurement = 1;
},
{
angle = -39.959;
position = "{155, 404}";
showMeasurement = 1;
}
);
layerId = "F7F399D2-DBAD-450E-B011-6AA073A84551";
name = "Feb 24 17, 00:19";
paths = (
{
closed = 1;
nodes = (
"359 -7 OFFCURVE",
"435 57 OFFCURVE",
"435 170 CURVE SMOOTH",
"435 193 OFFCURVE",
"435 237 OFFCURVE",
"435 260 CURVE SMOOTH",
"435 283 OFFCURVE",
"435 327 OFFCURVE",
"435 350 CURVE SMOOTH",
"435 456 OFFCURVE",
"359 532 OFFCURVE",
"223 532 CURVE SMOOTH",
"87 532 OFFCURVE",
"10 456 OFFCURVE",
"10 350 CURVE SMOOTH",
"10 327 OFFCURVE",
"10 283 OFFCURVE",
"10 260 CURVE SMOOTH",
"10 237 OFFCURVE",
"10 193 OFFCURVE",
"10 170 CURVE SMOOTH",
"10 57 OFFCURVE",
"87 -7 OFFCURVE",
"223 -7 CURVE SMOOTH"
);
},
{
closed = 1;
nodes = (
"215 154 OFFCURVE",
"207 158 OFFCURVE",
"204 164 CURVE SMOOTH",
"198 175 OFFCURVE",
"198 195 OFFCURVE",
"198 260 CURVE SMOOTH",
"198 332 OFFCURVE",
"197 348 OFFCURVE",
"204 360 CURVE SMOOTH",
"208 366 OFFCURVE",
"214 371 OFFCURVE",
"223 371 CURVE SMOOTH",
"231 371 OFFCURVE",
"238 366 OFFCURVE",
"241 360 CURVE SMOOTH",
"247 348 OFFCURVE",
"247 332 OFFCURVE",
"247 260 CURVE SMOOTH",
"247 196 OFFCURVE",
"247 176 OFFCURVE",
"241 164 CURVE SMOOTH",
"238 158 OFFCURVE",
"231 154 OFFCURVE",
"223 154 CURVE SMOOTH"
);
}
);
width = 445;
},
{
anchors = (
{
name = top;
position = "{262, 528}";
}
);
associatedMasterId = "FFFA8D72-12AC-4CE0-B2CA-57A29829F4DA";
guideLines = (
{
position = "{263, 144}";
},
{
position = "{262, 381}";
},
{
position = "{264, 263}";
},
{
position = "{262, 340}";
},
{
position = "{262, 186}";
}
);
layerId = "080DEFAF-74FD-4956-92F6-84BCF3C584DE";
name = "Feb 24 17, 15:49";
paths = (
{
closed = 1;
nodes = (
"372 -8 OFFCURVE",
"459 49 OFFCURVE",
"494 144 CURVE SMOOTH",
"507 179 OFFCURVE",
"514 219 OFFCURVE",
"514 263 CURVE SMOOTH",
"514 307 OFFCURVE",
"507 346 OFFCURVE",
"494 381 CURVE SMOOTH",
"459 476 OFFCURVE",
"372 528 OFFCURVE",
"262 528 CURVE SMOOTH",
"152 528 OFFCURVE",
"65 476 OFFCURVE",
"30 381 CURVE SMOOTH",
"17 346 OFFCURVE",
"10 307 OFFCURVE",
"10 263 CURVE SMOOTH",
"10 219 OFFCURVE",
"17 179 OFFCURVE",
"30 144 CURVE SMOOTH",
"65 49 OFFCURVE",
"152 -8 OFFCURVE",
"262 -8 CURVE SMOOTH"
);
},
{
closed = 1;
nodes = (
"237 153 OFFCURVE",
"221 165 OFFCURVE",
"212 185 CURVE SMOOTH",
"203 205 OFFCURVE",
"200 232 OFFCURVE",
"200 262 CURVE SMOOTH",
"200 298 OFFCURVE",
"202 316 OFFCURVE",
"212 336 CURVE SMOOTH",
"222 355 OFFCURVE",
"237 367 OFFCURVE",
"262 367 CURVE SMOOTH",
"287 367 OFFCURVE",
"302 355 OFFCURVE",
"312 336 CURVE SMOOTH",
"322 317 OFFCURVE",
"324 290 OFFCURVE",
"324 262 CURVE SMOOTH",
"324 232 OFFCURVE",
"321 205 OFFCURVE",
"312 185 CURVE SMOOTH",
"303 165 OFFCURVE",
"287 153 OFFCURVE",
"262 153 CURVE SMOOTH"
);
}
);
width = 524;
},
{
anchors = (
{
name = top;
position = "{253, 517}";
}
);
associatedMasterId = "DCBE1F7B-116A-43E0-B7B4-8657BA77D8B5";
guideLines = (
{
angle = 66;
position = "{184, 250}";
showMeasurement = 1;
},
{
angle = 112;
position = "{183, 250}";
showMeasurement = 1;
},
{
angle = -180;
position = "{183, 250}";
showMeasurement = 1;
}
);
hints = (
{
horizontal = 1;
origin = "{0, 11}";
target = "{1, 11}";
},
{
origin = "{0, 17}";
target = "{1, 5}";
},
{
origin = "{1, 17}";
target = "{0, 5}";
},
{
horizontal = 1;
origin = "{0, 23}";
target = "{1, 23}";
}
);
layerId = "6D643361-19D7-4F3D-9238-F56945FA1F6A";
name = "{100,5}";
paths = (
{
closed = 1;
nodes = (
"348 -8 OFFCURVE",
"421 45 OFFCURVE",
"452 135 CURVE SMOOTH",
"464 170 OFFCURVE",
"471 215 OFFCURVE",
"471 257 CURVE SMOOTH",
"471 299 OFFCURVE",
"464 343 OFFCURVE",
"452 377 CURVE SMOOTH",
"421 465 OFFCURVE",
"349 517 OFFCURVE",
"256 517 CURVE SMOOTH",
"157 517 OFFCURVE",
"82 465 OFFCURVE",
"53 376 CURVE SMOOTH",
"42 344 OFFCURVE",
"36 299 OFFCURVE",
"36 256 CURVE SMOOTH",
"36 213 OFFCURVE",
"43 168 OFFCURVE",
"54 135 CURVE SMOOTH",
"85 45 OFFCURVE",
"159 -8 OFFCURVE",
"255 -8 CURVE SMOOTH"
);
},
{
closed = 1;
nodes = (
"203 78 OFFCURVE",
"163 109 OFFCURVE",
"148 162 CURVE SMOOTH",
"141 185 OFFCURVE",
"137 220 OFFCURVE",
"137 255 CURVE SMOOTH",
"137 291 OFFCURVE",
"141 325 OFFCURVE",
"148 347 CURVE SMOOTH",
"164 400 OFFCURVE",
"203 431 OFFCURVE",
"253 431 CURVE SMOOTH",
"304 431 OFFCURVE",
"343 400 OFFCURVE",
"359 347 CURVE SMOOTH",
"366 325 OFFCURVE",
"370 291 OFFCURVE",
"370 255 CURVE SMOOTH",
"370 222 OFFCURVE",
"366 187 OFFCURVE",
"358 162 CURVE SMOOTH",
"341 109 OFFCURVE",
"303 78 OFFCURVE",
"255 78 CURVE SMOOTH"
);
}
);
width = 506;
}
);
leftKerningGroup = o;
rightKerningGroup = o;
unicode = 006F;
},
{
color = 3;
glyphname = thorn;
lastChange = "2017-03-08 11:32:06 +0000";
layers = (
{
components = (
{
name = b.bowl;
transform = "{1, 0, 0, 1, 91, 0}";
}
);
layerId = "262880E7-CFE1-4BDA-902E-E24798F3240A";
paths = (
{
closed = 1;
nodes = (
"88 -167 LINE",
"110 -167 LINE",
"110 725 LINE",
"88 725 LINE"
);
}
);
width = 488;
},
{
components = (
{
name = b.bowl;
transform = "{1, 0, 0, 1, 153, 0}";
}
);
layerId = "FFFA8D72-12AC-4CE0-B2CA-57A29829F4DA";
paths = (
{
closed = 1;
nodes = (
"24 -183 LINE",
"212 -183 LINE",
"212 733 LINE",
"24 733 LINE"
);
}
);
width = 532;
},
{
components = (
{
name = b.bowl;
transform = "{1, 0, 0, 1, 79, 0}";
}
);
layerId = "DCBE1F7B-116A-43E0-B7B4-8657BA77D8B5";
paths = (
{
closed = 1;
nodes = (
"72 -167 LINE",
"94 -167 LINE",
"94 725 LINE",
"72 725 LINE"
);
}
);
width = 384;
},
{
components = (
{
name = b.bowl;
transform = "{1, 0, 0, 1, 170, 0}";
}
);
layerId = "4E2227F3-52E4-4048-A8EE-327B486EF0A4";
paths = (
{
closed = 1;
nodes = (
"16 -183 LINE",
"204 -183 LINE",
"204 733 LINE",
"16 733 LINE"
);
}
);
width = 447;
}
);
leftMetricsKey = "=l";
rightMetricsKey = "=b";
unicode = 00FE;
},
{
color = 3;
glyphname = r;
lastChange = "2017-03-10 11:38:36 +0000";
layers = (
{
hints = (
{
horizontal = 1;
origin = "{0, 10}";
target = "{0, 3}";
},
{
origin = "{1, 3}";
target = "{1, 0}";
}
);
layerId = "262880E7-CFE1-4BDA-902E-E24798F3240A";
paths = (
{
closed = 1;
nodes = (
"110 331 LINE",
"110 419 OFFCURVE",
"168 479 OFFCURVE",
"251 479 CURVE SMOOTH",
"277 479 OFFCURVE",
"292 474 OFFCURVE",
"307 466 CURVE",
"318 489 LINE",
"301 498 OFFCURVE",
"283 504 OFFCURVE",
"252 504 CURVE SMOOTH",
"157 504 OFFCURVE",
"95 438 OFFCURVE",
"95 331 CURVE"
);
},
{
closed = 1;
nodes = (
"110 0 LINE",
"110 500 LINE",
"88 500 LINE",
"88 0 LINE"
);
}
);
width = 351;
},
{
layerId = "4E2227F3-52E4-4048-A8EE-327B486EF0A4";
paths = (
{
closed = 1;
nodes = (
"204 273 LINE",
"204 294 OFFCURVE",
"216 318 OFFCURVE",
"235 327 CURVE SMOOTH",
"259 338 OFFCURVE",
"298 333 OFFCURVE",
"308 325 CURVE",
"337 510 LINE",
"328 519 OFFCURVE",
"312 527 OFFCURVE",
"287 527 CURVE SMOOTH",
"170 527 OFFCURVE",
"176 352 OFFCURVE",
"176 273 CURVE"
);
},
{
closed = 1;
nodes = (
"204 1 LINE",
"204 520 LINE",
"16 520 LINE",
"16 1 LINE"
);
}
);
width = 337;
},
{
layerId = "FFFA8D72-12AC-4CE0-B2CA-57A29829F4DA";
paths = (
{
closed = 1;
nodes = (
"212 273 LINE",
"212 307 OFFCURVE",
"246 326 OFFCURVE",
"275 332 CURVE SMOOTH",
"308 339 OFFCURVE",
"342 332 OFFCURVE",
"350 325 CURVE",
"379 507 LINE",
"370 516 OFFCURVE",
"350 527 OFFCURVE",
"316 527 CURVE SMOOTH",
"198 527 OFFCURVE",
"164 394 OFFCURVE",
"164 273 CURVE"
);
},
{
closed = 1;
nodes = (
"212 1 LINE",
"212 520 LINE",
"24 520 LINE",
"24 1 LINE"
);
}
);
width = 388;
},
{
layerId = "DCBE1F7B-116A-43E0-B7B4-8657BA77D8B5";
paths = (
{
closed = 1;
nodes = (
"94 331 LINE",
"94 419 OFFCURVE",
"137 479 OFFCURVE",
"198 479 CURVE SMOOTH",
"219 479 OFFCURVE",
"230 474 OFFCURVE",
"241 466 CURVE",
"251 489 LINE",
"238 498 OFFCURVE",
"225 504 OFFCURVE",
"201 504 CURVE SMOOTH",
"128 504 OFFCURVE",
"81 438 OFFCURVE",
"81 331 CURVE"
);
},
{
closed = 1;
nodes = (
"94 0 LINE",
"94 500 LINE",
"72 500 LINE",
"72 0 LINE"
);
}
);
width = 278;
},
{
associatedMasterId = "4E2227F3-52E4-4048-A8EE-327B486EF0A4";
layerId = "0231DC7A-BAB0-489B-A1F9-3A50B9D86C74";
name = "{100,5}";
paths = (
{
closed = 1;
nodes = (
"153 304 LINE",
"153 360 OFFCURVE",
"188 402 OFFCURVE",
"236 408 CURVE SMOOTH",
"259 411 OFFCURVE",
"282 405 OFFCURVE",
"291 400 CURVE",
"324 499 LINE",
"311 508 OFFCURVE",
"295 515 OFFCURVE",
"262 515 CURVE SMOOTH",
"165 515 OFFCURVE",
"113 412 OFFCURVE",
"113 304 CURVE"
);
},
{
closed = 1;
nodes = (
"153 0 LINE",
"153 510 LINE",
"54 510 LINE",
"54 0 LINE"
);
}
);
width = 331;
}
);
leftKerningGroup = n;
rightKerningGroup = r;
unicode = 0072;
},
{
color = 3;
glyphname = s;
lastChange = "2017-03-09 09:05:29 +0000";
layers = (
{
anchors = (
{
name = top;
position = "{231, 504}";
}
);
hints = (
{
horizontal = 1;
origin = "{0, 20}";
target = "{0, 11}";
},
{
origin = "{0, 23}";
target = "{0, 8}";
},
{
origin = "{0, 14}";
target = "{0, 17}";
},
{
horizontal = 1;
origin = "{0, 41}";
target = "{0, 32}";
},
{
origin = "{0, 29}";
target = "{0, 2}";
},
{
origin = "{0, 38}";
target = "{0, 35}";
}
);
layerId = "262880E7-CFE1-4BDA-902E-E24798F3240A";
paths = (
{
closed = 1;
nodes = (
"332 -4 OFFCURVE",
"396 53 OFFCURVE",
"396 130 CURVE SMOOTH",
"396 218 OFFCURVE",
"311 241 OFFCURVE",
"230 267 CURVE SMOOTH",
"155 291 OFFCURVE",
"90 313 OFFCURVE",
"90 379 CURVE SMOOTH",
"90 440 OFFCURVE",
"145 483 OFFCURVE",
"229 483 CURVE SMOOTH",
"316 483 OFFCURVE",
"372 437 OFFCURVE",
"372 379 CURVE SMOOTH",
"372 366 LINE",
"394 366 LINE",
"394 379 LINE SMOOTH",
"394 450 OFFCURVE",
"329 504 OFFCURVE",
"230 504 CURVE SMOOTH",
"134 504 OFFCURVE",
"68 454 OFFCURVE",
"68 378 CURVE SMOOTH",
"68 297 OFFCURVE",
"143 271 OFFCURVE",
"225 245 CURVE SMOOTH",
"300 221 OFFCURVE",
"374 202 OFFCURVE",
"374 129 CURVE SMOOTH",
"374 65 OFFCURVE",
"317 17 OFFCURVE",
"232 17 CURVE SMOOTH",
"145 17 OFFCURVE",
"88 67 OFFCURVE",
"88 122 CURVE SMOOTH",
"88 147 LINE",
"66 147 LINE",
"66 122 LINE SMOOTH",
"66 54 OFFCURVE",
"133 -4 OFFCURVE",
"233 -4 CURVE SMOOTH"
);
}
);
width = 458;
},
{
anchors = (
{
name = top;
position = "{213, 528}";
}
);
layerId = "4E2227F3-52E4-4048-A8EE-327B486EF0A4";
paths = (
{
closed = 1;
nodes = (
"344 -8 OFFCURVE",
"427 52 OFFCURVE",
"427 151 CURVE SMOOTH",
"427 253 OFFCURVE",
"338 285 OFFCURVE",
"267 306 CURVE SMOOTH",
"240 314 OFFCURVE",
"197 327 OFFCURVE",
"197 357 CURVE SMOOTH",
"197 368 OFFCURVE",
"203 383 OFFCURVE",
"218 383 CURVE SMOOTH",
"230 383 OFFCURVE",
"240 374 OFFCURVE",
"240 357 CURVE SMOOTH",
"240 336 LINE",
"415 336 LINE",
"415 346 LINE SMOOTH",
"415 455 OFFCURVE",
"336 528 OFFCURVE",
"213 528 CURVE SMOOTH",
"96 528 OFFCURVE",
"17 463 OFFCURVE",
"17 358 CURVE SMOOTH",
"17 258 OFFCURVE",
"89 215 OFFCURVE",
"145 197 CURVE SMOOTH",
"188 183 OFFCURVE",
"238 177 OFFCURVE",
"238 149 CURVE SMOOTH",
"238 138 OFFCURVE",
"231 130 OFFCURVE",
"219 130 CURVE SMOOTH",
"207 130 OFFCURVE",
"190 139 OFFCURVE",
"190 161 CURVE SMOOTH",
"190 174 LINE",
"10 174 LINE",
"10 156 LINE",
"10 58 OFFCURVE",
"93 -8 OFFCURVE",
"221 -8 CURVE SMOOTH"
);
}
);
width = 437;
},
{
anchors = (
{
name = top;
position = "{250, 528}";
}
);
layerId = "FFFA8D72-12AC-4CE0-B2CA-57A29829F4DA";
paths = (
{
closed = 1;
nodes = (
"399 -8 OFFCURVE",
"496 49 OFFCURVE",
"496 155 CURVE SMOOTH",
"496 230 OFFCURVE",
"461 272 OFFCURVE",
"385 299 CURVE SMOOTH",
"300 329 OFFCURVE",
"202 317 OFFCURVE",
"202 355 CURVE SMOOTH",
"202 373 OFFCURVE",
"225 383 OFFCURVE",
"254 383 CURVE SMOOTH",
"288 383 OFFCURVE",
"309 369 OFFCURVE",
"309 347 CURVE SMOOTH",
"309 336 LINE",
"484 336 LINE",
"484 347 LINE SMOOTH",
"484 456 OFFCURVE",
"392 528 OFFCURVE",
"250 528 CURVE SMOOTH",
"115 528 OFFCURVE",
"22 459 OFFCURVE",
"22 356 CURVE SMOOTH",
"22 287 OFFCURVE",
"57 250 OFFCURVE",
"108 223 CURVE SMOOTH",
"190 180 OFFCURVE",
"307 193 OFFCURVE",
"307 159 CURVE SMOOTH",
"307 142 OFFCURVE",
"288 130 OFFCURVE",
"256 130 CURVE SMOOTH",
"222 130 OFFCURVE",
"195 144 OFFCURVE",
"195 166 CURVE SMOOTH",
"195 177 LINE",
"15 177 LINE",
"15 153 LINE",
"15 56 OFFCURVE",
"109 -8 OFFCURVE",
"258 -8 CURVE SMOOTH"
);
}
);
width = 511;
},
{
anchors = (
{
name = top;
position = "{172, 504}";
}
);
layerId = "DCBE1F7B-116A-43E0-B7B4-8657BA77D8B5";
paths = (
{
closed = 1;
nodes = (
"251 -4 OFFCURVE",
"301 47 OFFCURVE",
"301 123 CURVE SMOOTH",
"301 212 OFFCURVE",
"235 238 OFFCURVE",
"173 264 CURVE SMOOTH",
"119 287 OFFCURVE",
"69 310 OFFCURVE",
"69 378 CURVE SMOOTH",
"69 441 OFFCURVE",
"110 483 OFFCURVE",
"172 483 CURVE SMOOTH",
"236 483 OFFCURVE",
"278 437 OFFCURVE",
"278 379 CURVE SMOOTH",
"278 366 LINE",
"299 366 LINE",
"299 379 LINE SMOOTH",
"299 450 OFFCURVE",
"250 504 OFFCURVE",
"173 504 CURVE SMOOTH",
"98 504 OFFCURVE",
"47 454 OFFCURVE",
"47 378 CURVE SMOOTH",
"47 294 OFFCURVE",
"106 268 OFFCURVE",
"167 243 CURVE SMOOTH",
"225 219 OFFCURVE",
"279 196 OFFCURVE",
"279 123 CURVE SMOOTH",
"279 59 OFFCURVE",
"238 17 OFFCURVE",
"175 17 CURVE SMOOTH",
"108 17 OFFCURVE",
"67 61 OFFCURVE",
"67 116 CURVE SMOOTH",
"67 130 LINE",
"45 130 LINE",
"45 116 LINE SMOOTH",
"45 48 OFFCURVE",
"97 -4 OFFCURVE",
"175 -4 CURVE SMOOTH"
);
}
);
width = 346;
},
{
anchors = (
{
name = top;
position = "{233, 515}";
}
);
associatedMasterId = "4E2227F3-52E4-4048-A8EE-327B486EF0A4";
layerId = "85F9CC44-E494-4B9A-8AA4-6569A0BE88A1";
name = "{100,5}";
paths = (
{
closed = 1;
nodes = (
"357 -6 OFFCURVE",
"436 51 OFFCURVE",
"436 143 CURVE SMOOTH",
"436 249 OFFCURVE",
"332 278 OFFCURVE",
"246 301 CURVE SMOOTH",
"183 318 OFFCURVE",
"136 333 OFFCURVE",
"136 375 CURVE SMOOTH",
"136 414 OFFCURVE",
"176 436 OFFCURVE",
"232 436 CURVE SMOOTH",
"298 436 OFFCURVE",
"336 405 OFFCURVE",
"336 369 CURVE SMOOTH",
"336 357 LINE",
"430 357 LINE",
"430 369 LINE SMOOTH",
"430 453 OFFCURVE",
"352 515 OFFCURVE",
"233 515 CURVE SMOOTH",
"119 515 OFFCURVE",
"40 459 OFFCURVE",
"40 367 CURVE SMOOTH",
"40 263 OFFCURVE",
"140 232 OFFCURVE",
"228 208 CURVE SMOOTH",
"288 191 OFFCURVE",
"336 178 OFFCURVE",
"336 136 CURVE SMOOTH",
"336 99 OFFCURVE",
"297 70 OFFCURVE",
"237 70 CURVE SMOOTH",
"175 70 OFFCURVE",
"132 103 OFFCURVE",
"132 138 CURVE SMOOTH",
"132 152 LINE",
"36 152 LINE",
"36 132 LINE SMOOTH",
"36 55 OFFCURVE",
"115 -6 OFFCURVE",
"238 -6 CURVE SMOOTH"
);
}
);
width = 472;
},
{
anchors = (
{
name = top;
position = "{186, 515}";
}
);
associatedMasterId = "4E2227F3-52E4-4048-A8EE-327B486EF0A4";
layerId = "785EF2C0-A975-4A92-811F-C78DC21C62C7";
name = "{100,3}";
paths = (
{
closed = 1;
nodes = (
"290 -6 OFFCURVE",
"354 49 OFFCURVE",
"354 136 CURVE SMOOTH",
"354 233 OFFCURVE",
"273 268 OFFCURVE",
"217 292 CURVE SMOOTH",
"167 314 OFFCURVE",
"123 330 OFFCURVE",
"123 373 CURVE SMOOTH",
"123 405 OFFCURVE",
"146 436 OFFCURVE",
"188 436 CURVE SMOOTH",
"227 436 OFFCURVE",
"254 408 OFFCURVE",
"254 373 CURVE SMOOTH",
"254 355 LINE",
"347 355 LINE",
"347 368 LINE SMOOTH",
"347 458 OFFCURVE",
"286 515 OFFCURVE",
"186 515 CURVE SMOOTH",
"90 515 OFFCURVE",
"27 462 OFFCURVE",
"27 370 CURVE SMOOTH",
"27 269 OFFCURVE",
"105 236 OFFCURVE",
"158 214 CURVE SMOOTH",
"206 194 OFFCURVE",
"254 177 OFFCURVE",
"254 131 CURVE SMOOTH",
"254 97 OFFCURVE",
"229 70 OFFCURVE",
"189 70 CURVE SMOOTH",
"148 70 OFFCURVE",
"118 97 OFFCURVE",
"118 132 CURVE SMOOTH",
"118 149 LINE",
"23 149 LINE",
"23 130 LINE",
"23 47 OFFCURVE",
"86 -6 OFFCURVE",
"187 -6 CURVE SMOOTH"
);
}
);
width = 378;
}
);
leftKerningGroup = s;
rightKerningGroup = s;
unicode = 0073;
},
{
glyphname = t;
lastChange = "2017-03-08 11:35:53 +0000";
layers = (
{
hints = (
{
horizontal = 1;
origin = "{1, 1}";
target = "{1, 0}";
},
{
origin = "{0, 7}";
target = "{0, 6}";
},
{
horizontal = 1;
origin = "{0, 0}";
target = "{0, 1}";
}
);
layerId = "262880E7-CFE1-4BDA-902E-E24798F3240A";
paths = (
{
closed = 1;
nodes = (
"266 0 LINE",
"266 21 LINE",
"237 21 LINE SMOOTH",
"166 21 OFFCURVE",
"129 43 OFFCURVE",
"129 123 CURVE SMOOTH",
"129 626 LINE",
"107 626 LINE",
"107 124 LINE SMOOTH",
"107 23 OFFCURVE",
"161 0 OFFCURVE",
"237 0 CURVE SMOOTH"
);
},
{
closed = 1;
nodes = (
"264 479 LINE",
"264 500 LINE",
"33 500 LINE",
"33 479 LINE"
);
}
);
width = 299;
},
{
layerId = "4E2227F3-52E4-4048-A8EE-327B486EF0A4";
paths = (
{
closed = 1;
nodes = (
"282 7 LINE",
"282 169 LINE",
"265 169 LINE",
"247 168 OFFCURVE",
"234 173 OFFCURVE",
"234 199 CURVE",
"234 650 LINE",
"54 650 LINE",
"54 116 LINE",
"54 17 OFFCURVE",
"121 -11 OFFCURVE",
"219 0 CURVE SMOOTH"
);
},
{
closed = 1;
nodes = (
"297 390 LINE",
"297 520 LINE",
"6 520 LINE",
"6 390 LINE"
);
}
);
width = 303;
},
{
layerId = "FFFA8D72-12AC-4CE0-B2CA-57A29829F4DA";
paths = (
{
closed = 1;
nodes = (
"351 5 LINE",
"351 162 LINE",
"299 164 LINE",
"272 165 OFFCURVE",
"263 185 OFFCURVE",
"263 214 CURVE",
"263 660 LINE",
"83 660 LINE",
"83 136 LINE",
"84 37 OFFCURVE",
"151 -2 OFFCURVE",
"248 0 CURVE"
);
},
{
closed = 1;
nodes = (
"366 370 LINE",
"366 520 LINE",
"9 520 LINE",
"9 370 LINE"
);
}
);
width = 375;
},
{
layerId = "DCBE1F7B-116A-43E0-B7B4-8657BA77D8B5";
paths = (
{
closed = 1;
nodes = (
"207 0 LINE",
"207 21 LINE",
"186 21 LINE SMOOTH",
"133 21 OFFCURVE",
"106 43 OFFCURVE",
"106 123 CURVE SMOOTH",
"106 626 LINE",
"83 626 LINE",
"83 124 LINE SMOOTH",
"83 23 OFFCURVE",
"124 0 OFFCURVE",
"184 0 CURVE SMOOTH"
);
},
{
closed = 1;
nodes = (
"207 479 LINE",
"207 500 LINE",
"27 500 LINE",
"27 479 LINE"
);
}
);
width = 234;
}
);
leftKerningGroup = t;
rightKerningGroup = t;
unicode = 0074;
},
{
glyphname = u;
lastChange = "2017-03-08 11:35:53 +0000";
layers = (
{
anchors = (
{
name = top;
position = "{235, 500}";
}
);
hints = (
{
origin = "{0, 11}";
target = "{0, 10}";
},
{
origin = "{1, 2}";
target = "{1, 1}";
},
{
horizontal = 1;
origin = "{0, 15}";
target = "{0, 6}";
}
);
layerId = "262880E7-CFE1-4BDA-902E-E24798F3240A";
paths = (
{
closed = 1;
nodes = (
"332 -7 OFFCURVE",
"400 57 OFFCURVE",
"400 161 CURVE",
"382 161 LINE",
"382 74 OFFCURVE",
"323 14 OFFCURVE",
"232 14 CURVE SMOOTH",
"147 14 OFFCURVE",
"88 71 OFFCURVE",
"88 161 CURVE SMOOTH",
"88 500 LINE",
"66 500 LINE",
"66 158 LINE SMOOTH",
"66 57 OFFCURVE",
"133 -7 OFFCURVE",
"229 -7 CURVE SMOOTH"
);
},
{
closed = 1;
nodes = (
"404 0 LINE",
"404 500 LINE",
"382 500 LINE",
"382 0 LINE"
);
}
);
width = 492;
},
{
anchors = (
{
name = top;
position = "{221, 520}";
}
);
layerId = "4E2227F3-52E4-4048-A8EE-327B486EF0A4";
paths = (
{
closed = 1;
nodes = (
"217 -8 OFFCURVE",
"274 8 OFFCURVE",
"273 185 CURVE",
"244 185 LINE",
"244 164 OFFCURVE",
"236 153 OFFCURVE",
"221 153 CURVE SMOOTH",
"207 153 OFFCURVE",
"200 164 OFFCURVE",
"200 185 CURVE SMOOTH",
"200 520 LINE",
"12 520 LINE",
"12 144 LINE SMOOTH",
"12 31 OFFCURVE",
"84 -8 OFFCURVE",
"154 -8 CURVE SMOOTH"
);
},
{
closed = 1;
nodes = (
"432 0 LINE",
"432 520 LINE",
"244 520 LINE",
"244 0 LINE"
);
}
);
width = 448;
},
{
anchors = (
{
name = top;
position = "{262, 520}";
}
);
layerId = "FFFA8D72-12AC-4CE0-B2CA-57A29829F4DA";
paths = (
{
closed = 1;
nodes = (
"322 -8 OFFCURVE",
"373 63 OFFCURVE",
"373 220 CURVE",
"319 220 LINE",
"319 180 OFFCURVE",
"298 153 OFFCURVE",
"262 153 CURVE SMOOTH",
"216 153 OFFCURVE",
"206 181 OFFCURVE",
"206 221 CURVE SMOOTH",
"206 520 LINE",
"18 520 LINE",
"18 158 LINE SMOOTH",
"18 31 OFFCURVE",
"122 -8 OFFCURVE",
"194 -8 CURVE SMOOTH"
);
},
{
closed = 1;
nodes = (
"507 0 LINE",
"507 520 LINE",
"319 520 LINE",
"319 0 LINE"
);
}
);
width = 531;
},
{
anchors = (
{
name = top;
position = "{184, 500}";
}
);
layerId = "DCBE1F7B-116A-43E0-B7B4-8657BA77D8B5";
paths = (
{
closed = 1;
nodes = (
"260 -7 OFFCURVE",
"310 49 OFFCURVE",
"310 154 CURVE",
"293 154 LINE",
"293 67 OFFCURVE",
"250 14 OFFCURVE",
"182 14 CURVE SMOOTH",
"115 14 OFFCURVE",
"76 57 OFFCURVE",
"76 143 CURVE SMOOTH",
"76 500 LINE",
"54 500 LINE",
"54 138 LINE SMOOTH",
"54 41 OFFCURVE",
"103 -7 OFFCURVE",
"182 -7 CURVE SMOOTH"
);
},
{
closed = 1;
nodes = (
"315 0 LINE",
"315 500 LINE",
"293 500 LINE",
"293 0 LINE"
);
}
);
width = 387;
},
{
anchors = (
{
name = top;
position = "{248, 509}";
}
);
associatedMasterId = "262880E7-CFE1-4BDA-902E-E24798F3240A";
hints = (
{
origin = "{0, 11}";
target = "{0, 10}";
},
{
origin = "{1, 2}";
target = "{1, 1}";
},
{
horizontal = 1;
origin = "{0, 15}";
target = "{0, 6}";
}
);
layerId = "9C4B8252-3DCE-4743-8175-D3E0ED97011B";
name = "{100,5}";
paths = (
{
closed = 1;
nodes = (
"336 -7 OFFCURVE",
"405 50 OFFCURVE",
"405 189 CURVE",
"353 189 LINE",
"353 123 OFFCURVE",
"311 79 OFFCURVE",
"245 79 CURVE SMOOTH",
"179 79 OFFCURVE",
"143 123 OFFCURVE",
"143 189 CURVE SMOOTH",
"143 509 LINE",
"44 509 LINE",
"44 158 LINE SMOOTH",
"44 47 OFFCURVE",
"129 -7 OFFCURVE",
"231 -7 CURVE SMOOTH"
);
},
{
closed = 1;
nodes = (
"452 0 LINE",
"452 509 LINE",
"353 509 LINE",
"353 0 LINE"
);
}
);
width = 510;
}
);
leftKerningGroup = u;
unicode = 0075;
},
{
glyphname = v;
lastChange = "2017-03-10 11:33:50 +0000";
layers = (
{
hints = (
{
origin = "{0, 5}";
target = "{0, 4}";
},
{
origin = "{0, 6}";
target = "{0, 0}";
},
{
origin = "{0, 2}";
target = "{0, 1}";
}
);
layerId = "262880E7-CFE1-4BDA-902E-E24798F3240A";
paths = (
{
closed = 1;
nodes = (
"227 0 LINE",
"398 500 LINE",
"373 500 LINE",
"216 33 LINE",
"58 500 LINE",
"33 500 LINE",
"205 0 LINE"
);
}
);
width = 431;
},
{
layerId = "4E2227F3-52E4-4048-A8EE-327B486EF0A4";
paths = (
{
closed = 1;
nodes = (
"336 0 LINE",
"461 518 LINE",
"257 520 LINE",
"232 256 LINE",
"207 520 LINE",
"3 520 LINE",
"128 0 LINE"
);
}
);
width = 464;
},
{
layerId = "FFFA8D72-12AC-4CE0-B2CA-57A29829F4DA";
paths = (
{
closed = 1;
nodes = (
"368 0 LINE",
"529 518 LINE",
"325 520 LINE",
"266 245 LINE",
"207 520 LINE",
"3 520 LINE",
"165 0 LINE"
);
}
);
width = 532;
},
{
layerId = "DCBE1F7B-116A-43E0-B7B4-8657BA77D8B5";
paths = (
{
closed = 1;
nodes = (
"181 0 LINE",
"310 500 LINE",
"285 500 LINE",
"169 33 LINE",
"52 500 LINE",
"27 500 LINE",
"158 0 LINE"
);
}
);
width = 337;
}
);
leftKerningGroup = v;
rightKerningGroup = v;
unicode = 0076;
},
{
glyphname = w;
lastChange = "2017-03-10 12:51:10 +0000";
layers = (
{
hints = (
{
origin = "{0, 11}";
target = "{0, 10}";
},
{
origin = "{0, 12}";
target = "{0, 0}";
},
{
origin = "{0, 8}";
target = "{0, 7}";
},
{
origin = "{0, 2}";
target = "{0, 3}";
},
{
origin = "{0, 5}";
target = "{0, 4}";
}
);
layerId = "262880E7-CFE1-4BDA-902E-E24798F3240A";
paths = (
{
closed = 1;
nodes = (
"197 0 LINE",
"329 461 LINE",
"462 0 LINE",
"484 0 LINE",
"627 500 LINE",
"605 500 LINE",
"473 27 LINE",
"340 500 LINE",
"318 500 LINE",
"186 27 LINE",
"55 500 LINE",
"33 500 LINE",
"175 0 LINE"
);
}
);
width = 660;
},
{
layerId = "4E2227F3-52E4-4048-A8EE-327B486EF0A4";
paths = (
{
closed = 1;
nodes = (
"291 0 LINE",
"318 211 LINE",
"347 0 LINE",
"528 0 LINE",
"640 518 LINE",
"462 520 LINE",
"435 256 LINE",
"403 520 LINE",
"242 520 LINE",
"212 256 LINE",
"184 520 LINE",
"3 520 LINE",
"117 0 LINE"
);
}
);
width = 643;
},
{
layerId = "FFFA8D72-12AC-4CE0-B2CA-57A29829F4DA";
paths = (
{
closed = 1;
nodes = (
"346 0 LINE",
"396 223 LINE",
"458 0 LINE",
"641 0 LINE",
"797 518 LINE",
"603 520 LINE",
"545 251 LINE",
"480 519 LINE",
"310 519 LINE",
"252 251 LINE",
"197 520 LINE",
"3 520 LINE",
"156 0 LINE"
);
}
);
width = 800;
},
{
layerId = "DCBE1F7B-116A-43E0-B7B4-8657BA77D8B5";
paths = (
{
closed = 1;
nodes = (
"158 0 LINE",
"254 461 LINE",
"352 0 LINE",
"374 0 LINE",
"484 500 LINE",
"462 500 LINE",
"363 27 LINE",
"265 500 LINE",
"243 500 LINE",
"146 27 LINE",
"49 500 LINE",
"27 500 LINE",
"135 0 LINE"
);
}
);
width = 511;
}
);
leftKerningGroup = v;
rightKerningGroup = v;
unicode = 0077;
},
{
glyphname = x;
lastChange = "2017-03-10 11:33:59 +0000";
layers = (
{
hints = (
{
origin = "{0, 9}";
target = "{0, 8}";
},
{
origin = "{0, 6}";
target = "{0, 5}";
},
{
origin = "{0, 11}";
target = "{0, 0}";
},
{
origin = "{0, 2}";
target = "{0, 3}";
}
);
layerId = "262880E7-CFE1-4BDA-902E-E24798F3240A";
paths = (
{
closed = 1;
nodes = (
"58 0 LINE",
"220 233 LINE",
"381 0 LINE",
"407 0 LINE",
"231 250 LINE",
"407 500 LINE",
"381 500 LINE",
"220 267 LINE",
"58 500 LINE",
"33 500 LINE",
"209 250 LINE",
"33 0 LINE"
);
}
);
width = 440;
},
{
layerId = "4E2227F3-52E4-4048-A8EE-327B486EF0A4";
paths = (
{
closed = 1;
nodes = (
"197 0 LINE",
"228 105 LINE",
"259 0 LINE",
"453 0 LINE",
"334 260 LINE",
"453 520 LINE",
"259 520 LINE",
"228 420 LINE",
"197 520 LINE",
"3 520 LINE",
"122 260 LINE",
"3 0 LINE"
);
}
);
width = 456;
},
{
layerId = "FFFA8D72-12AC-4CE0-B2CA-57A29829F4DA";
paths = (
{
closed = 1;
nodes = (
"217 0 LINE",
"275 96 LINE",
"333 0 LINE",
"535 0 LINE",
"379 260 LINE",
"535 520 LINE",
"321 520 LINE",
"263 428 LINE",
"205 520 LINE",
"3 520 LINE",
"159 260 LINE",
"3 0 LINE"
);
}
);
width = 538;
},
{
layerId = "DCBE1F7B-116A-43E0-B7B4-8657BA77D8B5";
paths = (
{
closed = 1;
nodes = (
"52 0 LINE",
"172 233 LINE",
"292 0 LINE",
"316 0 LINE",
"183 250 LINE",
"316 500 LINE",
"292 500 LINE",
"172 267 LINE",
"52 500 LINE",
"27 500 LINE",
"161 250 LINE",
"27 0 LINE"
);
}
);
width = 343;
}
);
leftKerningGroup = x;
unicode = 0078;
},
{
glyphname = y;
lastChange = "2017-03-10 11:34:12 +0000";
layers = (
{
anchors = (
{
name = top;
position = "{218, 500}";
}
);
hints = (
{
origin = "{0, 8}";
target = "{0, 7}";
},
{
origin = "{0, 5}";
target = "{0, 4}";
},
{
horizontal = 1;
origin = "{0, 14}";
target = "{0, 13}";
}
);
layerId = "262880E7-CFE1-4BDA-902E-E24798F3240A";
paths = (
{
closed = 1;
nodes = (
"75 -200 LINE",
"140 -200 OFFCURVE",
"166 -185 OFFCURVE",
"208 -62 CURVE SMOOTH",
"402 500 LINE",
"380 500 LINE",
"219 27 LINE",
"55 500 LINE",
"33 500 LINE",
"208 0 LINE",
"161 -147 OFFCURVE",
"148 -178 OFFCURVE",
"75 -179 CURVE",
"61 -179 LINE",
"61 -200 LINE"
);
}
);
width = 435;
},
{
anchors = (
{
name = top;
position = "{226, 520}";
}
);
layerId = "4E2227F3-52E4-4048-A8EE-327B486EF0A4";
paths = (
{
closed = 1;
nodes = (
"37 -199 LINE",
"244 -199 OFFCURVE",
"281 -140 OFFCURVE",
"320 -2 CURVE",
"450 518 LINE",
"248 520 LINE",
"227 252 LINE",
"204 520 LINE",
"3 520 LINE",
"132 0 LINE",
"140 -40 OFFCURVE",
"102 -45 OFFCURVE",
"34 -45 CURVE",
"25 -45 LINE",
"25 -199 LINE"
);
}
);
width = 453;
},
{
anchors = (
{
name = top;
position = "{260, 533}";
}
);
layerId = "FFFA8D72-12AC-4CE0-B2CA-57A29829F4DA";
paths = (
{
closed = 1;
nodes = (
"45 -199 LINE",
"261 -199 OFFCURVE",
"303 -140 OFFCURVE",
"350 -2 CURVE",
"519 520 LINE",
"318 520 LINE",
"262 252 LINE",
"203 520 LINE",
"3 520 LINE",
"167 0 LINE",
"164 -40 OFFCURVE",
"125 -45 OFFCURVE",
"42 -45 CURVE",
"31 -45 LINE",
"31 -199 LINE"
);
}
);
width = 522;
},
{
anchors = (
{
name = top;
position = "{171, 500}";
}
);
layerId = "DCBE1F7B-116A-43E0-B7B4-8657BA77D8B5";
paths = (
{
closed = 1;
nodes = (
"59 -200 LINE",
"113 -200 OFFCURVE",
"134 -185 OFFCURVE",
"167 -62 CURVE SMOOTH",
"314 500 LINE",
"291 500 LINE",
"171 27 LINE",
"50 500 LINE",
"27 500 LINE",
"160 0 LINE",
"125 -147 OFFCURVE",
"115 -178 OFFCURVE",
"59 -179 CURVE",
"48 -179 LINE",
"48 -200 LINE"
);
}
);
width = 341;
}
);
leftKerningGroup = v;
rightKerningGroup = v;
unicode = 0079;
},
{
glyphname = z;
lastChange = "2017-03-08 11:35:53 +0000";
layers = (
{
anchors = (
{
name = top;
position = "{205, 509}";
}
);
hints = (
{
horizontal = 1;
origin = "{0, 5}";
target = "{0, 6}";
},
{
horizontal = 1;
origin = "{0, 0}";
target = "{0, 1}";
},
{
origin = "{0, 8}";
target = "{0, 2}";
},
{
origin = "{0, 7}";
target = "{0, 3}";
}
);
layerId = "262880E7-CFE1-4BDA-902E-E24798F3240A";
paths = (
{
closed = 1;
nodes = (
"378 0 LINE",
"378 21 LINE",
"57 21 LINE",
"381 479 LINE",
"381 500 LINE",
"36 500 LINE",
"36 479 LINE",
"357 479 LINE",
"33 21 LINE",
"33 0 LINE"
);
}
);
width = 414;
},
{
anchors = (
{
name = top;
position = "{187, 533}";
}
);
layerId = "4E2227F3-52E4-4048-A8EE-327B486EF0A4";
paths = (
{
closed = 1;
nodes = (
"371 0 LINE",
"371 170 LINE",
"220 170 LINE",
"362 350 LINE",
"362 520 LINE",
"13 520 LINE",
"13 350 LINE",
"138 350 LINE",
"6 170 LINE",
"6 0 LINE"
);
}
);
width = 377;
},
{
anchors = (
{
name = top;
position = "{223, 533}";
}
);
layerId = "FFFA8D72-12AC-4CE0-B2CA-57A29829F4DA";
paths = (
{
closed = 1;
nodes = (
"440 0 LINE",
"440 170 LINE",
"223 170 LINE",
"432 350 LINE",
"432 520 LINE",
"16 520 LINE",
"16 350 LINE",
"209 350 LINE",
"9 170 LINE",
"9 0 LINE"
);
}
);
width = 449;
},
{
anchors = (
{
name = top;
position = "{164, 509}";
}
);
layerId = "DCBE1F7B-116A-43E0-B7B4-8657BA77D8B5";
paths = (
{
closed = 1;
nodes = (
"293 0 LINE",
"293 21 LINE",
"52 21 LINE",
"295 479 LINE",
"295 500 LINE",
"29 500 LINE",
"29 479 LINE",
"270 479 LINE",
"27 21 LINE",
"27 0 LINE"
);
}
);
width = 322;
}
);
leftKerningGroup = z;
unicode = 007A;
},
{
glyphname = a.alt;
lastChange = "2017-03-08 11:32:06 +0000";
layers = (
{
anchors = (
{
name = top;
position = "{233, 500}";
}
);
components = (
{
name = b.bowl;
transform = "{-1, 0, 0, 1, 397, 0}";
}
);
layerId = "262880E7-CFE1-4BDA-902E-E24798F3240A";
paths = (
{
closed = 1;
nodes = (
"400 0 LINE",
"400 500 LINE",
"378 500 LINE",
"378 0 LINE"
);
}
);
width = 485;
},
{
anchors = (
{
name = top;
position = "{225, 520}";
}
);
components = (
{
name = b.bowl;
transform = "{-1, 0, 0, 1, 277, 0}";
}
);
layerId = "4E2227F3-52E4-4048-A8EE-327B486EF0A4";
paths = (
{
closed = 1;
nodes = (
"431 0 LINE",
"431 520 LINE",
"243 520 LINE",
"243 0 LINE"
);
}
);
width = 444;
},
{
anchors = (
{
name = top;
position = "{261, 520}";
}
);
components = (
{
name = b.bowl;
transform = "{-1, 0, 0, 1, 379, 0}";
}
);
layerId = "FFFA8D72-12AC-4CE0-B2CA-57A29829F4DA";
paths = (
{
closed = 1;
nodes = (
"508 0 LINE",
"508 520 LINE",
"320 520 LINE",
"320 0 LINE"
);
}
);
width = 529;
},
{
anchors = (
{
name = top;
position = "{182, 520}";
}
);
components = (
{
name = b.bowl;
transform = "{-1, 0, 0, 1, 305, 0}";
}
);
layerId = "DCBE1F7B-116A-43E0-B7B4-8657BA77D8B5";
paths = (
{
closed = 1;
nodes = (
"312 0 LINE",
"312 500 LINE",
"290 500 LINE",
"290 0 LINE"
);
}
);
width = 381;
}
);
leftKerningGroup = d;
leftMetricsKey = "=d";
rightKerningGroup = d;
rightMetricsKey = "=d-3";
},
{
color = 3;
export = 0;
glyphname = b.bowl;
lastChange = "2017-03-10 13:23:54 +0000";
layers = (
{
guideLines = (
{
angle = -180;
position = "{169, 250}";
showMeasurement = 1;
}
);
hints = (
{
horizontal = 1;
origin = "{0, 11}";
target = "{1, 11}";
},
{
origin = "{0, 17}";
target = "{1, 5}";
},
{
origin = "{1, 17}";
target = "{0, 5}";
},
{
horizontal = 1;
origin = "{0, 23}";
target = "{1, 23}";
}
);
layerId = "262880E7-CFE1-4BDA-902E-E24798F3240A";
paths = (
{
closed = 1;
nodes = (
"256 -8 OFFCURVE",
"319 46 OFFCURVE",
"336 123 CURVE SMOOTH",
"343 155 OFFCURVE",
"342 191 OFFCURVE",
"342 248 CURVE SMOOTH",
"342 305 OFFCURVE",
"343 344 OFFCURVE",
"336 377 CURVE SMOOTH",
"320 454 OFFCURVE",
"256 508 OFFCURVE",
"168 508 CURVE SMOOTH",
"80 508 OFFCURVE",
"23 454 OFFCURVE",
"6 377 CURVE SMOOTH",
"-1 345 OFFCURVE",
"0 310 OFFCURVE",
"0 251 CURVE",
"0 195 OFFCURVE",
"-1 156 OFFCURVE",
"6 123 CURVE SMOOTH",
"22 46 OFFCURVE",
"80 -8 OFFCURVE",
"168 -8 CURVE SMOOTH"
);
},
{
closed = 1;
nodes = (
"82 13 OFFCURVE",
"34 70 OFFCURVE",
"23 135 CURVE SMOOTH",
"20 154 OFFCURVE",
"19 162 OFFCURVE",
"19 249 CURVE SMOOTH",
"19 336 OFFCURVE",
"20 344 OFFCURVE",
"23 365 CURVE SMOOTH",
"34 432 OFFCURVE",
"84 487 OFFCURVE",
"166 487 CURVE SMOOTH",
"247 487 OFFCURVE",
"304 433 OFFCURVE",
"316 365 CURVE SMOOTH",
"319 346 OFFCURVE",
"320 338 OFFCURVE",
"320 251 CURVE SMOOTH",
"320 164 OFFCURVE",
"319 156 OFFCURVE",
"316 135 CURVE SMOOTH",
"304 65 OFFCURVE",
"246 13 OFFCURVE",
"166 13 CURVE SMOOTH"
);
}
);
width = 342;
},
{
guideLines = (
{
position = "{281, 170}";
},
{
position = "{280, 350}";
},
{
position = "{282, 260}";
}
);
layerId = "4E2227F3-52E4-4048-A8EE-327B486EF0A4";
paths = (
{
closed = 1;
nodes = (
"230 -8 OFFCURVE",
"267 60 OFFCURVE",
"267 170 CURVE SMOOTH",
"267 166 OFFCURVE",
"267 235 OFFCURVE",
"267 260 CURVE",
"267 284 OFFCURVE",
"267 350 OFFCURVE",
"267 350 CURVE SMOOTH",
"267 466 OFFCURVE",
"226 528 OFFCURVE",
"130 528 CURVE SMOOTH",
"100 528 OFFCURVE",
"9 522 OFFCURVE",
"1 350 CURVE SMOOTH",
"0 345 OFFCURVE",
"0 313 OFFCURVE",
"0 260 CURVE",
"0 241 OFFCURVE",
"0 175 OFFCURVE",
"0 170 CURVE SMOOTH",
"5 -2 OFFCURVE",
"100 -8 OFFCURVE",
"130 -8 CURVE SMOOTH"
);
},
{
closed = 1;
nodes = (
"44 153 OFFCURVE",
"35 166 OFFCURVE",
"35 185 CURVE SMOOTH",
"35 210 OFFCURVE",
"35 235 OFFCURVE",
"35 260 CURVE",
"35 285 OFFCURVE",
"35 310 OFFCURVE",
"35 335 CURVE SMOOTH",
"35 354 OFFCURVE",
"44 367 OFFCURVE",
"58 367 CURVE SMOOTH",
"71 367 OFFCURVE",
"79 354 OFFCURVE",
"79 335 CURVE SMOOTH",
"79 310 OFFCURVE",
"79 285 OFFCURVE",
"79 260 CURVE SMOOTH",
"79 235 OFFCURVE",
"79 210 OFFCURVE",
"79 185 CURVE SMOOTH",
"79 166 OFFCURVE",
"71 153 OFFCURVE",
"58 153 CURVE SMOOTH"
);
}
);
width = 267;
},
{
guideLines = (
{
position = "{260, 381}";
},
{
position = "{260, 186}";
}
);
layerId = "FFFA8D72-12AC-4CE0-B2CA-57A29829F4DA";
paths = (
{
closed = 1;
nodes = (
"265 -10 OFFCURVE",
"324 48 OFFCURVE",
"349 137 CURVE SMOOTH",
"359 173 OFFCURVE",
"364 214 OFFCURVE",
"364 259 CURVE SMOOTH",
"364 304 OFFCURVE",
"359 345 OFFCURVE",
"349 381 CURVE SMOOTH",
"324 470 OFFCURVE",
"265 528 OFFCURVE",
"178 528 CURVE SMOOTH",
"78 528 OFFCURVE",
"32 451 OFFCURVE",
"15 371 CURVE SMOOTH",
"7 334 OFFCURVE",
"4 289 OFFCURVE",
"4 258 CURVE SMOOTH",
"4 227 OFFCURVE",
"7 184 OFFCURVE",
"15 147 CURVE SMOOTH",
"32 68 OFFCURVE",
"77 -10 OFFCURVE",
"178 -10 CURVE SMOOTH"
);
},
{
closed = 1;
nodes = (
"101 147 OFFCURVE",
"81 156 OFFCURVE",
"70 178 CURVE SMOOTH",
"62 195 OFFCURVE",
"59 213 OFFCURVE",
"59 259 CURVE SMOOTH",
"59 297 OFFCURVE",
"61 321 OFFCURVE",
"70 340 CURVE SMOOTH",
"79 359 OFFCURVE",
"98 371 OFFCURVE",
"118 371 CURVE SMOOTH",
"136 371 OFFCURVE",
"154 362 OFFCURVE",
"165 339 CURVE SMOOTH",
"174 321 OFFCURVE",
"176 293 OFFCURVE",
"176 259 CURVE SMOOTH",
"176 224 OFFCURVE",
"174 197 OFFCURVE",
"165 178 CURVE SMOOTH",
"156 159 OFFCURVE",
"137 147 OFFCURVE",
"118 147 CURVE SMOOTH"
);
}
);
width = 360;
},
{
layerId = "DCBE1F7B-116A-43E0-B7B4-8657BA77D8B5";
paths = (
{
closed = 1;
nodes = (
"206 -8 OFFCURVE",
"260 52 OFFCURVE",
"260 135 CURVE SMOOTH",
"260 173 OFFCURVE",
"260 212 OFFCURVE",
"260 250 CURVE SMOOTH",
"260 288 OFFCURVE",
"260 327 OFFCURVE",
"260 365 CURVE SMOOTH",
"260 448 OFFCURVE",
"206 508 OFFCURVE",
"126 508 CURVE SMOOTH",
"49 508 OFFCURVE",
"-1 448 OFFCURVE",
"-1 365 CURVE SMOOTH",
"-1 327 OFFCURVE",
"-1 288 OFFCURVE",
"-1 250 CURVE SMOOTH",
"-1 212 OFFCURVE",
"-1 173 OFFCURVE",
"-1 135 CURVE SMOOTH",
"-1 52 OFFCURVE",
"49 -8 OFFCURVE",
"126 -8 CURVE SMOOTH"
);
},
{
closed = 1;
nodes = (
"60 13 OFFCURVE",
"15 63 OFFCURVE",
"15 135 CURVE SMOOTH",
"15 173 OFFCURVE",
"15 212 OFFCURVE",
"15 250 CURVE SMOOTH",
"15 288 OFFCURVE",
"15 327 OFFCURVE",
"15 365 CURVE SMOOTH",
"15 437 OFFCURVE",
"60 487 OFFCURVE",
"124 487 CURVE SMOOTH",
"191 487 OFFCURVE",
"238 437 OFFCURVE",
"238 365 CURVE SMOOTH",
"238 327 OFFCURVE",
"238 288 OFFCURVE",
"238 250 CURVE SMOOTH",
"238 212 OFFCURVE",
"238 173 OFFCURVE",
"238 135 CURVE SMOOTH",
"238 63 OFFCURVE",
"191 13 OFFCURVE",
"124 13 CURVE SMOOTH"
);
}
);
width = 260;
},
{
associatedMasterId = "262880E7-CFE1-4BDA-902E-E24798F3240A";
layerId = "EF0B346D-A35B-4C08-8775-C9E571173218";
name = "Feb 24 17, 00:34";
paths = (
{
closed = 1;
nodes = (
"273 -8 OFFCURVE",
"342 59 OFFCURVE",
"342 175 CURVE SMOOTH",
"342 325 LINE",
"342 441 OFFCURVE",
"274 508 OFFCURVE",
"172 508 CURVE SMOOTH",
"69 508 OFFCURVE",
"0 441 OFFCURVE",
"0 325 CURVE SMOOTH",
"0 175 LINE SMOOTH",
"0 59 OFFCURVE",
"68 -8 OFFCURVE",
"170 -8 CURVE SMOOTH"
);
},
{
closed = 1;
nodes = (
"79 13 OFFCURVE",
"19 71 OFFCURVE",
"19 172 CURVE SMOOTH",
"19 328 LINE SMOOTH",
"19 429 OFFCURVE",
"79 487 OFFCURVE",
"170 487 CURVE SMOOTH",
"260 487 OFFCURVE",
"320 429 OFFCURVE",
"320 328 CURVE SMOOTH",
"320 172 LINE SMOOTH",
"320 71 OFFCURVE",
"260 13 OFFCURVE",
"170 13 CURVE SMOOTH"
);
}
);
width = 342;
},
{
associatedMasterId = "DCBE1F7B-116A-43E0-B7B4-8657BA77D8B5";
layerId = "7BEC62DC-3AAA-4112-B1FE-3AFCEC97F3F2";
name = "Feb 24 17, 00:37";
paths = (
{
closed = 1;
nodes = (
"207 -8 OFFCURVE",
"260 50 OFFCURVE",
"260 138 CURVE SMOOTH",
"260 362 LINE SMOOTH",
"260 450 OFFCURVE",
"208 508 OFFCURVE",
"130 508 CURVE SMOOTH",
"51 508 OFFCURVE",
"-2 450 OFFCURVE",
"-2 362 CURVE SMOOTH",
"-2 138 LINE SMOOTH",
"-2 50 OFFCURVE",
"50 -8 OFFCURVE",
"128 -8 CURVE SMOOTH"
);
},
{
closed = 1;
nodes = (
"60 13 OFFCURVE",
"15 62 OFFCURVE",
"15 135 CURVE SMOOTH",
"15 365 LINE SMOOTH",
"15 438 OFFCURVE",
"60 487 OFFCURVE",
"127 487 CURVE SMOOTH",
"194 487 OFFCURVE",
"238 438 OFFCURVE",
"238 365 CURVE SMOOTH",
"238 135 LINE SMOOTH",
"238 62 OFFCURVE",
"194 13 OFFCURVE",
"127 13 CURVE SMOOTH"
);
}
);
width = 260;
},
{
associatedMasterId = "FFFA8D72-12AC-4CE0-B2CA-57A29829F4DA";
layerId = "6F2127BE-25A5-48B6-8653-0DC69C1489C9";
name = "Feb 24 17, 00:39";
paths = (
{
closed = 1;
nodes = (
"284 -8 OFFCURVE",
"360 74 OFFCURVE",
"360 232 CURVE SMOOTH",
"360 288 LINE SMOOTH",
"360 445 OFFCURVE",
"284 528 OFFCURVE",
"176 528 CURVE SMOOTH",
"52 528 OFFCURVE",
"0 420 OFFCURVE",
"0 280 CURVE SMOOTH",
"0 240 LINE SMOOTH",
"0 136 OFFCURVE",
"32 -8 OFFCURVE",
"176 -8 CURVE SMOOTH"
);
},
{
closed = 1;
nodes = (
"82 153 OFFCURVE",
"59 182 OFFCURVE",
"59 225 CURVE SMOOTH",
"59 295 LINE SMOOTH",
"59 338 OFFCURVE",
"82 367 OFFCURVE",
"116 367 CURVE SMOOTH",
"150 367 OFFCURVE",
"172 338 OFFCURVE",
"172 295 CURVE SMOOTH",
"172 225 LINE SMOOTH",
"172 182 OFFCURVE",
"150 153 OFFCURVE",
"116 153 CURVE SMOOTH"
);
}
);
width = 360;
},
{
associatedMasterId = "DCBE1F7B-116A-43E0-B7B4-8657BA77D8B5";
layerId = "5C941D39-E37C-46A0-BD59-94FD02728DC9";
name = "Feb 24 17, 00:48";
paths = (
{
closed = 1;
nodes = (
"207 -8 OFFCURVE",
"260 50 OFFCURVE",
"260 138 CURVE SMOOTH",
"260 362 LINE SMOOTH",
"260 450 OFFCURVE",
"208 508 OFFCURVE",
"130 508 CURVE SMOOTH",
"51 508 OFFCURVE",
"-2 450 OFFCURVE",
"-2 362 CURVE SMOOTH",
"-2 138 LINE SMOOTH",
"-2 50 OFFCURVE",
"50 -8 OFFCURVE",
"128 -8 CURVE SMOOTH"
);
},
{
closed = 1;
nodes = (
"60 13 OFFCURVE",
"15 62 OFFCURVE",
"15 135 CURVE SMOOTH",
"15 365 LINE SMOOTH",
"15 438 OFFCURVE",
"60 487 OFFCURVE",
"127 487 CURVE SMOOTH",
"194 487 OFFCURVE",
"238 438 OFFCURVE",
"238 365 CURVE SMOOTH",
"238 135 LINE SMOOTH",
"238 62 OFFCURVE",
"194 13 OFFCURVE",
"127 13 CURVE SMOOTH"
);
}
);
width = 260;
},
{
associatedMasterId = "4E2227F3-52E4-4048-A8EE-327B486EF0A4";
guideLines = (
{
position = "{281, 170}";
},
{
position = "{280, 350}";
},
{
position = "{282, 260}";
}
);
layerId = "026E7C50-79C7-4B42-8D09-400077B72FBA";
name = "Feb 24 17, 00:50";
paths = (
{
closed = 1;
nodes = (
"237 -8 OFFCURVE",
"267 56 OFFCURVE",
"267 177 CURVE SMOOTH",
"267 343 LINE SMOOTH",
"267 464 OFFCURVE",
"237 528 OFFCURVE",
"126 528 CURVE SMOOTH",
"91 528 OFFCURVE",
"0 513 OFFCURVE",
"0 323 CURVE SMOOTH",
"0 197 LINE",
"-4 7 OFFCURVE",
"91 -8 OFFCURVE",
"126 -8 CURVE SMOOTH"
);
},
{
closed = 1;
nodes = (
"42 153 OFFCURVE",
"34 164 OFFCURVE",
"34 186 CURVE SMOOTH",
"34 334 LINE SMOOTH",
"34 356 OFFCURVE",
"42 367 OFFCURVE",
"56 367 CURVE SMOOTH",
"71 367 OFFCURVE",
"79 356 OFFCURVE",
"79 334 CURVE SMOOTH",
"79 186 LINE SMOOTH",
"79 164 OFFCURVE",
"71 153 OFFCURVE",
"56 153 CURVE SMOOTH"
);
}
);
width = 267;
visible = 1;
},
{
associatedMasterId = "262880E7-CFE1-4BDA-902E-E24798F3240A";
layerId = "8878FB41-AE14-4FCC-8DF6-D93B06A89EE4";
name = "100,5} Feb 24 17, 00:53";
paths = (
{
closed = 1;
nodes = (
"269 -8 OFFCURVE",
"350 64 OFFCURVE",
"350 172 CURVE SMOOTH",
"350 338 LINE SMOOTH",
"350 445 OFFCURVE",
"271 517 OFFCURVE",
"164 517 CURVE SMOOTH",
"50 517 OFFCURVE",
"-17 435 OFFCURVE",
"-17 313 CURVE SMOOTH",
"-17 196 LINE SMOOTH",
"-17 74 OFFCURVE",
"49 -8 OFFCURVE",
"163 -8 CURVE SMOOTH"
);
},
{
closed = 1;
nodes = (
"81 78 OFFCURVE",
"38 120 OFFCURVE",
"38 183 CURVE SMOOTH",
"38 326 LINE SMOOTH",
"38 389 OFFCURVE",
"81 431 OFFCURVE",
"145 431 CURVE SMOOTH",
"209 431 OFFCURVE",
"251 389 OFFCURVE",
"251 326 CURVE SMOOTH",
"251 183 LINE SMOOTH",
"251 120 OFFCURVE",
"209 78 OFFCURVE",
"145 78 CURVE SMOOTH"
);
}
);
width = 350;
},
{
associatedMasterId = "262880E7-CFE1-4BDA-902E-E24798F3240A";
layerId = "FCCE69FF-4708-434F-BC2F-E261B33603AA";
name = "100,3} Feb 24 17, 00:53";
paths = (
{
closed = 1;
nodes = (
"208 -8 OFFCURVE",
"263 52 OFFCURVE",
"263 156 CURVE SMOOTH",
"263 353 LINE SMOOTH",
"263 457 OFFCURVE",
"209 517 OFFCURVE",
"125 517 CURVE SMOOTH",
"60 517 OFFCURVE",
"-1 482 OFFCURVE",
"-1 344 CURVE SMOOTH",
"-1 166 LINE SMOOTH",
"-1 29 OFFCURVE",
"54 -8 OFFCURVE",
"122 -8 CURVE SMOOTH"
);
},
{
closed = 1;
nodes = (
"52 78 OFFCURVE",
"24 110 OFFCURVE",
"24 159 CURVE SMOOTH",
"24 351 LINE SMOOTH",
"24 400 OFFCURVE",
"52 431 OFFCURVE",
"94 431 CURVE SMOOTH",
"137 431 OFFCURVE",
"164 400 OFFCURVE",
"164 351 CURVE SMOOTH",
"164 159 LINE SMOOTH",
"164 110 OFFCURVE",
"137 78 OFFCURVE",
"94 78 CURVE SMOOTH"
);
}
);
width = 263;
},
{
associatedMasterId = "FFFA8D72-12AC-4CE0-B2CA-57A29829F4DA";
guideLines = (
{
position = "{260, 381}";
},
{
position = "{260, 186}";
}
);
layerId = "172AF2F5-86ED-4A83-8F6B-D40B266CC052";
name = "Feb 26 17, 17:00";
paths = (
{
closed = 1;
nodes = (
"265 -10 OFFCURVE",
"324 48 OFFCURVE",
"349 137 CURVE SMOOTH",
"359 173 OFFCURVE",
"364 214 OFFCURVE",
"364 259 CURVE SMOOTH",
"364 304 OFFCURVE",
"359 345 OFFCURVE",
"349 381 CURVE SMOOTH",
"324 470 OFFCURVE",
"265 528 OFFCURVE",
"178 528 CURVE SMOOTH",
"78 528 OFFCURVE",
"32 451 OFFCURVE",
"15 371 CURVE SMOOTH",
"7 334 OFFCURVE",
"4 289 OFFCURVE",
"4 258 CURVE SMOOTH",
"4 227 OFFCURVE",
"7 184 OFFCURVE",
"15 147 CURVE SMOOTH",
"32 68 OFFCURVE",
"77 -10 OFFCURVE",
"178 -10 CURVE SMOOTH"
);
},
{
closed = 1;
nodes = (
"101 147 OFFCURVE",
"81 156 OFFCURVE",
"70 178 CURVE SMOOTH",
"62 195 OFFCURVE",
"59 213 OFFCURVE",
"59 259 CURVE SMOOTH",
"59 297 OFFCURVE",
"61 321 OFFCURVE",
"70 340 CURVE SMOOTH",
"79 359 OFFCURVE",
"98 371 OFFCURVE",
"118 371 CURVE SMOOTH",
"136 371 OFFCURVE",
"154 362 OFFCURVE",
"165 339 CURVE SMOOTH",
"174 321 OFFCURVE",
"176 293 OFFCURVE",
"176 259 CURVE SMOOTH",
"176 224 OFFCURVE",
"174 197 OFFCURVE",
"165 178 CURVE SMOOTH",
"156 159 OFFCURVE",
"137 147 OFFCURVE",
"118 147 CURVE SMOOTH"
);
}
);
width = 360;
},
{
associatedMasterId = "262880E7-CFE1-4BDA-902E-E24798F3240A";
guideLines = (
{
angle = -180;
position = "{169, 250}";
showMeasurement = 1;
}
);
layerId = "D7EADD74-8075-423E-B575-B42B6B8281B6";
name = "{100,5}";
paths = (
{
closed = 1;
nodes = (
"257 -9 OFFCURVE",
"315 40 OFFCURVE",
"341 130 CURVE SMOOTH",
"350 161 OFFCURVE",
"355 196 OFFCURVE",
"355 254 CURVE SMOOTH",
"355 311 OFFCURVE",
"350 347 OFFCURVE",
"341 379 CURVE SMOOTH",
"317 464 OFFCURVE",
"261 517 OFFCURVE",
"171 517 CURVE SMOOTH",
"80 517 OFFCURVE",
"21 464 OFFCURVE",
"1 374 CURVE SMOOTH",
"-6 342 OFFCURVE",
"-8 313 OFFCURVE",
"-8 254 CURVE",
"-8 207 OFFCURVE",
"-8 172 OFFCURVE",
"1 133 CURVE SMOOTH",
"23 38 OFFCURVE",
"85 -9 OFFCURVE",
"170 -9 CURVE SMOOTH"
);
},
{
closed = 1;
nodes = (
"94 76 OFFCURVE",
"58 106 OFFCURVE",
"45 154 CURVE SMOOTH",
"39 174 OFFCURVE",
"38 206 OFFCURVE",
"38 255 CURVE SMOOTH",
"38 303 OFFCURVE",
"39 332 OFFCURVE",
"45 353 CURVE SMOOTH",
"58 401 OFFCURVE",
"90 433 OFFCURVE",
"145 433 CURVE SMOOTH",
"199 433 OFFCURVE",
"231 402 OFFCURVE",
"245 352 CURVE SMOOTH",
"251 331 OFFCURVE",
"255 298 OFFCURVE",
"255 255 CURVE SMOOTH",
"255 212 OFFCURVE",
"251 177 OFFCURVE",
"245 156 CURVE SMOOTH",
"230 101 OFFCURVE",
"194 76 OFFCURVE",
"146 76 CURVE SMOOTH"
);
}
);
width = 350;
}
);
},
{
color = 3;
export = 0;
glyphname = n.curve;
lastChange = "2017-03-08 09:20:04 +0000";
layers = (
{
hints = (
{
origin = "{0, 14}";
target = "{0, 1}";
},
{
horizontal = 1;
origin = "{0, 4}";
target = "{0, 11}";
}
);
layerId = "262880E7-CFE1-4BDA-902E-E24798F3240A";
paths = (
{
closed = 1;
nodes = (
"334 0 LINE",
"334 340 LINE SMOOTH",
"334 439 OFFCURVE",
"267 507 OFFCURVE",
"171 507 CURVE SMOOTH",
"68 507 OFFCURVE",
"0 441 OFFCURVE",
"0 341 CURVE",
"18 339 LINE",
"18 426 OFFCURVE",
"77 486 OFFCURVE",
"168 486 CURVE SMOOTH",
"253 486 OFFCURVE",
"312 425 OFFCURVE",
"312 337 CURVE SMOOTH",
"312 0 LINE"
);
}
);
width = 334;
},
{
layerId = "4E2227F3-52E4-4048-A8EE-327B486EF0A4";
paths = (
{
closed = 1;
nodes = (
"268 0 LINE",
"268 348 LINE SMOOTH",
"268 459 OFFCURVE",
"227 528 OFFCURVE",
"126 528 CURVE SMOOTH",
"89 528 OFFCURVE",
"-1 515 OFFCURVE",
"0 335 CURVE",
"36 335 LINE",
"36 356 OFFCURVE",
"44 367 OFFCURVE",
"59 367 CURVE SMOOTH",
"73 367 OFFCURVE",
"80 356 OFFCURVE",
"80 335 CURVE SMOOTH",
"80 0 LINE"
);
}
);
width = 268;
},
{
layerId = "FFFA8D72-12AC-4CE0-B2CA-57A29829F4DA";
paths = (
{
closed = 1;
nodes = (
"340 0 LINE",
"340 341 LINE SMOOTH",
"340 460 OFFCURVE",
"274 528 OFFCURVE",
"174 528 CURVE SMOOTH",
"73 528 OFFCURVE",
"0 460 OFFCURVE",
"0 300 CURVE",
"39 300 LINE",
"39 340 OFFCURVE",
"62 367 OFFCURVE",
"96 367 CURVE SMOOTH",
"129 367 OFFCURVE",
"152 340 OFFCURVE",
"152 300 CURVE SMOOTH",
"152 0 LINE"
);
}
);
width = 332;
},
{
layerId = "DCBE1F7B-116A-43E0-B7B4-8657BA77D8B5";
paths = (
{
closed = 1;
nodes = (
"254 0 LINE",
"254 357 LINE SMOOTH",
"254 451 OFFCURVE",
"208 507 OFFCURVE",
"129 507 CURVE SMOOTH",
"51 507 OFFCURVE",
"-1 448 OFFCURVE",
"-1 346 CURVE",
"15 346 LINE",
"15 433 OFFCURVE",
"58 486 OFFCURVE",
"126 486 CURVE SMOOTH",
"193 486 OFFCURVE",
"232 437 OFFCURVE",
"232 354 CURVE SMOOTH",
"232 0 LINE"
);
}
);
width = 254;
},
{
associatedMasterId = "262880E7-CFE1-4BDA-902E-E24798F3240A";
layerId = "58D29989-F8C4-4FC9-88CA-1339BA883293";
name = "{100,5}";
paths = (
{
closed = 1;
nodes = (
"337 0 LINE",
"337 340 LINE SMOOTH",
"337 449 OFFCURVE",
"268 517 OFFCURVE",
"158 517 CURVE SMOOTH",
"58 517 OFFCURVE",
"-6 460 OFFCURVE",
"-6 321 CURVE",
"28 321 LINE",
"28 386 OFFCURVE",
"71 430 OFFCURVE",
"133 430 CURVE SMOOTH",
"196 430 OFFCURVE",
"237 385 OFFCURVE",
"237 320 CURVE SMOOTH",
"237 0 LINE"
);
}
);
width = 333;
},
{
associatedMasterId = "262880E7-CFE1-4BDA-902E-E24798F3240A";
layerId = "3393B0FA-E260-441E-B146-A4A3BFE2115F";
name = "{100,3}";
paths = (
{
closed = 1;
nodes = (
"261 0 LINE",
"261 353 LINE SMOOTH",
"261 456 OFFCURVE",
"215 517 OFFCURVE",
"131 517 CURVE SMOOTH",
"65 517 OFFCURVE",
"-8 479 OFFCURVE",
"-8 341 CURVE",
"25 341 LINE",
"25 397 OFFCURVE",
"51 430 OFFCURVE",
"95 430 CURVE SMOOTH",
"137 430 OFFCURVE",
"161 399 OFFCURVE",
"161 345 CURVE SMOOTH",
"161 0 LINE"
);
}
);
width = 261;
}
);
},
{
glyphname = zero;
lastChange = "2017-03-08 11:35:52 +0000";
layers = (
{
layerId = "262880E7-CFE1-4BDA-902E-E24798F3240A";
paths = (
{
closed = 1;
nodes = (
"387 -9 OFFCURVE",
"462 64 OFFCURVE",
"462 174 CURVE SMOOTH",
"462 526 LINE SMOOTH",
"462 636 OFFCURVE",
"387 709 OFFCURVE",
"274 709 CURVE SMOOTH",
"162 709 OFFCURVE",
"88 636 OFFCURVE",
"88 526 CURVE SMOOTH",
"88 174 LINE SMOOTH",
"88 64 OFFCURVE",
"162 -9 OFFCURVE",
"274 -9 CURVE SMOOTH"
);
},
{
closed = 1;
nodes = (
"176 12 OFFCURVE",
"110 76 OFFCURVE",
"110 172 CURVE SMOOTH",
"110 528 LINE SMOOTH",
"110 624 OFFCURVE",
"176 688 OFFCURVE",
"274 688 CURVE SMOOTH",
"374 688 OFFCURVE",
"440 624 OFFCURVE",
"440 528 CURVE SMOOTH",
"440 172 LINE SMOOTH",
"440 76 OFFCURVE",
"374 12 OFFCURVE",
"274 12 CURVE SMOOTH"
);
}
);
width = 550;
},
{
layerId = "4E2227F3-52E4-4048-A8EE-327B486EF0A4";
paths = (
{
closed = 1;
nodes = (
"358 -12 OFFCURVE",
"443 75 OFFCURVE",
"443 206 CURVE SMOOTH",
"443 494 LINE SMOOTH",
"443 625 OFFCURVE",
"358 712 OFFCURVE",
"229 712 CURVE SMOOTH",
"101 712 OFFCURVE",
"16 625 OFFCURVE",
"16 494 CURVE SMOOTH",
"16 206 LINE SMOOTH",
"16 75 OFFCURVE",
"101 -12 OFFCURVE",
"229 -12 CURVE SMOOTH"
);
},
{
closed = 1;
nodes = (
"214 149 OFFCURVE",
"204 167 OFFCURVE",
"204 195 CURVE SMOOTH",
"204 505 LINE SMOOTH",
"204 533 OFFCURVE",
"214 551 OFFCURVE",
"229 551 CURVE SMOOTH",
"245 551 OFFCURVE",
"255 533 OFFCURVE",
"255 505 CURVE SMOOTH",
"255 195 LINE SMOOTH",
"255 167 OFFCURVE",
"245 149 OFFCURVE",
"229 149 CURVE SMOOTH"
);
}
);
width = 459;
},
{
layerId = "FFFA8D72-12AC-4CE0-B2CA-57A29829F4DA";
paths = (
{
closed = 1;
nodes = (
"426 -8 OFFCURVE",
"526 75 OFFCURVE",
"526 206 CURVE SMOOTH",
"526 494 LINE SMOOTH",
"526 625 OFFCURVE",
"426 708 OFFCURVE",
"274 708 CURVE SMOOTH",
"124 708 OFFCURVE",
"24 625 OFFCURVE",
"24 494 CURVE SMOOTH",
"24 206 LINE SMOOTH",
"24 75 OFFCURVE",
"124 -8 OFFCURVE",
"274 -8 CURVE SMOOTH"
);
},
{
closed = 1;
nodes = (
"237 149 OFFCURVE",
"212 179 OFFCURVE",
"212 207 CURVE SMOOTH",
"212 493 LINE SMOOTH",
"212 521 OFFCURVE",
"237 551 OFFCURVE",
"274 551 CURVE SMOOTH",
"314 551 OFFCURVE",
"339 521 OFFCURVE",
"339 493 CURVE SMOOTH",
"339 207 LINE SMOOTH",
"339 179 OFFCURVE",
"314 149 OFFCURVE",
"274 149 CURVE SMOOTH"
);
}
);
width = 550;
},
{
layerId = "DCBE1F7B-116A-43E0-B7B4-8657BA77D8B5";
paths = (
{
closed = 1;
nodes = (
"314 -9 OFFCURVE",
"376 56 OFFCURVE",
"376 154 CURVE SMOOTH",
"376 546 LINE SMOOTH",
"376 644 OFFCURVE",
"314 709 OFFCURVE",
"223 709 CURVE SMOOTH",
"132 709 OFFCURVE",
"72 644 OFFCURVE",
"72 546 CURVE SMOOTH",
"72 154 LINE SMOOTH",
"72 56 OFFCURVE",
"132 -9 OFFCURVE",
"223 -9 CURVE SMOOTH"
);
},
{
closed = 1;
nodes = (
"146 12 OFFCURVE",
"94 68 OFFCURVE",
"94 152 CURVE SMOOTH",
"94 548 LINE SMOOTH",
"94 632 OFFCURVE",
"146 688 OFFCURVE",
"223 688 CURVE SMOOTH",
"302 688 OFFCURVE",
"354 632 OFFCURVE",
"354 548 CURVE SMOOTH",
"354 152 LINE SMOOTH",
"354 68 OFFCURVE",
"302 12 OFFCURVE",
"223 12 CURVE SMOOTH"
);
}
);
width = 448;
}
);
unicode = 0030;
},
{
glyphname = one;
lastChange = "2017-03-08 11:35:52 +0000";
layers = (
{
layerId = "262880E7-CFE1-4BDA-902E-E24798F3240A";
paths = (
{
closed = 1;
nodes = (
"213 0 LINE",
"213 700 LINE",
"191 700 LINE",
"191 0 LINE"
);
},
{
closed = 1;
nodes = (
"99 637 LINE",
"191 669 LINE",
"191 700 LINE",
"99 658 LINE"
);
}
);
width = 323;
},
{
layerId = "4E2227F3-52E4-4048-A8EE-327B486EF0A4";
paths = (
{
closed = 1;
nodes = (
"253 0 LINE",
"253 700 LINE",
"65 700 LINE",
"65 0 LINE"
);
},
{
closed = 1;
nodes = (
"18 529 LINE",
"65 529 LINE",
"65 700 LINE",
"18 673 LINE"
);
}
);
width = 273;
},
{
layerId = "FFFA8D72-12AC-4CE0-B2CA-57A29829F4DA";
paths = (
{
closed = 1;
nodes = (
"281 0 LINE",
"281 700 LINE",
"93 700 LINE",
"93 0 LINE"
);
},
{
closed = 1;
nodes = (
"27 529 LINE",
"93 529 LINE",
"93 700 LINE",
"27 673 LINE"
);
}
);
width = 311;
},
{
layerId = "DCBE1F7B-116A-43E0-B7B4-8657BA77D8B5";
paths = (
{
closed = 1;
nodes = (
"172 0 LINE",
"172 700 LINE",
"150 700 LINE",
"150 0 LINE"
);
},
{
closed = 1;
nodes = (
"81 637 LINE",
"150 669 LINE",
"150 700 LINE",
"81 658 LINE"
);
}
);
width = 262;
}
);
unicode = 0031;
},
{
glyphname = two;
lastChange = "2017-03-08 11:35:52 +0000";
layers = (
{
layerId = "262880E7-CFE1-4BDA-902E-E24798F3240A";
paths = (
{
closed = 1;
nodes = (
"428 0 LINE",
"428 21 LINE",
"103 21 LINE",
"324 323 LINE SMOOTH",
"388 410 OFFCURVE",
"420 485 OFFCURVE",
"420 544 CURVE SMOOTH",
"420 642 OFFCURVE",
"350 708 OFFCURVE",
"246 708 CURVE SMOOTH",
"145 708 OFFCURVE",
"77 642 OFFCURVE",
"77 544 CURVE SMOOTH",
"77 500 LINE",
"99 500 LINE",
"99 544 LINE",
"98 630 OFFCURVE",
"157 687 OFFCURVE",
"246 687 CURVE SMOOTH",
"337 687 OFFCURVE",
"398 630 OFFCURVE",
"398 544 CURVE SMOOTH",
"398 490 OFFCURVE",
"367 420 OFFCURVE",
"305 335 CURVE SMOOTH",
"77 21 LINE",
"77 0 LINE"
);
}
);
width = 483;
},
{
layerId = "4E2227F3-52E4-4048-A8EE-327B486EF0A4";
paths = (
{
closed = 1;
nodes = (
"453 0 LINE",
"453 170 LINE",
"275 170 LINE",
"393 311 LINE",
"442 382 OFFCURVE",
"447 425 OFFCURVE",
"447 520 CURVE SMOOTH",
"447 639 OFFCURVE",
"356 708 OFFCURVE",
"230 708 CURVE SMOOTH",
"108 708 OFFCURVE",
"21 640 OFFCURVE",
"14 520 CURVE",
"14 455 LINE",
"204 455 LINE",
"204 503 LINE",
"204 524 OFFCURVE",
"215 538 OFFCURVE",
"231 538 CURVE SMOOTH",
"246 538 OFFCURVE",
"257 524 OFFCURVE",
"257 503 CURVE SMOOTH",
"257 457 OFFCURVE",
"244 423 OFFCURVE",
"193 361 CURVE",
"18 170 LINE",
"18 0 LINE"
);
}
);
width = 463;
},
{
layerId = "FFFA8D72-12AC-4CE0-B2CA-57A29829F4DA";
paths = (
{
closed = 1;
nodes = (
"525 0 LINE",
"525 170 LINE",
"281 170 LINE",
"444 311 LINE",
"506 382 OFFCURVE",
"518 425 OFFCURVE",
"518 520 CURVE SMOOTH",
"518 633 OFFCURVE",
"418 708 OFFCURVE",
"268 708 CURVE SMOOTH",
"126 708 OFFCURVE",
"28 633 OFFCURVE",
"21 520 CURVE",
"21 455 LINE",
"211 455 LINE",
"211 498 LINE",
"211 522 OFFCURVE",
"234 538 OFFCURVE",
"269 538 CURVE SMOOTH",
"304 538 OFFCURVE",
"328 522 OFFCURVE",
"328 498 CURVE SMOOTH",
"328 457 OFFCURVE",
"309 423 OFFCURVE",
"245 361 CURVE",
"25 170 LINE",
"25 0 LINE"
);
}
);
width = 540;
},
{
layerId = "DCBE1F7B-116A-43E0-B7B4-8657BA77D8B5";
paths = (
{
closed = 1;
nodes = (
"335 0 LINE",
"335 21 LINE",
"90 21 LINE",
"257 323 LINE SMOOTH",
"305 410 OFFCURVE",
"329 485 OFFCURVE",
"329 544 CURVE SMOOTH",
"329 642 OFFCURVE",
"275 708 OFFCURVE",
"194 708 CURVE SMOOTH",
"116 708 OFFCURVE",
"63 642 OFFCURVE",
"63 544 CURVE SMOOTH",
"63 500 LINE",
"86 500 LINE",
"86 544 LINE",
"85 630 OFFCURVE",
"128 687 OFFCURVE",
"194 687 CURVE SMOOTH",
"262 687 OFFCURVE",
"307 630 OFFCURVE",
"307 544 CURVE SMOOTH",
"307 490 OFFCURVE",
"283 420 OFFCURVE",
"236 335 CURVE SMOOTH",
"63 21 LINE",
"63 0 LINE"
);
}
);
width = 380;
}
);
unicode = 0032;
},
{
glyphname = three;
lastChange = "2017-03-10 12:09:45 +0000";
layers = (
{
layerId = "262880E7-CFE1-4BDA-902E-E24798F3240A";
paths = (
{
closed = 1;
nodes = (
"77 700 LINE",
"77 679 LINE",
"399 679 LINE",
"207 416 LINE",
"218 404 LINE",
"228 406 OFFCURVE",
"239 407 OFFCURVE",
"250 407 CURVE SMOOTH",
"340 407 OFFCURVE",
"400 350 OFFCURVE",
"400 265 CURVE SMOOTH",
"400 155 LINE SMOOTH",
"400 70 OFFCURVE",
"340 13 OFFCURVE",
"250 13 CURVE SMOOTH",
"160 13 OFFCURVE",
"99 70 OFFCURVE",
"99 155 CURVE SMOOTH",
"99 201 LINE",
"77 201 LINE",
"77 158 LINE SMOOTH",
"77 58 OFFCURVE",
"146 -8 OFFCURVE",
"250 -8 CURVE SMOOTH",
"354 -8 OFFCURVE",
"422 58 OFFCURVE",
"422 158 CURVE SMOOTH",
"422 262 LINE SMOOTH",
"422 364 OFFCURVE",
"349 446 OFFCURVE",
"236 426 CURVE",
"238 419 LINE",
"425 679 LINE",
"425 700 LINE"
);
}
);
width = 513;
},
{
layerId = "4E2227F3-52E4-4048-A8EE-327B486EF0A4";
paths = (
{
closed = 1;
nodes = (
"30 700 LINE",
"30 530 LINE",
"213 530 LINE",
"84 417 LINE",
"185 312 LINE",
"201 333 OFFCURVE",
"211 340 OFFCURVE",
"227 340 CURVE SMOOTH",
"243 340 OFFCURVE",
"253 327 OFFCURVE",
"253 308 CURVE SMOOTH",
"253 185 LINE SMOOTH",
"253 166 OFFCURVE",
"243 153 OFFCURVE",
"227 153 CURVE SMOOTH",
"212 153 OFFCURVE",
"202 166 OFFCURVE",
"202 185 CURVE SMOOTH",
"202 232 LINE",
"14 232 LINE",
"14 172 LINE SMOOTH",
"14 59 OFFCURVE",
"99 -7 OFFCURVE",
"227 -7 CURVE SMOOTH",
"346 -7 OFFCURVE",
"431 59 OFFCURVE",
"431 172 CURVE SMOOTH",
"431 276 LINE SMOOTH",
"431 373 OFFCURVE",
"354 447 OFFCURVE",
"265 405 CURVE",
"263 363 LINE",
"431 530 LINE",
"431 700 LINE"
);
}
);
width = 447;
},
{
layerId = "FFFA8D72-12AC-4CE0-B2CA-57A29829F4DA";
paths = (
{
closed = 1;
nodes = (
"37 700 LINE",
"37 530 LINE",
"286 530 LINE",
"118 417 LINE",
"218 312 LINE",
"232 329 OFFCURVE",
"252 340 OFFCURVE",
"266 340 CURVE SMOOTH",
"301 340 OFFCURVE",
"325 322 OFFCURVE",
"325 291 CURVE SMOOTH",
"325 202 LINE SMOOTH",
"325 172 OFFCURVE",
"301 152 OFFCURVE",
"266 152 CURVE SMOOTH",
"232 152 OFFCURVE",
"209 172 OFFCURVE",
"209 202 CURVE SMOOTH",
"209 232 LINE",
"21 232 LINE",
"21 172 LINE SMOOTH",
"21 65 OFFCURVE",
"119 -8 OFFCURVE",
"266 -8 CURVE SMOOTH",
"408 -8 OFFCURVE",
"503 65 OFFCURVE",
"503 172 CURVE SMOOTH",
"503 276 LINE SMOOTH",
"503 383 OFFCURVE",
"408 474 OFFCURVE",
"300 415 CURVE",
"299 363 LINE",
"503 530 LINE",
"503 700 LINE"
);
}
);
width = 527;
},
{
layerId = "DCBE1F7B-116A-43E0-B7B4-8657BA77D8B5";
paths = (
{
closed = 1;
nodes = (
"63 700 LINE",
"63 679 LINE",
"306 679 LINE",
"161 416 LINE",
"172 404 LINE",
"180 406 OFFCURVE",
"188 407 OFFCURVE",
"197 407 CURVE SMOOTH",
"264 407 OFFCURVE",
"308 350 OFFCURVE",
"308 265 CURVE SMOOTH",
"308 155 LINE SMOOTH",
"308 70 OFFCURVE",
"264 13 OFFCURVE",
"197 13 CURVE SMOOTH",
"130 13 OFFCURVE",
"85 70 OFFCURVE",
"85 155 CURVE SMOOTH",
"85 201 LINE",
"63 201 LINE",
"63 158 LINE SMOOTH",
"63 58 OFFCURVE",
"116 -8 OFFCURVE",
"197 -8 CURVE SMOOTH",
"277 -8 OFFCURVE",
"330 58 OFFCURVE",
"330 158 CURVE SMOOTH",
"330 262 LINE SMOOTH",
"330 364 OFFCURVE",
"274 446 OFFCURVE",
"188 426 CURVE",
"190 419 LINE",
"332 679 LINE",
"332 700 LINE"
);
}
);
width = 404;
}
);
unicode = 0033;
},
{
glyphname = four;
lastChange = "2017-03-08 11:35:52 +0000";
layers = (
{
layerId = "262880E7-CFE1-4BDA-902E-E24798F3240A";
paths = (
{
closed = 1;
nodes = (
"341 -7 LINE",
"363 -7 LINE",
"363 415 LINE",
"341 415 LINE"
);
},
{
closed = 1;
nodes = (
"66 223 LINE",
"286 700 LINE",
"264 700 LINE",
"44 223 LINE",
"44 202 LINE",
"417 202 LINE",
"417 223 LINE"
);
}
);
width = 461;
},
{
layerId = "4E2227F3-52E4-4048-A8EE-327B486EF0A4";
paths = (
{
closed = 1;
nodes = (
"283 0 LINE",
"471 0 LINE",
"471 426 LINE",
"283 426 LINE"
);
},
{
closed = 1;
nodes = (
"226 337 LINE",
"333 700 LINE",
"136 700 LINE",
"8 302 LINE",
"8 167 LINE",
"522 167 LINE",
"522 337 LINE"
);
}
);
width = 530;
},
{
layerId = "FFFA8D72-12AC-4CE0-B2CA-57A29829F4DA";
paths = (
{
closed = 1;
nodes = (
"345 0 LINE",
"533 0 LINE",
"533 426 LINE",
"345 426 LINE"
);
},
{
closed = 1;
nodes = (
"229 337 LINE",
"382 700 LINE",
"185 700 LINE",
"12 302 LINE",
"12 167 LINE",
"594 167 LINE",
"594 337 LINE"
);
}
);
width = 606;
},
{
layerId = "DCBE1F7B-116A-43E0-B7B4-8657BA77D8B5";
paths = (
{
closed = 1;
nodes = (
"263 -7 LINE",
"285 -7 LINE",
"285 415 LINE",
"263 415 LINE"
);
},
{
closed = 1;
nodes = (
"60 222 LINE",
"226 700 LINE",
"202 700 LINE",
"36 222 LINE",
"36 202 LINE",
"327 202 LINE",
"327 222 LINE"
);
}
);
width = 363;
}
);
unicode = 0034;
},
{
glyphname = five;
lastChange = "2017-03-08 11:35:52 +0000";
layers = (
{
layerId = "262880E7-CFE1-4BDA-902E-E24798F3240A";
paths = (
{
closed = 1;
nodes = (
"339 -9 OFFCURVE",
"405 57 OFFCURVE",
"405 157 CURVE SMOOTH",
"405 262 LINE SMOOTH",
"405 362 OFFCURVE",
"339 428 OFFCURVE",
"240 428 CURVE SMOOTH",
"140 428 OFFCURVE",
"79 381 OFFCURVE",
"79 311 CURVE",
"79 307 LINE",
"99 307 LINE",
"99 311 LINE SMOOTH",
"99 369 OFFCURVE",
"153 407 OFFCURVE",
"241 407 CURVE SMOOTH",
"326 407 OFFCURVE",
"383 350 OFFCURVE",
"383 265 CURVE SMOOTH",
"383 154 LINE SMOOTH",
"383 69 OFFCURVE",
"326 12 OFFCURVE",
"241 12 CURVE SMOOTH",
"156 12 OFFCURVE",
"99 69 OFFCURVE",
"99 154 CURVE SMOOTH",
"99 158 LINE",
"77 158 LINE",
"77 157 LINE SMOOTH",
"77 57 OFFCURVE",
"143 -9 OFFCURVE",
"241 -9 CURVE SMOOTH"
);
},
{
closed = 1;
nodes = (
"99 307 LINE",
"99 679 LINE",
"391 679 LINE",
"391 700 LINE",
"77 700 LINE",
"77 307 LINE"
);
}
);
width = 482;
},
{
layerId = "4E2227F3-52E4-4048-A8EE-327B486EF0A4";
paths = (
{
closed = 1;
nodes = (
"357 -8 OFFCURVE",
"442 58 OFFCURVE",
"442 171 CURVE SMOOTH",
"442 260 LINE SMOOTH",
"442 374 OFFCURVE",
"383 444 OFFCURVE",
"288 444 CURVE SMOOTH",
"177 444 OFFCURVE",
"145 344 OFFCURVE",
"145 260 CURVE",
"145 256 LINE",
"202 256 LINE",
"202 257 LINE SMOOTH",
"202 272 OFFCURVE",
"212 282 OFFCURVE",
"228 282 CURVE SMOOTH",
"244 282 OFFCURVE",
"254 269 OFFCURVE",
"254 250 CURVE SMOOTH",
"254 184 LINE SMOOTH",
"254 165 OFFCURVE",
"244 152 OFFCURVE",
"228 152 CURVE SMOOTH",
"213 152 OFFCURVE",
"203 165 OFFCURVE",
"203 184 CURVE SMOOTH",
"203 185 LINE",
"15 185 LINE",
"15 171 LINE SMOOTH",
"15 58 OFFCURVE",
"98 -8 OFFCURVE",
"228 -8 CURVE SMOOTH"
);
},
{
closed = 1;
nodes = (
"202 254 LINE",
"202 530 LINE",
"440 530 LINE",
"440 700 LINE",
"14 700 LINE",
"14 254 LINE"
);
}
);
width = 456;
},
{
layerId = "FFFA8D72-12AC-4CE0-B2CA-57A29829F4DA";
paths = (
{
closed = 1;
nodes = (
"411 -8 OFFCURVE",
"509 64 OFFCURVE",
"509 171 CURVE SMOOTH",
"509 260 LINE SMOOTH",
"509 370 OFFCURVE",
"430 444 OFFCURVE",
"312 444 CURVE SMOOTH",
"215 444 OFFCURVE",
"151 367 OFFCURVE",
"151 251 CURVE",
"151 247 LINE",
"210 247 LINE",
"210 248 LINE SMOOTH",
"210 268 OFFCURVE",
"232 282 OFFCURVE",
"264 282 CURVE SMOOTH",
"298 282 OFFCURVE",
"321 261 OFFCURVE",
"321 230 CURVE SMOOTH",
"321 204 LINE SMOOTH",
"321 173 OFFCURVE",
"298 152 OFFCURVE",
"264 152 CURVE SMOOTH",
"231 152 OFFCURVE",
"209 170 OFFCURVE",
"209 197 CURVE SMOOTH",
"209 198 LINE",
"21 198 LINE",
"21 171 LINE SMOOTH",
"21 64 OFFCURVE",
"118 -8 OFFCURVE",
"264 -8 CURVE SMOOTH"
);
},
{
closed = 1;
nodes = (
"210 245 LINE",
"211 530 LINE",
"506 530 LINE",
"506 700 LINE",
"23 700 LINE",
"23 245 LINE"
);
}
);
width = 530;
},
{
layerId = "DCBE1F7B-116A-43E0-B7B4-8657BA77D8B5";
paths = (
{
closed = 1;
nodes = (
"267 -9 OFFCURVE",
"318 57 OFFCURVE",
"318 157 CURVE SMOOTH",
"318 262 LINE SMOOTH",
"318 362 OFFCURVE",
"268 428 OFFCURVE",
"192 428 CURVE SMOOTH",
"125 428 OFFCURVE",
"77 381 OFFCURVE",
"77 311 CURVE",
"77 307 LINE",
"94 307 LINE",
"94 311 LINE SMOOTH",
"94 369 OFFCURVE",
"136 407 OFFCURVE",
"190 407 CURVE SMOOTH",
"254 407 OFFCURVE",
"296 350 OFFCURVE",
"296 265 CURVE SMOOTH",
"296 154 LINE SMOOTH",
"296 69 OFFCURVE",
"254 12 OFFCURVE",
"190 12 CURVE SMOOTH",
"127 12 OFFCURVE",
"85 69 OFFCURVE",
"85 154 CURVE SMOOTH",
"85 158 LINE",
"63 158 LINE",
"63 157 LINE SMOOTH",
"63 57 OFFCURVE",
"114 -9 OFFCURVE",
"190 -9 CURVE SMOOTH"
);
},
{
closed = 1;
nodes = (
"94 310 LINE",
"95 679 LINE",
"316 679 LINE",
"316 700 LINE",
"73 700 LINE",
"74 310 LINE"
);
}
);
width = 381;
}
);
unicode = 0035;
},
